SplineFontDB: 3.2
FontName: UbuntuMono-Bold
FullName: Ubuntu Mono Bold
FamilyName: Ubuntu Mono
Weight: Bold
Copyright: Copyright 2011 Canonical Ltd.  Licensed under the Ubuntu Font Licence 1.0
Version: 0.80
ItalicAngle: 0
UnderlinePosition: -133
UnderlineWidth: 20
Ascent: 800
Descent: 200
InvalidEm: 0
sfntRevision: 0x0000cccc
LayerCount: 2
Layer: 0 1 "Back" 1
Layer: 1 1 "Fore" 0
XUID: [1021 235 -1216451338 1030777]
StyleMap: 0x0020
FSType: 0
OS2Version: 3
OS2_WeightWidthSlopeOnly: 0
OS2_UseTypoMetrics: 0
CreationTime: 1304432203
ModificationTime: 1640508870
PfmFamily: 17
TTFWeight: 700
TTFWidth: 5
LineGap: 0
VLineGap: 0
Panose: 2 11 8 9 3 6 2 3 2 4
OS2TypoAscent: 693
OS2TypoAOffset: 0
OS2TypoDescent: -165
OS2TypoDOffset: 0
OS2TypoLinegap: 49
OS2WinAscent: 830
OS2WinAOffset: 0
OS2WinDescent: 170
OS2WinDOffset: 0
HheadAscent: 830
HheadAOffset: 0
HheadDescent: -170
HheadDOffset: 0
OS2SubXSize: 700
OS2SubYSize: 650
OS2SubXOff: 0
OS2SubYOff: 140
OS2SupXSize: 700
OS2SupYSize: 650
OS2SupXOff: 0
OS2SupYOff: 477
OS2StrikeYSize: 50
OS2StrikeYPos: 250
OS2CapHeight: 693
OS2XHeight: 520
OS2Vendor: 'DAMA'
OS2CodePages: 2000009f.56010000
OS2UnicodeRanges: e00002ff.5000205b.00000000.00000000
Lookup: 1 0 0 "'locl' Localized Forms in Latin lookup 0" { "'locl' Localized Forms in Latin lookup 0 subtable"  } ['locl' ('latn' <'AZE ' > ) ]
Lookup: 1 0 0 "'locl' Localized Forms in Latin lookup 1" { "'locl' Localized Forms in Latin lookup 1 subtable"  } ['locl' ('latn' <'TRK ' > ) ]
Lookup: 1 0 0 "'locl' Localized Forms in Latin lookup 2" { "'locl' Localized Forms in Latin lookup 2 subtable"  } ['locl' ('latn' <'CRT ' > ) ]
Lookup: 1 0 0 "'locl' Localized Forms in Cyrillic lookup 3" { "'locl' Localized Forms in Cyrillic lookup 3 subtable"  } ['locl' ('cyrl' <'BGR ' > ) ]
Lookup: 1 0 0 "'locl' Localized Forms in Cyrillic lookup 4" { "'locl' Localized Forms in Cyrillic lookup 4 subtable"  } ['locl' ('cyrl' <'MKD ' > ) ]

StartChar: .notdef
Encoding: 65536 -1 0
Width: 500
Flags: W
LayerCount: 2
Fore
SplineSet
50 0 m 1,0,-1
 50 750 l 1,1,-1
 450 750 l 1,2,-1
 450 0 l 1,3,-1
 50 0 l 1,0,-1
400 50 m 1,4,-1
 400 700 l 1,5,-1
 100 700 l 1,6,-1
 100 50 l 1,7,-1
 400 50 l 1,4,-1
EndSplineSet
EndChar

StartChar: exclam
Encoding: 33 33 4
Width: 500
Flags: W
LayerCount: 2
Fore
SplineSet
321 455 m 2,0,1
 321 419 321 419 319.5 390.5 c 128,-1,2
 318 362 318 362 315.5 335.5 c 128,-1,3
 313 309 313 309 309.5 283 c 128,-1,4
 306 257 306 257 302 225 c 1,5,-1
 200 225 l 1,6,7
 195 257 195 257 191.5 283.5 c 128,-1,8
 188 310 188 310 185 336 c 128,-1,9
 182 362 182 362 180.5 390.5 c 128,-1,10
 179 419 179 419 179 455 c 2,11,-1
 179 619 l 1,12,-1
 321 619 l 1,13,-1
 321 455 l 2,0,1
333 71 m 0,14,15
 333 32 333 32 307.5 10 c 128,-1,16
 282 -12 282 -12 250 -12 c 256,17,18
 218 -12 218 -12 192.5 10 c 128,-1,19
 167 32 167 32 167 71 c 0,20,21
 167 109 167 109 192.5 131 c 128,-1,22
 218 153 218 153 250 153 c 256,23,24
 282 153 282 153 307.5 131 c 128,-1,25
 333 109 333 109 333 71 c 0,14,15
EndSplineSet
EndChar

StartChar: quotedbl
Encoding: 34 34 5
Width: 500
Flags: W
LayerCount: 2
Fore
SplineSet
415 679 m 1,0,-1
 415 630 l 2,1,2
 415 605 415 605 412.5 575.5 c 128,-1,3
 410 546 410 546 405.5 515 c 128,-1,4
 401 484 401 484 396 454 c 128,-1,5
 391 424 391 424 386 398 c 1,6,-1
 314 398 l 1,7,8
 309 424 309 424 304 454 c 128,-1,9
 299 484 299 484 294.5 515 c 128,-1,10
 290 546 290 546 287 576 c 128,-1,11
 284 606 284 606 284 631 c 2,12,-1
 284 679 l 1,13,-1
 415 679 l 1,0,-1
218 679 m 1,14,-1
 218 630 l 2,15,16
 218 605 218 605 215.5 575.5 c 128,-1,17
 213 546 213 546 208.5 515 c 128,-1,18
 204 484 204 484 198.5 454 c 128,-1,19
 193 424 193 424 188 398 c 1,20,-1
 117 398 l 1,21,22
 112 424 112 424 107 454 c 128,-1,23
 102 484 102 484 97.5 515 c 128,-1,24
 93 546 93 546 90 576 c 128,-1,25
 87 606 87 606 87 631 c 2,26,-1
 87 679 l 1,27,-1
 218 679 l 1,14,-1
EndSplineSet
EndChar

StartChar: numbersign
Encoding: 35 35 6
Width: 500
Flags: W
LayerCount: 2
Fore
SplineSet
138 467 m 1,0,-1
 167 619 l 1,1,-1
 269 619 l 1,2,-1
 239 467 l 1,3,-1
 319 467 l 1,4,-1
 348 619 l 1,5,-1
 450 619 l 1,6,-1
 421 467 l 1,7,-1
 483 467 l 1,8,-1
 483 365 l 1,9,-1
 401 365 l 1,10,-1
 380 255 l 1,11,-1
 483 255 l 1,12,-1
 483 153 l 1,13,-1
 361 153 l 1,14,-1
 332 0 l 1,15,-1
 230 0 l 1,16,-1
 259 153 l 1,17,-1
 179 153 l 1,18,-1
 151 0 l 1,19,-1
 49 0 l 1,20,-1
 78 153 l 1,21,-1
 18 153 l 1,22,-1
 18 255 l 1,23,-1
 97 255 l 1,24,-1
 118 365 l 1,25,-1
 18 365 l 1,26,-1
 18 467 l 1,27,-1
 138 467 l 1,0,-1
199 255 m 1,28,-1
 279 255 l 1,29,-1
 299 365 l 1,30,-1
 220 365 l 1,31,-1
 199 255 l 1,28,-1
EndSplineSet
EndChar

StartChar: dollar
Encoding: 36 36 7
Width: 500
Flags: W
LayerCount: 2
Fore
SplineSet
193 9 m 1,0,1
 130 15 130 15 91.5 29 c 128,-1,2
 53 43 53 43 34 54 c 1,3,-1
 72 152 l 1,4,5
 104 137 104 137 147 124.5 c 128,-1,6
 190 112 190 112 238 112 c 0,7,8
 294 112 294 112 316 126.5 c 128,-1,9
 338 141 338 141 338 172 c 0,10,11
 338 190 338 190 329.5 203 c 128,-1,12
 321 216 321 216 304.5 226.5 c 128,-1,13
 288 237 288 237 264 245.5 c 128,-1,14
 240 254 240 254 210 265 c 0,15,16
 181 275 181 275 153 288 c 128,-1,17
 125 301 125 301 103 319.5 c 128,-1,18
 81 338 81 338 67.5 364.5 c 128,-1,19
 54 391 54 391 54 430 c 0,20,21
 54 458 54 458 61.5 484 c 128,-1,22
 69 510 69 510 85.5 532 c 128,-1,23
 102 554 102 554 129 570.5 c 128,-1,24
 156 587 156 587 195 596 c 1,25,-1
 195 693 l 1,26,-1
 309 693 l 1,27,-1
 309 601 l 1,28,29
 355 597 355 597 390.5 587 c 128,-1,30
 426 577 426 577 446 569 c 1,31,-1
 418 466 l 1,32,33
 389 478 389 478 349.5 487.5 c 128,-1,34
 310 497 310 497 268 497 c 0,35,36
 220 497 220 497 201.5 480 c 128,-1,37
 183 463 183 463 183 440 c 0,38,39
 183 424 183 424 189.5 413.5 c 128,-1,40
 196 403 196 403 209.5 395 c 128,-1,41
 223 387 223 387 242 379.5 c 128,-1,42
 261 372 261 372 287 363 c 0,43,44
 326 348 326 348 359 331.5 c 128,-1,45
 392 315 392 315 416 293.5 c 128,-1,46
 440 272 440 272 453.5 243 c 128,-1,47
 467 214 467 214 467 175 c 0,48,49
 467 148 467 148 459 121.5 c 128,-1,50
 451 95 451 95 432.5 72.5 c 128,-1,51
 414 50 414 50 383.5 33.5 c 128,-1,52
 353 17 353 17 307 10 c 1,53,-1
 307 -97 l 1,54,-1
 193 -97 l 1,55,-1
 193 9 l 1,0,1
EndSplineSet
EndChar

StartChar: percent
Encoding: 37 37 8
Width: 500
Flags: W
LayerCount: 2
Fore
SplineSet
91 0 m 1,0,-1
 2 0 l 1,1,-1
 409 619 l 1,2,-1
 498 619 l 1,3,-1
 91 0 l 1,0,-1
265 142 m 256,4,5
 265 218 265 218 295 257.5 c 128,-1,6
 325 297 325 297 377 297 c 0,7,8
 430 297 430 297 460 257.5 c 128,-1,9
 490 218 490 218 490 142 c 256,10,11
 490 66 490 66 460 26.5 c 128,-1,12
 430 -13 430 -13 377 -13 c 0,13,14
 325 -13 325 -13 295 26.5 c 128,-1,15
 265 66 265 66 265 142 c 256,4,5
410 142 m 256,16,17
 410 184 410 184 400 202 c 128,-1,18
 390 220 390 220 376 220 c 256,19,20
 362 220 362 220 353.5 202 c 128,-1,21
 345 184 345 184 345 142 c 256,22,23
 345 100 345 100 353.5 83 c 128,-1,24
 362 66 362 66 376 66 c 256,25,26
 390 66 390 66 400 83 c 128,-1,27
 410 100 410 100 410 142 c 256,16,17
10 478 m 256,28,29
 10 554 10 554 40 593.5 c 128,-1,30
 70 633 70 633 121 633 c 0,31,32
 175 633 175 633 205 593.5 c 128,-1,33
 235 554 235 554 235 478 c 256,34,35
 235 402 235 402 205 362 c 128,-1,36
 175 322 175 322 121 322 c 0,37,38
 70 322 70 322 40 362 c 128,-1,39
 10 402 10 402 10 478 c 256,28,29
154 478 m 256,40,41
 154 520 154 520 144 537.5 c 128,-1,42
 134 555 134 555 121 555 c 0,43,44
 107 555 107 555 98 537.5 c 128,-1,45
 89 520 89 520 89 478 c 256,46,47
 89 436 89 436 98 419 c 128,-1,48
 107 402 107 402 121 402 c 0,49,50
 134 402 134 402 144 419 c 128,-1,51
 154 436 154 436 154 478 c 256,40,41
EndSplineSet
EndChar

StartChar: ampersand
Encoding: 38 38 9
Width: 500
Flags: W
LayerCount: 2
Fore
SplineSet
365 0 m 1,0,1
 354 29 354 29 341 53 c 1,2,3
 307 23 307 23 271 7.5 c 128,-1,4
 235 -8 235 -8 200 -8 c 0,5,6
 155 -8 155 -8 121.5 6 c 128,-1,7
 88 20 88 20 65.5 43.5 c 128,-1,8
 43 67 43 67 32 98 c 128,-1,9
 21 129 21 129 21 163 c 0,10,11
 21 211 21 211 45.5 254.5 c 128,-1,12
 70 298 70 298 119 328 c 1,13,14
 95 361 95 361 79.5 397 c 128,-1,15
 64 433 64 433 64 472 c 0,16,17
 64 512 64 512 78 542.5 c 128,-1,18
 92 573 92 573 115 593 c 128,-1,19
 138 613 138 613 166.5 623 c 128,-1,20
 195 633 195 633 225 633 c 0,21,22
 253 633 253 633 280 624 c 128,-1,23
 307 615 307 615 328 597.5 c 128,-1,24
 349 580 349 580 362 553.5 c 128,-1,25
 375 527 375 527 375 492 c 0,26,27
 375 444 375 444 346 398.5 c 128,-1,28
 317 353 317 353 255 321 c 1,29,30
 275 297 275 297 297 272 c 128,-1,31
 319 247 319 247 342 221 c 1,32,33
 356 272 356 272 357 342 c 1,34,-1
 459 329 l 1,35,36
 458 273 458 273 444.5 225 c 128,-1,37
 431 177 431 177 410 138 c 1,38,39
 434 105 434 105 453 70 c 128,-1,40
 472 35 472 35 482 0 c 1,41,-1
 365 0 l 1,0,1
292 125 m 1,42,43
 264 160 264 160 234 193 c 128,-1,44
 204 226 204 226 175 258 c 1,45,46
 153 243 153 243 139.5 221.5 c 128,-1,47
 126 200 126 200 126 169 c 0,48,49
 126 135 126 135 143.5 110 c 128,-1,50
 161 85 161 85 203 85 c 0,51,52
 226 85 226 85 249 94 c 128,-1,53
 272 103 272 103 292 125 c 1,42,43
170 478 m 0,54,55
 170 456 170 456 179 433.5 c 128,-1,56
 188 411 188 411 204 387 c 1,57,58
 236 405 236 405 253 434.5 c 128,-1,59
 270 464 270 464 270 491 c 0,60,61
 270 517 270 517 257.5 530.5 c 128,-1,62
 245 544 245 544 225 544 c 0,63,64
 200 544 200 544 185 527 c 128,-1,65
 170 510 170 510 170 478 c 0,54,55
EndSplineSet
EndChar

StartChar: quotesingle
Encoding: 39 39 10
Width: 500
Flags: W
LayerCount: 2
Fore
SplineSet
317 679 m 1,0,-1
 317 613 l 2,1,2
 317 588 317 588 314.5 558.5 c 128,-1,3
 312 529 312 529 307.5 498 c 128,-1,4
 303 467 303 467 298 436.5 c 128,-1,5
 293 406 293 406 288 380 c 1,6,-1
 216 380 l 1,7,8
 211 406 211 406 206 436.5 c 128,-1,9
 201 467 201 467 196.5 498 c 128,-1,10
 192 529 192 529 189 558.5 c 128,-1,11
 186 588 186 588 186 613 c 2,12,-1
 186 679 l 1,13,-1
 317 679 l 1,0,-1
EndSplineSet
EndChar

StartChar: parenleft
Encoding: 40 40 11
Width: 500
Flags: W
LayerCount: 2
Fore
SplineSet
208 266 m 0,0,1
 208 143 208 143 262.5 52.5 c 128,-1,2
 317 -38 317 -38 413 -94 c 1,3,-1
 356 -170 l 1,4,5
 220 -95 220 -95 157 17 c 128,-1,6
 94 129 94 129 94 266 c 0,7,8
 94 404 94 404 159 519.5 c 128,-1,9
 224 635 224 635 360 710 c 1,10,-1
 417 634 l 1,11,12
 321 578 321 578 264.5 484 c 128,-1,13
 208 390 208 390 208 266 c 0,0,1
EndSplineSet
Substitution2: "'case' Case-Sensitive Forms lookup 17 subtable" Parenleft
EndChar

StartChar: parenright
Encoding: 41 41 12
Width: 500
Flags: W
LayerCount: 2
Fore
SplineSet
294 266 m 0,0,1
 294 390 294 390 237.5 484 c 128,-1,2
 181 578 181 578 85 634 c 1,3,-1
 142 710 l 1,4,5
 278 635 278 635 343 519.5 c 128,-1,6
 408 404 408 404 408 266 c 0,7,8
 408 129 408 129 345 17 c 128,-1,9
 282 -95 282 -95 146 -170 c 1,10,-1
 89 -94 l 1,11,12
 185 -38 185 -38 239.5 52.5 c 128,-1,13
 294 143 294 143 294 266 c 0,0,1
EndSplineSet
Substitution2: "'case' Case-Sensitive Forms lookup 17 subtable" Parenright
EndChar

StartChar: asterisk
Encoding: 42 42 13
Width: 500
Flags: W
LayerCount: 2
Fore
SplineSet
252 374 m 1,0,1
 249 362 249 362 243 345 c 128,-1,2
 237 328 237 328 230.5 311 c 128,-1,3
 224 294 224 294 216.5 279 c 128,-1,4
 209 264 209 264 202 254 c 2,5,-1
 183 229 l 1,6,-1
 89 296 l 1,7,-1
 108 321 l 2,8,9
 115 331 115 331 127.5 343 c 128,-1,10
 140 355 140 355 153.5 367 c 128,-1,11
 167 379 167 379 181 389.5 c 128,-1,12
 195 400 195 400 205 407 c 1,13,14
 192 407 192 407 174.5 407 c 128,-1,15
 157 407 157 407 139 408.5 c 128,-1,16
 121 410 121 410 104 413 c 128,-1,17
 87 416 87 416 76 420 c 2,18,-1
 46 430 l 1,19,-1
 83 539 l 1,20,-1
 113 530 l 2,21,22
 124 526 124 526 139 517.5 c 128,-1,23
 154 509 154 509 169 499 c 128,-1,24
 184 489 184 489 198.5 479 c 128,-1,25
 213 469 213 469 223 461 c 1,26,27
 219 473 219 473 214 489.5 c 128,-1,28
 209 506 209 506 204.5 524 c 128,-1,29
 200 542 200 542 197 559 c 128,-1,30
 194 576 194 576 194 588 c 2,31,-1
 194 619 l 1,32,-1
 310 619 l 1,33,-1
 310 588 l 2,34,35
 310 576 310 576 307 559 c 128,-1,36
 304 542 304 542 299.5 524 c 128,-1,37
 295 506 295 506 289.5 489.5 c 128,-1,38
 284 473 284 473 280 461 c 1,39,40
 290 468 290 468 305 478 c 128,-1,41
 320 488 320 488 335.5 497.5 c 128,-1,42
 351 507 351 507 366 515 c 128,-1,43
 381 523 381 523 393 527 c 2,44,-1
 422 537 l 1,45,-1
 458 426 l 1,46,-1
 428 417 l 2,47,48
 416 413 416 413 399 411 c 128,-1,49
 382 409 382 409 364 407.5 c 128,-1,50
 346 406 346 406 328.5 406 c 128,-1,51
 311 406 311 406 298 406 c 1,52,53
 309 399 309 399 323 388.5 c 128,-1,54
 337 378 337 378 351 366.5 c 128,-1,55
 365 355 365 355 377 343 c 128,-1,56
 389 331 389 331 396 321 c 2,57,-1
 415 296 l 1,58,-1
 321 228 l 1,59,-1
 303 253 l 2,60,61
 296 263 296 263 288.5 278 c 128,-1,62
 281 293 281 293 274 310.5 c 128,-1,63
 267 328 267 328 261.5 344.5 c 128,-1,64
 256 361 256 361 252 374 c 1,0,1
EndSplineSet
EndChar

StartChar: plus
Encoding: 43 43 14
Width: 500
Flags: W
LayerCount: 2
Fore
SplineSet
40 313 m 1,0,-1
 197 313 l 1,1,-1
 197 487 l 1,2,-1
 303 487 l 1,3,-1
 303 313 l 1,4,-1
 460 313 l 1,5,-1
 460 212 l 1,6,-1
 303 212 l 1,7,-1
 303 38 l 1,8,-1
 197 38 l 1,9,-1
 197 212 l 1,10,-1
 40 212 l 1,11,-1
 40 313 l 1,0,-1
EndSplineSet
EndChar

StartChar: comma
Encoding: 44 44 15
Width: 500
Flags: W
LayerCount: 2
Fore
SplineSet
126 -73 m 1,0,1
 144 -69 144 -69 162.5 -66 c 128,-1,2
 181 -63 181 -63 197.5 -57 c 128,-1,3
 214 -51 214 -51 227 -40 c 128,-1,4
 240 -29 240 -29 248 -10 c 1,5,6
 210 -6 210 -6 189 20 c 128,-1,7
 168 46 168 46 168 78 c 0,8,9
 168 117 168 117 193.5 142 c 128,-1,10
 219 167 219 167 258 167 c 0,11,12
 300 167 300 167 323.5 139 c 128,-1,13
 347 111 347 111 347 63 c 0,14,15
 347 28 347 28 336 -7 c 128,-1,16
 325 -42 325 -42 300.5 -72 c 128,-1,17
 276 -102 276 -102 237 -124 c 128,-1,18
 198 -146 198 -146 142 -153 c 1,19,-1
 126 -73 l 1,0,1
EndSplineSet
EndChar

StartChar: hyphen
Encoding: 45 45 16
Width: 500
Flags: W
LayerCount: 2
Fore
SplineSet
113 317 m 1,0,-1
 387 317 l 1,1,-1
 387 196 l 1,2,-1
 113 196 l 1,3,-1
 113 317 l 1,0,-1
EndSplineSet
Substitution2: "'case' Case-Sensitive Forms lookup 17 subtable" Hyphen
EndChar

StartChar: period
Encoding: 46 46 17
Width: 500
Flags: W
LayerCount: 2
Fore
SplineSet
340 79 m 0,0,1
 340 35 340 35 313 12 c 128,-1,2
 286 -11 286 -11 251 -11 c 0,3,4
 233 -11 233 -11 217 -5 c 128,-1,5
 201 1 201 1 188.5 12.5 c 128,-1,6
 176 24 176 24 168.5 40.5 c 128,-1,7
 161 57 161 57 161 79 c 0,8,9
 161 100 161 100 168.5 116.5 c 128,-1,10
 176 133 176 133 188.5 144 c 128,-1,11
 201 155 201 155 217 161 c 128,-1,12
 233 167 233 167 251 167 c 0,13,14
 286 167 286 167 313 144 c 128,-1,15
 340 121 340 121 340 79 c 0,0,1
EndSplineSet
EndChar

StartChar: slash
Encoding: 47 47 18
Width: 500
Flags: W
LayerCount: 2
Fore
SplineSet
175 -165 m 1,0,-1
 47 -165 l 1,1,-1
 327 699 l 1,2,-1
 453 699 l 1,3,-1
 175 -165 l 1,0,-1
EndSplineSet
Substitution2: "'case' Case-Sensitive Forms lookup 17 subtable" Slash
Substitution2: "'ss02' Style Set 2 lookup 14 subtable" fraction
Substitution2: "'frac' Diagonal Fractions lookup 12 subtable" fraction
EndChar

StartChar: zero
Encoding: 48 48 19
Width: 500
Flags: W
LayerCount: 2
Fore
SplineSet
465 311 m 0,0,1
 465 147 465 147 410 67 c 128,-1,2
 355 -13 355 -13 250 -13 c 256,3,4
 145 -13 145 -13 90 67 c 128,-1,5
 35 147 35 147 35 311 c 0,6,7
 35 473 35 473 91 553 c 128,-1,8
 147 633 147 633 250 633 c 0,9,10
 355 633 355 633 410 553.5 c 128,-1,11
 465 474 465 474 465 311 c 0,0,1
354 311 m 0,12,13
 354 417 354 417 327.5 472.5 c 128,-1,14
 301 528 301 528 250 528 c 0,15,16
 200 528 200 528 173 472.5 c 128,-1,17
 146 417 146 417 146 311 c 0,18,19
 146 204 146 204 173 148.5 c 128,-1,20
 200 93 200 93 250 93 c 0,21,22
 301 93 301 93 327.5 148.5 c 128,-1,23
 354 204 354 204 354 311 c 0,12,13
306 321 m 256,24,25
 306 294 306 294 290.5 274.5 c 128,-1,26
 275 255 275 255 251 255 c 0,27,28
 225 255 225 255 210 274.5 c 128,-1,29
 195 294 195 294 195 321 c 256,30,31
 195 348 195 348 210 368 c 128,-1,32
 225 388 225 388 251 388 c 0,33,34
 275 388 275 388 290.5 368 c 128,-1,35
 306 348 306 348 306 321 c 256,24,25
EndSplineSet
Substitution2: "'ss02' Style Set 2 lookup 15 subtable" zerosuperior
Substitution2: "'sinf' Scientific Inferiors lookup 11 subtable" zero.sinf
Substitution2: "'subs' Subscript lookup 10 subtable" zero.sinf
Substitution2: "'sups' Superscript lookup 9 subtable" zero.sups
Substitution2: "'dnom' Denominators lookup 8 subtable" zeroinferior
Substitution2: "'numr' Numerators lookup 6 subtable" zerosuperior
EndChar

StartChar: one
Encoding: 49 49 20
Width: 500
Flags: W
LayerCount: 2
Fore
SplineSet
213 102 m 1,0,-1
 213 448 l 1,1,2
 185 428 185 428 149 412.5 c 128,-1,3
 113 397 113 397 88 388 c 1,4,-1
 48 490 l 1,5,6
 72 499 72 499 100 513 c 128,-1,7
 128 527 128 527 156 544 c 128,-1,8
 184 561 184 561 209 580 c 128,-1,9
 234 599 234 599 252 619 c 1,10,-1
 336 619 l 1,11,-1
 336 102 l 1,12,-1
 459 102 l 1,13,-1
 459 0 l 1,14,-1
 83 0 l 1,15,-1
 83 102 l 1,16,-1
 213 102 l 1,0,-1
EndSplineSet
Substitution2: "'ss02' Style Set 2 lookup 15 subtable" onesuperior
Substitution2: "'sinf' Scientific Inferiors lookup 11 subtable" one.sinf
Substitution2: "'subs' Subscript lookup 10 subtable" one.sinf
Substitution2: "'sups' Superscript lookup 9 subtable" one.sups
Substitution2: "'dnom' Denominators lookup 8 subtable" oneinferior
Substitution2: "'numr' Numerators lookup 6 subtable" onesuperior
EndChar

StartChar: two
Encoding: 50 50 21
Width: 500
Flags: W
LayerCount: 2
Fore
SplineSet
434 456 m 0,0,1
 434 424 434 424 422 394.5 c 128,-1,2
 410 365 410 365 390 337 c 128,-1,3
 370 309 370 309 345 283 c 128,-1,4
 320 257 320 257 294 233 c 0,5,6
 281 221 281 221 264 204.5 c 128,-1,7
 247 188 247 188 232 170.5 c 128,-1,8
 217 153 217 153 206.5 135 c 128,-1,9
 196 117 196 117 196 102 c 1,10,-1
 462 102 l 1,11,-1
 462 0 l 1,12,-1
 58 0 l 1,13,14
 55 10 55 10 55.5 25 c 128,-1,15
 56 40 56 40 56 46 c 0,16,17
 56 96 56 96 74.5 138 c 128,-1,18
 93 180 93 180 121.5 215.5 c 128,-1,19
 150 251 150 251 182.5 281.5 c 128,-1,20
 215 312 215 312 243.5 340 c 128,-1,21
 272 368 272 368 290.5 394 c 128,-1,22
 309 420 309 420 309 447 c 0,23,24
 309 485 309 485 286 505.5 c 128,-1,25
 263 526 263 526 228 526 c 0,26,27
 199 526 199 526 167 512 c 128,-1,28
 135 498 135 498 104 465 c 1,29,-1
 43 551 l 1,30,31
 83 593 83 593 135.5 613 c 128,-1,32
 188 633 188 633 240 633 c 0,33,34
 278 633 278 633 313 622 c 128,-1,35
 348 611 348 611 375 589 c 128,-1,36
 402 567 402 567 418 533.5 c 128,-1,37
 434 500 434 500 434 456 c 0,0,1
EndSplineSet
Substitution2: "'ss02' Style Set 2 lookup 15 subtable" twosuperior
Substitution2: "'sinf' Scientific Inferiors lookup 11 subtable" two.sinf
Substitution2: "'subs' Subscript lookup 10 subtable" two.sinf
Substitution2: "'sups' Superscript lookup 9 subtable" two.sups
Substitution2: "'dnom' Denominators lookup 8 subtable" twoinferior
Substitution2: "'numr' Numerators lookup 6 subtable" twosuperior
EndChar

StartChar: three
Encoding: 51 51 22
Width: 500
Flags: W
LayerCount: 2
Fore
SplineSet
213 -13 m 0,0,1
 190 -13 190 -13 164.5 -9.5 c 128,-1,2
 139 -6 139 -6 115.5 -1 c 128,-1,3
 92 4 92 4 72 10 c 128,-1,4
 52 16 52 16 41 21 c 1,5,-1
 65 124 l 1,6,7
 88 114 88 114 124.5 103 c 128,-1,8
 161 92 161 92 212 92 c 0,9,10
 275 92 275 92 300.5 119 c 128,-1,11
 326 146 326 146 326 186 c 0,12,13
 326 235 326 235 287 254.5 c 128,-1,14
 248 274 248 274 188 274 c 2,15,-1
 150 274 l 1,16,-1
 150 376 l 1,17,-1
 196 376 l 2,18,19
 215 376 215 376 234 380 c 128,-1,20
 253 384 253 384 268 393 c 128,-1,21
 283 402 283 402 292.5 417 c 128,-1,22
 302 432 302 432 302 455 c 0,23,24
 302 489 302 489 281.5 508.5 c 128,-1,25
 261 528 261 528 225 528 c 0,26,27
 190 528 190 528 155.5 516.5 c 128,-1,28
 121 505 121 505 96 488 c 1,29,-1
 52 578 l 1,30,31
 79 596 79 596 123.5 614.5 c 128,-1,32
 168 633 168 633 224 633 c 0,33,34
 276 633 276 633 314.5 620 c 128,-1,35
 353 607 353 607 378 583.5 c 128,-1,36
 403 560 403 560 415 528 c 128,-1,37
 427 496 427 496 427 459 c 256,38,39
 427 422 427 422 406 388 c 128,-1,40
 385 354 385 354 350 336 c 1,41,42
 398 316 398 316 424.5 277 c 128,-1,43
 451 238 451 238 451 184 c 0,44,45
 451 141 451 141 437 105 c 128,-1,46
 423 69 423 69 394 42.5 c 128,-1,47
 365 16 365 16 320 1.5 c 128,-1,48
 275 -13 275 -13 213 -13 c 0,0,1
EndSplineSet
Substitution2: "'ss02' Style Set 2 lookup 15 subtable" threesuperior
Substitution2: "'sinf' Scientific Inferiors lookup 11 subtable" three.sinf
Substitution2: "'subs' Subscript lookup 10 subtable" three.sinf
Substitution2: "'sups' Superscript lookup 9 subtable" three.sups
Substitution2: "'dnom' Denominators lookup 8 subtable" threeinferior
Substitution2: "'numr' Numerators lookup 6 subtable" threesuperior
EndChar

StartChar: four
Encoding: 52 52 23
Width: 500
Flags: W
LayerCount: 2
Fore
SplineSet
285 465 m 1,0,1
 267 442 267 442 248 416 c 128,-1,2
 229 390 229 390 210.5 361.5 c 128,-1,3
 192 333 192 333 175 304 c 128,-1,4
 158 275 158 275 145 247 c 1,5,-1
 285 247 l 1,6,-1
 285 465 l 1,0,1
408 619 m 1,7,-1
 408 247 l 1,8,-1
 475 247 l 1,9,-1
 475 146 l 1,10,-1
 408 146 l 1,11,-1
 408 0 l 1,12,-1
 285 0 l 1,13,-1
 285 146 l 1,14,-1
 27 146 l 1,15,-1
 27 236 l 1,16,17
 46 275 46 275 76 324.5 c 128,-1,18
 106 374 106 374 142 426 c 128,-1,19
 178 478 178 478 218 528.5 c 128,-1,20
 258 579 258 579 298 619 c 1,21,-1
 408 619 l 1,7,-1
EndSplineSet
Substitution2: "'ss02' Style Set 2 lookup 15 subtable" foursuperior
Substitution2: "'sinf' Scientific Inferiors lookup 11 subtable" four.sinf
Substitution2: "'subs' Subscript lookup 10 subtable" four.sinf
Substitution2: "'sups' Superscript lookup 9 subtable" four.sups
Substitution2: "'dnom' Denominators lookup 8 subtable" fourinferior
Substitution2: "'numr' Numerators lookup 6 subtable" foursuperior
EndChar

StartChar: five
Encoding: 53 53 24
Width: 500
Flags: W
LayerCount: 2
Fore
SplineSet
321 182 m 0,0,1
 321 208 321 208 312.5 229.5 c 128,-1,2
 304 251 304 251 278.5 266.5 c 128,-1,3
 253 282 253 282 206 290.5 c 128,-1,4
 159 299 159 299 83 299 c 1,5,6
 93 383 93 383 99 463.5 c 128,-1,7
 105 544 105 544 108 619 c 1,8,-1
 424 619 l 1,9,-1
 424 517 l 1,10,-1
 211 517 l 1,11,12
 209 485 209 485 206 450 c 128,-1,13
 203 415 203 415 201 393 c 1,14,15
 325 385 325 385 386 333 c 128,-1,16
 447 281 447 281 447 187 c 0,17,18
 447 144 447 144 432 107.5 c 128,-1,19
 417 71 417 71 386 44 c 128,-1,20
 355 17 355 17 309 2 c 128,-1,21
 263 -13 263 -13 202 -13 c 0,22,23
 178 -13 178 -13 153 -10 c 128,-1,24
 128 -7 128 -7 105 -2.5 c 128,-1,25
 82 2 82 2 63.5 8 c 128,-1,26
 45 14 45 14 35 19 c 1,27,-1
 60 121 l 1,28,29
 82 110 82 110 116 101 c 128,-1,30
 150 92 150 92 201 92 c 0,31,32
 237 92 237 92 260.5 100 c 128,-1,33
 284 108 284 108 297.5 120.5 c 128,-1,34
 311 133 311 133 316 149 c 128,-1,35
 321 165 321 165 321 182 c 0,0,1
EndSplineSet
Substitution2: "'ss02' Style Set 2 lookup 15 subtable" fivesuperior
Substitution2: "'sinf' Scientific Inferiors lookup 11 subtable" five.sinf
Substitution2: "'subs' Subscript lookup 10 subtable" five.sinf
Substitution2: "'sups' Superscript lookup 9 subtable" five.sups
Substitution2: "'dnom' Denominators lookup 8 subtable" fiveinferior
Substitution2: "'numr' Numerators lookup 6 subtable" fivesuperior
EndChar

StartChar: six
Encoding: 54 54 25
Width: 500
Flags: W
LayerCount: 2
Fore
SplineSet
241 294 m 0,0,1
 222 294 222 294 202 290 c 128,-1,2
 182 286 182 286 169 279 c 1,3,4
 168 270 168 270 167.5 261 c 128,-1,5
 167 252 167 252 167 242 c 0,6,7
 167 213 167 213 171 186.5 c 128,-1,8
 175 160 175 160 185 139 c 128,-1,9
 195 118 195 118 212.5 105.5 c 128,-1,10
 230 93 230 93 256 93 c 0,11,12
 277 93 277 93 292 103 c 128,-1,13
 307 113 307 113 316.5 128 c 128,-1,14
 326 143 326 143 330.5 161 c 128,-1,15
 335 179 335 179 335 196 c 0,16,17
 335 243 335 243 314 268.5 c 128,-1,18
 293 294 293 294 241 294 c 0,0,1
257 396 m 0,19,20
 311 396 311 396 348.5 380 c 128,-1,21
 386 364 386 364 410 337 c 128,-1,22
 434 310 434 310 444.5 274 c 128,-1,23
 455 238 455 238 455 198 c 0,24,25
 455 162 455 162 443.5 125 c 128,-1,26
 432 88 432 88 408 57 c 128,-1,27
 384 26 384 26 347 6.5 c 128,-1,28
 310 -13 310 -13 259 -13 c 0,29,30
 155 -13 155 -13 100.5 51.5 c 128,-1,31
 46 116 46 116 46 253 c 0,32,33
 46 343 46 343 72.5 412 c 128,-1,34
 99 481 99 481 148 528 c 128,-1,35
 197 575 197 575 266 599 c 128,-1,36
 335 623 335 623 419 623 c 1,37,-1
 426 518 l 1,38,39
 386 517 386 517 348 510 c 128,-1,40
 310 503 310 503 278 486.5 c 128,-1,41
 246 470 246 470 222.5 444 c 128,-1,42
 199 418 199 418 188 379 c 1,43,44
 207 387 207 387 225 391.5 c 128,-1,45
 243 396 243 396 257 396 c 0,19,20
EndSplineSet
Substitution2: "'ss02' Style Set 2 lookup 15 subtable" sixsuperior
Substitution2: "'sinf' Scientific Inferiors lookup 11 subtable" six.sinf
Substitution2: "'subs' Subscript lookup 10 subtable" six.sinf
Substitution2: "'sups' Superscript lookup 9 subtable" six.sups
Substitution2: "'dnom' Denominators lookup 8 subtable" sixinferior
Substitution2: "'numr' Numerators lookup 6 subtable" sixsuperior
EndChar

StartChar: seven
Encoding: 55 55 26
Width: 500
Flags: W
LayerCount: 2
Fore
SplineSet
132 0 m 1,0,1
 135 64 135 64 153 135.5 c 128,-1,2
 171 207 171 207 196.5 277 c 128,-1,3
 222 347 222 347 252 409.5 c 128,-1,4
 282 472 282 472 309 517 c 1,5,-1
 49 517 l 1,6,-1
 49 619 l 1,7,-1
 453 619 l 1,8,-1
 453 526 l 1,9,10
 426 495 426 495 394 439 c 128,-1,11
 362 383 362 383 333.5 312 c 128,-1,12
 305 241 305 241 283.5 160.5 c 128,-1,13
 262 80 262 80 257 0 c 1,14,-1
 132 0 l 1,0,1
EndSplineSet
Substitution2: "'ss02' Style Set 2 lookup 15 subtable" sevensuperior
Substitution2: "'sinf' Scientific Inferiors lookup 11 subtable" seven.sinf
Substitution2: "'subs' Subscript lookup 10 subtable" seven.sinf
Substitution2: "'sups' Superscript lookup 9 subtable" seven.sups
Substitution2: "'dnom' Denominators lookup 8 subtable" seveninferior
Substitution2: "'numr' Numerators lookup 6 subtable" sevensuperior
EndChar

StartChar: eight
Encoding: 56 56 27
Width: 500
Flags: W
LayerCount: 2
Fore
SplineSet
446 472 m 0,0,1
 446 429 446 429 425 387.5 c 128,-1,2
 404 346 404 346 359 318 c 1,3,4
 416 285 416 285 439.5 246 c 128,-1,5
 463 207 463 207 463 160 c 0,6,7
 463 130 463 130 451.5 99 c 128,-1,8
 440 68 440 68 414.5 43.5 c 128,-1,9
 389 19 389 19 348 3 c 128,-1,10
 307 -13 307 -13 247 -13 c 0,11,12
 200 -13 200 -13 161.5 -1.5 c 128,-1,13
 123 10 123 10 95.5 31.5 c 128,-1,14
 68 53 68 53 53 84.5 c 128,-1,15
 38 116 38 116 38 155 c 0,16,17
 38 202 38 202 60 243.5 c 128,-1,18
 82 285 82 285 129 317 c 1,19,20
 85 347 85 347 69 381 c 128,-1,21
 53 415 53 415 53 453 c 0,22,23
 53 483 53 483 63.5 515.5 c 128,-1,24
 74 548 74 548 97 574 c 128,-1,25
 120 600 120 600 158 617 c 128,-1,26
 196 634 196 634 252 634 c 0,27,28
 341 634 341 634 393.5 590 c 128,-1,29
 446 546 446 546 446 472 c 0,0,1
347 162 m 0,30,31
 347 182 347 182 339.5 197 c 128,-1,32
 332 212 332 212 315.5 224.5 c 128,-1,33
 299 237 299 237 273 249.5 c 128,-1,34
 247 262 247 262 211 276 c 1,35,36
 183 253 183 253 168 224.5 c 128,-1,37
 153 196 153 196 153 170 c 0,38,39
 153 130 153 130 181.5 109.5 c 128,-1,40
 210 89 210 89 249 89 c 0,41,42
 294 89 294 89 320.5 110.5 c 128,-1,43
 347 132 347 132 347 162 c 0,30,31
250 532 m 0,44,45
 218 532 218 532 193.5 514 c 128,-1,46
 169 496 169 496 169 461 c 256,47,48
 169 426 169 426 192 404 c 128,-1,49
 215 382 215 382 273 358 c 1,50,51
 304 381 304 381 317 408.5 c 128,-1,52
 330 436 330 436 330 462 c 0,53,54
 330 497 330 497 306.5 514.5 c 128,-1,55
 283 532 283 532 250 532 c 0,44,45
EndSplineSet
Substitution2: "'ss02' Style Set 2 lookup 15 subtable" eightsuperior
Substitution2: "'sinf' Scientific Inferiors lookup 11 subtable" eight.sinf
Substitution2: "'subs' Subscript lookup 10 subtable" eight.sinf
Substitution2: "'sups' Superscript lookup 9 subtable" eight.sups
Substitution2: "'dnom' Denominators lookup 8 subtable" eightinferior
Substitution2: "'numr' Numerators lookup 6 subtable" eightsuperior
EndChar

StartChar: nine
Encoding: 57 57 28
Width: 500
Flags: W
LayerCount: 2
Fore
SplineSet
261 329 m 0,0,1
 280 329 280 329 301 333 c 128,-1,2
 322 337 322 337 335 344 c 1,3,4
 336 352 336 352 336.5 363.5 c 128,-1,5
 337 375 337 375 337 386 c 0,6,7
 337 411 337 411 332.5 436.5 c 128,-1,8
 328 462 328 462 317.5 483 c 128,-1,9
 307 504 307 504 289.5 517 c 128,-1,10
 272 530 272 530 246 530 c 0,11,12
 224 530 224 530 208.5 521.5 c 128,-1,13
 193 513 193 513 183.5 499 c 128,-1,14
 174 485 174 485 169.5 466 c 128,-1,15
 165 447 165 447 165 426 c 0,16,17
 165 379 165 379 187 354 c 128,-1,18
 209 329 209 329 261 329 c 0,0,1
245 227 m 0,19,20
 191 227 191 227 153 242.5 c 128,-1,21
 115 258 115 258 91 285 c 128,-1,22
 67 312 67 312 56 347.5 c 128,-1,23
 45 383 45 383 45 424 c 0,24,25
 45 460 45 460 57.5 497.5 c 128,-1,26
 70 535 70 535 94.5 565.5 c 128,-1,27
 119 596 119 596 156 615.5 c 128,-1,28
 193 635 193 635 243 635 c 0,29,30
 347 635 347 635 402 565 c 128,-1,31
 457 495 457 495 457 370 c 0,32,33
 457 280 457 280 431 210.5 c 128,-1,34
 405 141 405 141 356.5 94 c 128,-1,35
 308 47 308 47 239.5 22.5 c 128,-1,36
 171 -2 171 -2 87 -2 c 1,37,-1
 83 104 l 1,38,39
 163 105 163 105 226 138.5 c 128,-1,40
 289 172 289 172 315 244 c 1,41,42
 276 227 276 227 245 227 c 0,19,20
EndSplineSet
Substitution2: "'ss02' Style Set 2 lookup 15 subtable" ninesuperior
Substitution2: "'sinf' Scientific Inferiors lookup 11 subtable" nine.sinf
Substitution2: "'subs' Subscript lookup 10 subtable" nine.sinf
Substitution2: "'sups' Superscript lookup 9 subtable" nine.sups
Substitution2: "'dnom' Denominators lookup 8 subtable" nineinferior
Substitution2: "'numr' Numerators lookup 6 subtable" ninesuperior
EndChar

StartChar: less
Encoding: 60 60 31
Width: 500
Flags: W
LayerCount: 2
Fore
SplineSet
45 313 m 1,0,-1
 429 474 l 1,1,-1
 463 366 l 1,2,-1
 183 257 l 1,3,-1
 463 148 l 1,4,-1
 429 40 l 1,5,-1
 45 202 l 1,6,-1
 45 313 l 1,0,-1
EndSplineSet
EndChar

StartChar: equal
Encoding: 61 61 32
Width: 500
Flags: W
LayerCount: 2
Fore
SplineSet
40 411 m 1,0,-1
 460 411 l 1,1,-1
 460 309 l 1,2,-1
 40 309 l 1,3,-1
 40 411 l 1,0,-1
40 216 m 1,4,-1
 460 216 l 1,5,-1
 460 114 l 1,6,-1
 40 114 l 1,7,-1
 40 216 l 1,4,-1
EndSplineSet
EndChar

StartChar: greater
Encoding: 62 62 33
Width: 500
Flags: W
LayerCount: 2
Fore
SplineSet
459 201 m 1,0,-1
 75 39 l 1,1,-1
 40 147 l 1,2,-1
 321 256 l 1,3,-1
 40 365 l 1,4,-1
 75 473 l 1,5,-1
 459 312 l 1,6,-1
 459 201 l 1,0,-1
EndSplineSet
EndChar

StartChar: question
Encoding: 63 63 34
Width: 500
Flags: W
LayerCount: 2
Fore
SplineSet
166 225 m 1,0,1
 165 230 165 230 165 240 c 0,2,3
 165 280 165 280 186 316.5 c 128,-1,4
 207 353 207 353 241 381 c 0,5,6
 264 400 264 400 284 421.5 c 128,-1,7
 304 443 304 443 304 468 c 0,8,9
 304 498 304 498 283 513.5 c 128,-1,10
 262 529 262 529 230 529 c 256,11,12
 198 529 198 529 168 519.5 c 128,-1,13
 138 510 138 510 103 493 c 1,14,-1
 69 587 l 1,15,16
 104 609 104 609 151 621 c 128,-1,17
 198 633 198 633 244 633 c 0,18,19
 301 633 301 633 338 617.5 c 128,-1,20
 375 602 375 602 396 579 c 128,-1,21
 417 556 417 556 425.5 528.5 c 128,-1,22
 434 501 434 501 434 476 c 0,23,24
 434 447 434 447 422.5 423 c 128,-1,25
 411 399 411 399 393.5 378 c 128,-1,26
 376 357 376 357 356 338.5 c 128,-1,27
 336 320 336 320 318.5 302 c 128,-1,28
 301 284 301 284 289.5 265 c 128,-1,29
 278 246 278 246 278 225 c 1,30,-1
 166 225 l 1,0,1
313 71 m 0,31,32
 313 32 313 32 287.5 10 c 128,-1,33
 262 -12 262 -12 230 -12 c 0,34,35
 214 -12 214 -12 199 -6.5 c 128,-1,36
 184 -1 184 -1 172 10 c 128,-1,37
 160 21 160 21 153 36 c 128,-1,38
 146 51 146 51 146 71 c 0,39,40
 146 90 146 90 153 105.5 c 128,-1,41
 160 121 160 121 172 131.5 c 128,-1,42
 184 142 184 142 199 147.5 c 128,-1,43
 214 153 214 153 230 153 c 256,44,45
 246 153 246 153 261 147.5 c 128,-1,46
 276 142 276 142 287.5 131.5 c 128,-1,47
 299 121 299 121 306 105.5 c 128,-1,48
 313 90 313 90 313 71 c 0,31,32
EndSplineSet
EndChar

StartChar: at
Encoding: 64 64 35
Width: 500
Flags: W
LayerCount: 2
Fore
SplineSet
468 55 m 1,0,1
 441 44 441 44 405.5 38.5 c 128,-1,2
 370 33 370 33 344 33 c 0,3,4
 306 33 306 33 273.5 44.5 c 128,-1,5
 241 56 241 56 217 80.5 c 128,-1,6
 193 105 193 105 179.5 144.5 c 128,-1,7
 166 184 166 184 166 241 c 0,8,9
 166 283 166 283 173.5 320 c 128,-1,10
 181 357 181 357 199 384.5 c 128,-1,11
 217 412 217 412 245.5 428 c 128,-1,12
 274 444 274 444 316 444 c 0,13,14
 335 444 335 444 363 439 c 1,15,-1
 363 455 l 2,16,17
 363 493 363 493 339 519.5 c 128,-1,18
 315 546 315 546 269 546 c 0,19,20
 236 546 236 546 206.5 532 c 128,-1,21
 177 518 177 518 155.5 483 c 128,-1,22
 134 448 134 448 121.5 389.5 c 128,-1,23
 109 331 109 331 109 242 c 0,24,25
 109 172 109 172 119.5 118 c 128,-1,26
 130 64 130 64 155.5 27.5 c 128,-1,27
 181 -9 181 -9 223.5 -28 c 128,-1,28
 266 -47 266 -47 329 -47 c 0,29,30
 376 -47 376 -47 403 -42 c 128,-1,31
 430 -37 430 -37 438 -34 c 1,32,-1
 449 -121 l 1,33,34
 432 -125 432 -125 418 -127.5 c 128,-1,35
 404 -130 404 -130 390 -131.5 c 128,-1,36
 376 -133 376 -133 361.5 -134 c 128,-1,37
 347 -135 347 -135 329 -135 c 0,38,39
 263 -135 263 -135 206 -117 c 128,-1,40
 149 -99 149 -99 107.5 -54.5 c 128,-1,41
 66 -10 66 -10 42 63.5 c 128,-1,42
 18 137 18 137 18 248 c 0,43,44
 18 356 18 356 38.5 429.5 c 128,-1,45
 59 503 59 503 94 548.5 c 128,-1,46
 129 594 129 594 174 613.5 c 128,-1,47
 219 633 219 633 269 633 c 0,48,49
 310 633 310 633 346 620.5 c 128,-1,50
 382 608 382 608 409 581 c 128,-1,51
 436 554 436 554 452 510.5 c 128,-1,52
 468 467 468 467 468 405 c 2,53,-1
 468 55 l 1,0,1
271 247 m 0,54,55
 271 228 271 228 273.5 208 c 128,-1,56
 276 188 276 188 283 172 c 128,-1,57
 290 156 290 156 302.5 145.5 c 128,-1,58
 315 135 315 135 335 135 c 0,59,60
 348 135 348 135 363 138 c 1,61,-1
 363 338 l 1,62,63
 355 340 355 340 348 341 c 128,-1,64
 341 342 341 342 334 342 c 0,65,66
 315 342 315 342 303 333.5 c 128,-1,67
 291 325 291 325 284 311.5 c 128,-1,68
 277 298 277 298 274 281 c 128,-1,69
 271 264 271 264 271 247 c 0,54,55
EndSplineSet
Substitution2: "'case' Case-Sensitive Forms lookup 17 subtable" At
EndChar

StartChar: A
Encoding: 65 65 36
Width: 500
Flags: W
LayerCount: 2
Fore
SplineSet
359 0 m 1,0,-1
 330 143 l 1,1,-1
 165 143 l 1,2,-1
 137 0 l 1,3,-1
 9 0 l 1,4,5
 53 183 53 183 98 333.5 c 128,-1,6
 143 484 143 484 185 619 c 1,7,-1
 319 619 l 1,8,9
 363 483 363 483 406.5 330.5 c 128,-1,10
 450 178 450 178 491 0 c 1,11,-1
 359 0 l 1,0,-1
249 499 m 1,12,13
 239 464 239 464 230.5 432.5 c 128,-1,14
 222 401 222 401 214.5 370.5 c 128,-1,15
 207 340 207 340 200.5 309 c 128,-1,16
 194 278 194 278 188 245 c 1,17,-1
 309 245 l 1,18,19
 303 278 303 278 297 309 c 128,-1,20
 291 340 291 340 283.5 370.5 c 128,-1,21
 276 401 276 401 267.5 432.5 c 128,-1,22
 259 464 259 464 249 499 c 1,12,13
EndSplineSet
EndChar

StartChar: B
Encoding: 66 66 37
Width: 500
Flags: W
LayerCount: 2
Fore
SplineSet
469 187 m 0,0,1
 469 131 469 131 450 93.5 c 128,-1,2
 431 56 431 56 398.5 33.5 c 128,-1,3
 366 11 366 11 321.5 1.5 c 128,-1,4
 277 -8 277 -8 226 -8 c 0,5,6
 185 -8 185 -8 141 -3.5 c 128,-1,7
 97 1 97 1 54 10 c 1,8,-1
 54 611 l 1,9,10
 89 617 89 617 131 621.5 c 128,-1,11
 173 626 173 626 214 626 c 0,12,13
 284 626 284 626 328 611.5 c 128,-1,14
 372 597 372 597 397 573.5 c 128,-1,15
 422 550 422 550 431 521 c 128,-1,16
 440 492 440 492 440 463 c 0,17,18
 440 419 440 419 418.5 385 c 128,-1,19
 397 351 397 351 361 331 c 1,20,21
 424 308 424 308 446.5 269 c 128,-1,22
 469 230 469 230 469 187 c 0,0,1
177 271 m 1,23,-1
 177 103 l 1,24,25
 190 101 190 101 205.5 100 c 128,-1,26
 221 99 221 99 236 99 c 0,27,28
 257 99 257 99 277 102.5 c 128,-1,29
 297 106 297 106 312.5 115.5 c 128,-1,30
 328 125 328 125 338 142.5 c 128,-1,31
 348 160 348 160 348 187 c 0,32,33
 348 232 348 232 319.5 251.5 c 128,-1,34
 291 271 291 271 243 271 c 2,35,-1
 177 271 l 1,23,-1
225 373 m 2,36,37
 272 373 272 373 296 393.5 c 128,-1,38
 320 414 320 414 320 450 c 0,39,40
 320 472 320 472 313 485.5 c 128,-1,41
 306 499 306 499 294 506.5 c 128,-1,42
 282 514 282 514 266 516.5 c 128,-1,43
 250 519 250 519 233 519 c 0,44,45
 219 519 219 519 204 518 c 128,-1,46
 189 517 189 517 177 515 c 1,47,-1
 177 373 l 1,48,-1
 225 373 l 2,36,37
EndSplineSet
EndChar

StartChar: C
Encoding: 67 67 38
Width: 500
Flags: W
LayerCount: 2
Fore
SplineSet
296 -13 m 0,0,1
 165 -13 165 -13 96 71 c 128,-1,2
 27 155 27 155 27 310 c 0,3,4
 27 387 27 387 48 447 c 128,-1,5
 69 507 69 507 106.5 548.5 c 128,-1,6
 144 590 144 590 195.5 611.5 c 128,-1,7
 247 633 247 633 308 633 c 0,8,9
 341 633 341 633 367.5 627.5 c 128,-1,10
 394 622 394 622 414 615 c 128,-1,11
 434 608 434 608 447.5 600 c 128,-1,12
 461 592 461 592 468 588 c 1,13,-1
 436 490 l 1,14,15
 413 505 413 505 380.5 515.5 c 128,-1,16
 348 526 348 526 306 526 c 0,17,18
 277 526 277 526 249.5 515.5 c 128,-1,19
 222 505 222 505 200.5 480.5 c 128,-1,20
 179 456 179 456 165.5 415 c 128,-1,21
 152 374 152 374 152 313 c 0,22,23
 152 207 152 207 188.5 150.5 c 128,-1,24
 225 94 225 94 308 94 c 0,25,26
 356 94 356 94 387.5 105 c 128,-1,27
 419 116 419 116 438 127 c 1,28,-1
 469 30 l 1,29,30
 443 14 443 14 398.5 0.5 c 128,-1,31
 354 -13 354 -13 296 -13 c 0,0,1
EndSplineSet
EndChar

StartChar: D
Encoding: 68 68 39
Width: 500
Flags: W
LayerCount: 2
Fore
SplineSet
177 100 m 1,0,1
 182 99 182 99 188 99 c 128,-1,2
 194 99 194 99 199 99 c 0,3,4
 241 99 241 99 269.5 115 c 128,-1,5
 298 131 298 131 315.5 159 c 128,-1,6
 333 187 333 187 340.5 225.5 c 128,-1,7
 348 264 348 264 348 310 c 0,8,9
 348 350 348 350 342 388 c 128,-1,10
 336 426 336 426 321 455 c 128,-1,11
 306 484 306 484 280 501.5 c 128,-1,12
 254 519 254 519 213 519 c 0,13,14
 205 519 205 519 195 518.5 c 128,-1,15
 185 518 185 518 177 516 c 1,16,-1
 177 100 l 1,0,1
473 310 m 0,17,18
 473 224 473 224 451.5 163.5 c 128,-1,19
 430 103 430 103 392 65 c 128,-1,20
 354 27 354 27 301.5 9.5 c 128,-1,21
 249 -8 249 -8 186 -8 c 0,22,23
 153 -8 153 -8 121.5 -4.5 c 128,-1,24
 90 -1 90 -1 54 7 c 1,25,-1
 54 611 l 1,26,27
 96 620 96 620 133 623 c 128,-1,28
 170 626 170 626 202 626 c 0,29,30
 263 626 263 626 313.5 608 c 128,-1,31
 364 590 364 590 399 551.5 c 128,-1,32
 434 513 434 513 453.5 453.5 c 128,-1,33
 473 394 473 394 473 310 c 0,17,18
EndSplineSet
EndChar

StartChar: E
Encoding: 69 69 40
Width: 500
Flags: W
LayerCount: 2
Fore
SplineSet
63 0 m 1,0,-1
 63 619 l 1,1,-1
 438 619 l 1,2,-1
 438 517 l 1,3,-1
 186 517 l 1,4,-1
 186 378 l 1,5,-1
 405 378 l 1,6,-1
 405 276 l 1,7,-1
 186 276 l 1,8,-1
 186 102 l 1,9,-1
 460 102 l 1,10,-1
 460 0 l 1,11,-1
 63 0 l 1,0,-1
EndSplineSet
EndChar

StartChar: F
Encoding: 70 70 41
Width: 500
Flags: W
LayerCount: 2
Fore
SplineSet
63 0 m 1,0,-1
 63 619 l 1,1,-1
 442 619 l 1,2,-1
 442 517 l 1,3,-1
 186 517 l 1,4,-1
 186 367 l 1,5,-1
 410 367 l 1,6,-1
 410 265 l 1,7,-1
 186 265 l 1,8,-1
 186 0 l 1,9,-1
 63 0 l 1,0,-1
EndSplineSet
EndChar

StartChar: G
Encoding: 71 71 42
Width: 500
Flags: W
LayerCount: 2
Fore
SplineSet
312 526 m 0,0,1
 268 526 268 526 238 510 c 128,-1,2
 208 494 208 494 188.5 465.5 c 128,-1,3
 169 437 169 437 160.5 397.5 c 128,-1,4
 152 358 152 358 152 310 c 0,5,6
 152 199 152 199 187 146.5 c 128,-1,7
 222 94 222 94 290 94 c 0,8,9
 301 94 301 94 314 95 c 128,-1,10
 327 96 327 96 338 98 c 1,11,-1
 338 324 l 1,12,-1
 461 324 l 1,13,-1
 461 15 l 1,14,15
 439 7 439 7 392.5 -3 c 128,-1,16
 346 -13 346 -13 280 -13 c 0,17,18
 222 -13 222 -13 175.5 7.5 c 128,-1,19
 129 28 129 28 96 68.5 c 128,-1,20
 63 109 63 109 45 169.5 c 128,-1,21
 27 230 27 230 27 310 c 0,22,23
 27 389 27 389 48 449.5 c 128,-1,24
 69 510 69 510 105 551 c 128,-1,25
 141 592 141 592 190 612.5 c 128,-1,26
 239 633 239 633 295 633 c 0,27,28
 331 633 331 633 359.5 627.5 c 128,-1,29
 388 622 388 622 409 615 c 128,-1,30
 430 608 430 608 443.5 600 c 128,-1,31
 457 592 457 592 464 588 c 1,32,-1
 432 490 l 1,33,34
 410 504 410 504 378 515 c 128,-1,35
 346 526 346 526 312 526 c 0,0,1
EndSplineSet
EndChar

StartChar: H
Encoding: 72 72 43
Width: 500
Flags: W
LayerCount: 2
Fore
SplineSet
455 619 m 1,0,-1
 455 0 l 1,1,-1
 332 0 l 1,2,-1
 332 273 l 1,3,-1
 168 273 l 1,4,-1
 168 0 l 1,5,-1
 45 0 l 1,6,-1
 45 619 l 1,7,-1
 168 619 l 1,8,-1
 168 375 l 1,9,-1
 332 375 l 1,10,-1
 332 619 l 1,11,-1
 455 619 l 1,0,-1
EndSplineSet
EndChar

StartChar: I
Encoding: 73 73 44
Width: 500
Flags: W
LayerCount: 2
Fore
SplineSet
54 0 m 1,0,-1
 54 102 l 1,1,-1
 189 102 l 1,2,-1
 189 517 l 1,3,-1
 54 517 l 1,4,-1
 54 619 l 1,5,-1
 447 619 l 1,6,-1
 447 517 l 1,7,-1
 313 517 l 1,8,-1
 313 102 l 1,9,-1
 447 102 l 1,10,-1
 447 0 l 1,11,-1
 54 0 l 1,0,-1
EndSplineSet
EndChar

StartChar: J
Encoding: 74 74 45
Width: 500
Flags: W
LayerCount: 2
Fore
SplineSet
438 207 m 2,0,1
 438 162 438 162 426.5 122 c 128,-1,2
 415 82 415 82 388.5 52 c 128,-1,3
 362 22 362 22 320 4.5 c 128,-1,4
 278 -13 278 -13 218 -13 c 0,5,6
 155 -13 155 -13 113 3 c 128,-1,7
 71 19 71 19 42 42 c 1,8,-1
 89 140 l 1,9,10
 114 124 114 124 144.5 109 c 128,-1,11
 175 94 175 94 207 94 c 0,12,13
 255 94 255 94 284.5 119.5 c 128,-1,14
 314 145 314 145 314 214 c 2,15,-1
 314 517 l 1,16,-1
 107 517 l 1,17,-1
 107 619 l 1,18,-1
 438 619 l 1,19,-1
 438 207 l 2,0,1
EndSplineSet
EndChar

StartChar: K
Encoding: 75 75 46
Width: 500
Flags: W
LayerCount: 2
Fore
SplineSet
350 0 m 1,0,1
 339 35 339 35 318.5 75.5 c 128,-1,2
 298 116 298 116 273 154.5 c 128,-1,3
 248 193 248 193 220.5 226.5 c 128,-1,4
 193 260 193 260 168 283 c 1,5,-1
 168 0 l 1,6,-1
 45 0 l 1,7,-1
 45 619 l 1,8,-1
 168 619 l 1,9,-1
 168 362 l 1,10,11
 190 390 190 390 214 424 c 128,-1,12
 238 458 238 458 259.5 492 c 128,-1,13
 281 526 281 526 299 559 c 128,-1,14
 317 592 317 592 329 619 c 1,15,-1
 468 619 l 1,16,17
 454 592 454 592 434.5 557.5 c 128,-1,18
 415 523 415 523 390 485.5 c 128,-1,19
 365 448 365 448 336.5 409 c 128,-1,20
 308 370 308 370 277 334 c 1,21,22
 308 304 308 304 340 265 c 128,-1,23
 372 226 372 226 400.5 181.5 c 128,-1,24
 429 137 429 137 452 90.5 c 128,-1,25
 475 44 475 44 489 0 c 1,26,-1
 350 0 l 1,0,1
EndSplineSet
EndChar

StartChar: L
Encoding: 76 76 47
Width: 500
Flags: W
LayerCount: 2
Fore
SplineSet
460 0 m 1,0,-1
 71 0 l 1,1,-1
 71 619 l 1,2,-1
 195 619 l 1,3,-1
 195 102 l 1,4,-1
 460 102 l 1,5,-1
 460 0 l 1,0,-1
EndSplineSet
EndChar

StartChar: M
Encoding: 77 77 48
Width: 500
Flags: W
LayerCount: 2
Fore
SplineSet
161 619 m 1,0,1
 168 598 168 598 178.5 565 c 128,-1,2
 189 532 189 532 201 494 c 128,-1,3
 213 456 213 456 225 417 c 128,-1,4
 237 378 237 378 248 345 c 1,5,6
 260 382 260 382 273 421.5 c 128,-1,7
 286 461 286 461 298 497.5 c 128,-1,8
 310 534 310 534 320 566 c 128,-1,9
 330 598 330 598 338 619 c 1,10,-1
 440 619 l 1,11,12
 447 538 447 538 453.5 461 c 128,-1,13
 460 384 460 384 464.5 308.5 c 128,-1,14
 469 233 469 233 472 156.5 c 128,-1,15
 475 80 475 80 477 0 c 1,16,-1
 364 0 l 1,17,-1
 370 481 l 1,18,-1
 294 219 l 1,19,-1
 204 219 l 1,20,-1
 131 481 l 1,21,-1
 136 0 l 1,22,-1
 23 0 l 1,23,24
 26 76 26 76 29.5 158 c 128,-1,25
 33 240 33 240 37 321 c 128,-1,26
 41 402 41 402 46.5 478 c 128,-1,27
 52 554 52 554 59 619 c 1,28,-1
 161 619 l 1,0,1
EndSplineSet
EndChar

StartChar: N
Encoding: 78 78 49
Width: 500
Flags: W
LayerCount: 2
Fore
SplineSet
355 0 m 1,0,1
 313 103 313 103 263.5 205.5 c 128,-1,2
 214 308 214 308 157 411 c 1,3,-1
 157 0 l 1,4,-1
 46 0 l 1,5,-1
 46 619 l 1,6,-1
 145 619 l 1,7,8
 173 575 173 575 201 523.5 c 128,-1,9
 229 472 229 472 255.5 421 c 128,-1,10
 282 370 282 370 304.5 322 c 128,-1,11
 327 274 327 274 343 238 c 1,12,-1
 343 619 l 1,13,-1
 454 619 l 1,14,-1
 454 0 l 1,15,-1
 355 0 l 1,0,1
EndSplineSet
EndChar

StartChar: O
Encoding: 79 79 50
Width: 500
Flags: W
LayerCount: 2
Fore
SplineSet
152 310 m 256,0,1
 152 265 152 265 155.5 225.5 c 128,-1,2
 159 186 159 186 169.5 157 c 128,-1,3
 180 128 180 128 199 111 c 128,-1,4
 218 94 218 94 250 94 c 0,5,6
 281 94 281 94 300.5 111 c 128,-1,7
 320 128 320 128 330.5 157.5 c 128,-1,8
 341 187 341 187 344.5 226 c 128,-1,9
 348 265 348 265 348 310 c 256,10,11
 348 355 348 355 344.5 394.5 c 128,-1,12
 341 434 341 434 330.5 463 c 128,-1,13
 320 492 320 492 301 509 c 128,-1,14
 282 526 282 526 250 526 c 256,15,16
 218 526 218 526 199 509 c 128,-1,17
 180 492 180 492 169.5 462.5 c 128,-1,18
 159 433 159 433 155.5 394 c 128,-1,19
 152 355 152 355 152 310 c 256,0,1
27 310 m 256,20,21
 27 470 27 470 86 551.5 c 128,-1,22
 145 633 145 633 250 633 c 0,23,24
 359 633 359 633 416 551.5 c 128,-1,25
 473 470 473 470 473 310 c 256,26,27
 473 150 473 150 415 68.5 c 128,-1,28
 357 -13 357 -13 251 -13 c 0,29,30
 142 -13 142 -13 84.5 68.5 c 128,-1,31
 27 150 27 150 27 310 c 256,20,21
EndSplineSet
EndChar

StartChar: P
Encoding: 80 80 51
Width: 500
Flags: W
LayerCount: 2
Fore
SplineSet
224 626 m 0,0,1
 342 626 342 626 407 577.5 c 128,-1,2
 472 529 472 529 472 419 c 0,3,4
 472 308 472 308 406.5 258.5 c 128,-1,5
 341 209 341 209 221 209 c 2,6,-1
 177 209 l 1,7,-1
 177 0 l 1,8,-1
 54 0 l 1,9,-1
 54 611 l 1,10,11
 72 615 72 615 94.5 618 c 128,-1,12
 117 621 117 621 140 622.5 c 128,-1,13
 163 624 163 624 185 625 c 128,-1,14
 207 626 207 626 224 626 c 0,0,1
238 519 m 0,15,16
 227 519 227 519 207.5 518.5 c 128,-1,17
 188 518 188 518 177 516 c 1,18,-1
 177 316 l 1,19,-1
 227 316 l 2,20,21
 286 316 286 316 316 339.5 c 128,-1,22
 346 363 346 363 346 420 c 0,23,24
 346 474 346 474 316.5 496.5 c 128,-1,25
 287 519 287 519 238 519 c 0,15,16
EndSplineSet
EndChar

StartChar: Q
Encoding: 81 81 52
Width: 500
Flags: W
LayerCount: 2
Fore
SplineSet
27 307 m 0,0,1
 27 467 27 467 86 548.5 c 128,-1,2
 145 630 145 630 250 630 c 0,3,4
 359 630 359 630 416 548.5 c 128,-1,5
 473 467 473 467 473 307 c 0,6,7
 473 167 473 167 428 86.5 c 128,-1,8
 383 6 383 6 298 -11 c 1,9,10
 309 -36 309 -36 351.5 -52.5 c 128,-1,11
 394 -69 394 -69 468 -82 c 1,12,-1
 442 -170 l 1,13,14
 325 -154 325 -154 265.5 -116.5 c 128,-1,15
 206 -79 206 -79 195 -9 c 1,16,17
 114 11 114 11 70.5 90.5 c 128,-1,18
 27 170 27 170 27 307 c 0,0,1
152 307 m 256,19,20
 152 262 152 262 155.5 223 c 128,-1,21
 159 184 159 184 169.5 154.5 c 128,-1,22
 180 125 180 125 199 108 c 128,-1,23
 218 91 218 91 250 91 c 0,24,25
 281 91 281 91 300.5 108 c 128,-1,26
 320 125 320 125 330.5 154.5 c 128,-1,27
 341 184 341 184 344.5 223 c 128,-1,28
 348 262 348 262 348 307 c 256,29,30
 348 352 348 352 344.5 391.5 c 128,-1,31
 341 431 341 431 330.5 460 c 128,-1,32
 320 489 320 489 301 506 c 128,-1,33
 282 523 282 523 250 523 c 256,34,35
 218 523 218 523 199 506 c 128,-1,36
 180 489 180 489 169.5 459.5 c 128,-1,37
 159 430 159 430 155.5 391 c 128,-1,38
 152 352 152 352 152 307 c 256,19,20
EndSplineSet
EndChar

StartChar: R
Encoding: 82 82 53
Width: 500
Flags: W
LayerCount: 2
Fore
SplineSet
214 626 m 0,0,1
 267 626 267 626 310 614 c 128,-1,2
 353 602 353 602 384 577 c 128,-1,3
 415 552 415 552 431.5 513.5 c 128,-1,4
 448 475 448 475 448 423 c 0,5,6
 448 369 448 369 426 325 c 128,-1,7
 404 281 404 281 353 258 c 1,8,9
 370 232 370 232 389 200.5 c 128,-1,10
 408 169 408 169 426 134.5 c 128,-1,11
 444 100 444 100 460.5 65.5 c 128,-1,12
 477 31 477 31 489 0 c 1,13,-1
 360 0 l 1,14,15
 337 60 337 60 306.5 115.5 c 128,-1,16
 276 171 276 171 241 228 c 1,17,-1
 177 228 l 1,18,-1
 177 0 l 1,19,-1
 54 0 l 1,20,-1
 54 610 l 1,21,22
 72 614 72 614 93.5 617.5 c 128,-1,23
 115 621 115 621 137 622.5 c 128,-1,24
 159 624 159 624 179 625 c 128,-1,25
 199 626 199 626 214 626 c 0,0,1
323 424 m 0,26,27
 323 473 323 473 293 496 c 128,-1,28
 263 519 263 519 214 519 c 0,29,30
 207 519 207 519 197 518.5 c 128,-1,31
 187 518 187 518 177 516 c 1,32,-1
 177 330 l 1,33,-1
 204 330 l 2,34,35
 267 330 267 330 295 354.5 c 128,-1,36
 323 379 323 379 323 424 c 0,26,27
EndSplineSet
EndChar

StartChar: S
Encoding: 83 83 54
Width: 500
Flags: W
LayerCount: 2
Fore
SplineSet
232 90 m 0,0,1
 263 90 263 90 283.5 96.5 c 128,-1,2
 304 103 304 103 316 114.5 c 128,-1,3
 328 126 328 126 332.5 140.5 c 128,-1,4
 337 155 337 155 337 170 c 0,5,6
 337 189 337 189 326 204 c 128,-1,7
 315 219 315 219 298 230.5 c 128,-1,8
 281 242 281 242 260 251.5 c 128,-1,9
 239 261 239 261 218 269 c 0,10,11
 190 279 190 279 160 292 c 128,-1,12
 130 305 130 305 105.5 325 c 128,-1,13
 81 345 81 345 65 374.5 c 128,-1,14
 49 404 49 404 49 448 c 0,15,16
 49 535 49 535 105.5 584 c 128,-1,17
 162 633 162 633 261 633 c 0,18,19
 318 633 318 633 360.5 620 c 128,-1,20
 403 607 403 607 432 591 c 1,21,-1
 396 496 l 1,22,23
 371 510 371 510 340.5 520 c 128,-1,24
 310 530 310 530 270 530 c 0,25,26
 172 530 172 530 172 459 c 0,27,28
 172 441 172 441 182 427.5 c 128,-1,29
 192 414 192 414 207.5 403.5 c 128,-1,30
 223 393 223 393 242.5 385 c 128,-1,31
 262 377 262 377 281 370 c 0,32,33
 310 359 310 359 341.5 345.5 c 128,-1,34
 373 332 373 332 399.5 309.5 c 128,-1,35
 426 287 426 287 443 253.5 c 128,-1,36
 460 220 460 220 460 169 c 0,37,38
 460 82 460 82 403.5 34.5 c 128,-1,39
 347 -13 347 -13 232 -13 c 0,40,41
 155 -13 155 -13 109 3.5 c 128,-1,42
 63 20 63 20 40 34 c 1,43,-1
 76 134 l 1,44,45
 103 118 103 118 140.5 104 c 128,-1,46
 178 90 178 90 232 90 c 0,0,1
EndSplineSet
EndChar

StartChar: T
Encoding: 84 84 55
Width: 500
Flags: W
LayerCount: 2
Fore
SplineSet
475 619 m 1,0,-1
 475 517 l 1,1,-1
 312 517 l 1,2,-1
 312 0 l 1,3,-1
 188 0 l 1,4,-1
 188 517 l 1,5,-1
 25 517 l 1,6,-1
 25 619 l 1,7,-1
 475 619 l 1,0,-1
EndSplineSet
EndChar

StartChar: U
Encoding: 85 85 56
Width: 500
Flags: W
LayerCount: 2
Fore
SplineSet
248 -13 m 0,0,1
 188 -13 188 -13 147.5 3.5 c 128,-1,2
 107 20 107 20 83 51 c 128,-1,3
 59 82 59 82 49 126 c 128,-1,4
 39 170 39 170 39 224 c 2,5,-1
 39 619 l 1,6,-1
 163 619 l 1,7,-1
 163 232 l 2,8,9
 163 193 163 193 167 166.5 c 128,-1,10
 171 140 171 140 180.5 124 c 128,-1,11
 190 108 190 108 207 101 c 128,-1,12
 224 94 224 94 250 94 c 256,13,14
 276 94 276 94 293 101 c 128,-1,15
 310 108 310 108 320 124.5 c 128,-1,16
 330 141 330 141 334 167.5 c 128,-1,17
 338 194 338 194 338 233 c 2,18,-1
 338 619 l 1,19,-1
 461 619 l 1,20,-1
 461 224 l 2,21,22
 461 170 461 170 451 126 c 128,-1,23
 441 82 441 82 416 51 c 128,-1,24
 391 20 391 20 350 3.5 c 128,-1,25
 309 -13 309 -13 248 -13 c 0,0,1
EndSplineSet
EndChar

StartChar: V
Encoding: 86 86 57
Width: 500
Flags: W
LayerCount: 2
Fore
SplineSet
186 0 m 1,0,1
 162 69 162 69 135 156 c 128,-1,2
 108 243 108 243 84 329.5 c 128,-1,3
 60 416 60 416 41 493 c 128,-1,4
 22 570 22 570 13 619 c 1,5,-1
 143 619 l 1,6,7
 149 571 149 571 161 507.5 c 128,-1,8
 173 444 173 444 187.5 376.5 c 128,-1,9
 202 309 202 309 218.5 243.5 c 128,-1,10
 235 178 235 178 251 126 c 1,11,12
 267 177 267 177 283 242.5 c 128,-1,13
 299 308 299 308 313 375.5 c 128,-1,14
 327 443 327 443 339 507 c 128,-1,15
 351 571 351 571 359 619 c 1,16,-1
 488 619 l 1,17,18
 476 559 476 559 458.5 485 c 128,-1,19
 441 411 441 411 418.5 329.5 c 128,-1,20
 396 248 396 248 369 163.5 c 128,-1,21
 342 79 342 79 313 0 c 1,22,-1
 186 0 l 1,0,1
EndSplineSet
EndChar

StartChar: W
Encoding: 87 87 58
Width: 500
Flags: W
LayerCount: 2
Fore
SplineSet
296 400 m 1,0,1
 300 381 300 381 308 353 c 128,-1,2
 316 325 316 325 325.5 291 c 128,-1,3
 335 257 335 257 346.5 218 c 128,-1,4
 358 179 358 179 369 138 c 1,5,6
 369 190 369 190 368 249.5 c 128,-1,7
 367 309 367 309 366 371 c 128,-1,8
 365 433 365 433 364 496.5 c 128,-1,9
 363 560 363 560 363 619 c 1,10,-1
 477 619 l 1,11,12
 474 543 474 543 471 462.5 c 128,-1,13
 468 382 468 382 464 302.5 c 128,-1,14
 460 223 460 223 454.5 146 c 128,-1,15
 449 69 449 69 442 0 c 1,16,-1
 340 0 l 1,17,18
 318 63 318 63 296 135.5 c 128,-1,19
 274 208 274 208 252 274 c 1,20,21
 230 211 230 211 206 137 c 128,-1,22
 182 63 182 63 162 0 c 1,23,-1
 60 0 l 1,24,25
 52 69 52 69 46 146.5 c 128,-1,26
 40 224 40 224 35.5 303.5 c 128,-1,27
 31 383 31 383 28 463.5 c 128,-1,28
 25 544 25 544 23 619 c 1,29,-1
 137 619 l 1,30,31
 136 560 136 560 135 497 c 128,-1,32
 134 434 134 434 133 371.5 c 128,-1,33
 132 309 132 309 131 249.5 c 128,-1,34
 130 190 130 190 130 138 c 1,35,36
 139 170 139 170 150.5 208 c 128,-1,37
 162 246 162 246 172.5 283 c 128,-1,38
 183 320 183 320 192 351 c 128,-1,39
 201 382 201 382 206 400 c 1,40,-1
 296 400 l 1,0,1
EndSplineSet
EndChar

StartChar: X
Encoding: 88 88 59
Width: 500
Flags: W
LayerCount: 2
Fore
SplineSet
356 0 m 1,0,1
 337 51 337 51 309.5 113 c 128,-1,2
 282 175 282 175 252 237 c 1,3,4
 223 178 223 178 194 114.5 c 128,-1,5
 165 51 165 51 144 0 c 1,6,-1
 11 0 l 1,7,8
 21 27 21 27 40.5 65 c 128,-1,9
 60 103 60 103 83.5 147 c 128,-1,10
 107 191 107 191 133 237.5 c 128,-1,11
 159 284 159 284 183 327 c 1,12,-1
 21 619 l 1,13,-1
 154 619 l 1,14,-1
 252 421 l 1,15,-1
 355 619 l 1,16,-1
 479 619 l 1,17,-1
 321 330 l 1,18,19
 348 287 348 287 374 240 c 128,-1,20
 400 193 400 193 422.5 148.5 c 128,-1,21
 445 104 445 104 462 65.5 c 128,-1,22
 479 27 479 27 489 0 c 1,23,-1
 356 0 l 1,0,1
EndSplineSet
EndChar

StartChar: Y
Encoding: 89 89 60
Width: 500
Flags: W
LayerCount: 2
Fore
SplineSet
254 336 m 1,0,1
 265 359 265 359 279.5 394 c 128,-1,2
 294 429 294 429 308.5 468 c 128,-1,3
 323 507 323 507 336.5 547 c 128,-1,4
 350 587 350 587 361 619 c 1,5,-1
 488 619 l 1,6,7
 469 568 469 568 450 520 c 128,-1,8
 431 472 431 472 410 425 c 128,-1,9
 389 378 389 378 365 331.5 c 128,-1,10
 341 285 341 285 313 236 c 1,11,-1
 313 0 l 1,12,-1
 189 0 l 1,13,-1
 189 235 l 1,14,15
 134 332 134 332 92.5 424.5 c 128,-1,16
 51 517 51 517 13 619 c 1,17,-1
 145 619 l 1,18,19
 168 547 168 547 196 472.5 c 128,-1,20
 224 398 224 398 254 336 c 1,0,1
EndSplineSet
EndChar

StartChar: Z
Encoding: 90 90 61
Width: 500
Flags: W
LayerCount: 2
Fore
SplineSet
445 533 m 1,0,1
 402 467 402 467 366 409 c 128,-1,2
 330 351 330 351 299 298.5 c 128,-1,3
 268 246 268 246 240.5 197.5 c 128,-1,4
 213 149 213 149 188 102 c 1,5,-1
 454 102 l 1,6,-1
 454 0 l 1,7,-1
 46 0 l 1,8,-1
 46 71 l 1,9,10
 68 114 68 114 93 161.5 c 128,-1,11
 118 209 118 209 149 263 c 128,-1,12
 180 317 180 317 216.5 380 c 128,-1,13
 253 443 253 443 297 517 c 1,14,-1
 59 517 l 1,15,-1
 59 619 l 1,16,-1
 445 619 l 1,17,-1
 445 533 l 1,0,1
EndSplineSet
EndChar

StartChar: bracketleft
Encoding: 91 91 62
Width: 500
Flags: W
LayerCount: 2
Fore
SplineSet
113 699 m 1,0,-1
 390 699 l 1,1,-1
 390 603 l 1,2,-1
 230 603 l 1,3,-1
 230 -69 l 1,4,-1
 390 -69 l 1,5,-1
 390 -165 l 1,6,-1
 113 -165 l 1,7,-1
 113 699 l 1,0,-1
EndSplineSet
Substitution2: "'case' Case-Sensitive Forms lookup 17 subtable" Bracketleft
EndChar

StartChar: backslash
Encoding: 92 92 63
Width: 500
Flags: W
LayerCount: 2
Fore
SplineSet
49 699 m 1,0,-1
 175 699 l 1,1,-1
 455 -165 l 1,2,-1
 328 -165 l 1,3,-1
 49 699 l 1,0,-1
EndSplineSet
Substitution2: "'case' Case-Sensitive Forms lookup 17 subtable" Backslash
EndChar

StartChar: bracketright
Encoding: 93 93 64
Width: 500
Flags: W
LayerCount: 2
Fore
SplineSet
387 -165 m 1,0,-1
 109 -165 l 1,1,-1
 109 -69 l 1,2,-1
 269 -69 l 1,3,-1
 269 603 l 1,4,-1
 109 603 l 1,5,-1
 109 699 l 1,6,-1
 387 699 l 1,7,-1
 387 -165 l 1,0,-1
EndSplineSet
Substitution2: "'case' Case-Sensitive Forms lookup 17 subtable" Bracketright
EndChar

StartChar: asciicircum
Encoding: 94 94 65
Width: 500
Flags: W
LayerCount: 2
Fore
SplineSet
491 309 m 1,0,-1
 380 255 l 1,1,-1
 254 473 l 1,2,-1
 128 255 l 1,3,-1
 16 309 l 1,4,-1
 201 619 l 1,5,-1
 306 619 l 1,6,-1
 491 309 l 1,0,-1
EndSplineSet
EndChar

StartChar: underscore
Encoding: 95 95 66
Width: 500
Flags: W
LayerCount: 2
Fore
SplineSet
8 -58 m 1,0,-1
 492 -58 l 1,1,-1
 492 -165 l 1,2,-1
 8 -165 l 1,3,-1
 8 -58 l 1,0,-1
EndSplineSet
EndChar

StartChar: grave
Encoding: 96 96 67
Width: 500
Flags: W
LayerCount: 2
Fore
SplineSet
213 691 m 1,0,-1
 371 580 l 1,1,-1
 326 513 l 1,2,-1
 152 597 l 1,3,-1
 213 691 l 1,0,-1
EndSplineSet
EndChar

StartChar: a
Encoding: 97 97 68
Width: 500
Flags: W
LayerCount: 2
Fore
SplineSet
251 88 m 0,0,1
 271 88 271 88 290 88.5 c 128,-1,2
 309 89 309 89 323 91 c 1,3,-1
 323 199 l 1,4,5
 311 201 311 201 294 202.5 c 128,-1,6
 277 204 277 204 263 204 c 0,7,8
 244 204 244 204 226 201.5 c 128,-1,9
 208 199 208 199 194.5 193 c 128,-1,10
 181 187 181 187 173 176 c 128,-1,11
 165 165 165 165 165 147 c 0,12,13
 165 115 165 115 189 101.5 c 128,-1,14
 213 88 213 88 251 88 c 0,0,1
240 482 m 0,15,16
 298 482 298 482 336.5 468.5 c 128,-1,17
 375 455 375 455 398 430.5 c 128,-1,18
 421 406 421 406 431 370.5 c 128,-1,19
 441 335 441 335 441 291 c 2,20,-1
 441 11 l 1,21,22
 414 5 414 5 361 -3 c 128,-1,23
 308 -11 308 -11 242 -11 c 0,24,25
 197 -11 197 -11 160.5 -3 c 128,-1,26
 124 5 124 5 98 23.5 c 128,-1,27
 72 42 72 42 58 71.5 c 128,-1,28
 44 101 44 101 44 144 c 0,29,30
 44 185 44 185 60 213 c 128,-1,31
 76 241 76 241 103 258 c 128,-1,32
 130 275 130 275 165 282.5 c 128,-1,33
 200 290 200 290 238 290 c 0,34,35
 286 290 286 290 323 282 c 1,36,-1
 323 297 l 2,37,38
 323 332 323 332 301 355.5 c 128,-1,39
 279 379 279 379 225 379 c 0,40,41
 190 379 190 379 157.5 374 c 128,-1,42
 125 369 125 369 105 362 c 1,43,-1
 88 461 l 1,44,45
 111 469 111 469 153 475.5 c 128,-1,46
 195 482 195 482 240 482 c 0,15,16
EndSplineSet
Substitution2: "'case' Case-Sensitive Forms lookup 18 subtable" A
Substitution2: "'ordn' Ordinals in Latin lookup 7 subtable" ordfeminine
EndChar

StartChar: b
Encoding: 98 98 69
Width: 500
Flags: W
LayerCount: 2
Fore
SplineSet
345 238 m 0,0,1
 345 304 345 304 323.5 339 c 128,-1,2
 302 374 302 374 258 374 c 0,3,4
 238 374 238 374 218.5 368.5 c 128,-1,5
 199 363 199 363 185 355 c 1,6,-1
 185 100 l 1,7,8
 199 97 199 97 214.5 96 c 128,-1,9
 230 95 230 95 241 95 c 0,10,11
 289 95 289 95 317 127.5 c 128,-1,12
 345 160 345 160 345 238 c 0,0,1
470 235 m 0,13,14
 470 179 470 179 455 133.5 c 128,-1,15
 440 88 440 88 411 56 c 128,-1,16
 382 24 382 24 340 6.5 c 128,-1,17
 298 -11 298 -11 244 -11 c 0,18,19
 196 -11 196 -11 146 -4 c 128,-1,20
 96 3 96 3 62 14 c 1,21,-1
 62 673 l 1,22,-1
 185 694 l 1,23,-1
 185 459 l 1,24,25
 211 471 211 471 235 475.5 c 128,-1,26
 259 480 259 480 283 480 c 0,27,28
 329 480 329 480 364 462.5 c 128,-1,29
 399 445 399 445 422.5 412.5 c 128,-1,30
 446 380 446 380 458 335 c 128,-1,31
 470 290 470 290 470 235 c 0,13,14
EndSplineSet
Substitution2: "'case' Case-Sensitive Forms lookup 18 subtable" B
EndChar

StartChar: c
Encoding: 99 99 70
Width: 500
Flags: W
LayerCount: 2
Fore
SplineSet
44 235 m 0,0,1
 44 286 44 286 60 331 c 128,-1,2
 76 376 76 376 109 409.5 c 128,-1,3
 142 443 142 443 192.5 462.5 c 128,-1,4
 243 482 243 482 313 482 c 0,5,6
 355 482 355 482 389 476 c 128,-1,7
 423 470 423 470 458 456 c 1,8,-1
 431 357 l 1,9,10
 411 364 411 364 386.5 369.5 c 128,-1,11
 362 375 362 375 324 375 c 0,12,13
 280 375 280 375 250.5 364.5 c 128,-1,14
 221 354 221 354 203 335.5 c 128,-1,15
 185 317 185 317 177 291 c 128,-1,16
 169 265 169 265 169 235 c 0,17,18
 169 170 169 170 205.5 133 c 128,-1,19
 242 96 242 96 330 96 c 0,20,21
 359 96 359 96 390.5 100 c 128,-1,22
 422 104 422 104 448 113 c 1,23,-1
 466 12 l 1,24,25
 440 2 440 2 403 -4.5 c 128,-1,26
 366 -11 366 -11 316 -11 c 0,27,28
 244 -11 244 -11 192.5 8 c 128,-1,29
 141 27 141 27 108 60 c 128,-1,30
 75 93 75 93 59.5 138 c 128,-1,31
 44 183 44 183 44 235 c 0,0,1
EndSplineSet
Substitution2: "'case' Case-Sensitive Forms lookup 18 subtable" C
EndChar

StartChar: d
Encoding: 100 100 71
Width: 500
Flags: W
LayerCount: 2
Fore
SplineSet
153 238 m 0,0,1
 153 175 153 175 176.5 135 c 128,-1,2
 200 95 200 95 252 95 c 0,3,4
 267 95 267 95 280 96 c 128,-1,5
 293 97 293 97 307 99 c 1,6,-1
 307 355 l 1,7,8
 293 363 293 363 275 368.5 c 128,-1,9
 257 374 257 374 237 374 c 0,10,11
 193 374 193 374 173 339 c 128,-1,12
 153 304 153 304 153 238 c 0,0,1
430 14 m 1,13,14
 396 3 396 3 347 -4 c 128,-1,15
 298 -11 298 -11 251 -11 c 0,16,17
 141 -11 141 -11 84.5 54 c 128,-1,18
 28 119 28 119 28 232 c 0,19,20
 28 347 28 347 75.5 413.5 c 128,-1,21
 123 480 123 480 216 480 c 0,22,23
 241 480 241 480 265 474.5 c 128,-1,24
 289 469 289 469 307 459 c 1,25,-1
 307 673 l 1,26,-1
 430 694 l 1,27,-1
 430 14 l 1,13,14
EndSplineSet
Substitution2: "'case' Case-Sensitive Forms lookup 18 subtable" D
EndChar

StartChar: e
Encoding: 101 101 72
Width: 500
Flags: W
LayerCount: 2
Fore
SplineSet
31 231 m 0,0,1
 31 293 31 293 50 340 c 128,-1,2
 69 387 69 387 100 418.5 c 128,-1,3
 131 450 131 450 171 466 c 128,-1,4
 211 482 211 482 253 482 c 0,5,6
 357 482 357 482 411 420.5 c 128,-1,7
 465 359 465 359 465 241 c 0,8,9
 465 229 465 229 464.5 216 c 128,-1,10
 464 203 464 203 463 195 c 1,11,-1
 158 195 l 1,12,13
 158 149 158 149 196 122.5 c 128,-1,14
 234 96 234 96 294 96 c 0,15,16
 331 96 331 96 364.5 104 c 128,-1,17
 398 112 398 112 421 120 c 1,18,-1
 438 15 l 1,19,20
 406 4 406 4 370 -3.5 c 128,-1,21
 334 -11 334 -11 289 -11 c 0,22,23
 229 -11 229 -11 181.5 4.5 c 128,-1,24
 134 20 134 20 100.5 50.5 c 128,-1,25
 67 81 67 81 49 126 c 128,-1,26
 31 171 31 171 31 231 c 0,0,1
346 280 m 1,27,28
 346 299 346 299 341 316.5 c 128,-1,29
 336 334 336 334 325 348 c 128,-1,30
 314 362 314 362 297 370.5 c 128,-1,31
 280 379 280 379 255 379 c 0,32,33
 231 379 231 379 213.5 371 c 128,-1,34
 196 363 196 363 184.5 349 c 128,-1,35
 173 335 173 335 166.5 317 c 128,-1,36
 160 299 160 299 158 280 c 1,37,-1
 346 280 l 1,27,28
EndSplineSet
Substitution2: "'case' Case-Sensitive Forms lookup 18 subtable" E
EndChar

StartChar: f
Encoding: 102 102 73
Width: 500
Flags: W
LayerCount: 2
Fore
SplineSet
139 0 m 1,0,-1
 139 368 l 1,1,-1
 36 368 l 1,2,-1
 36 470 l 1,3,-1
 139 470 l 1,4,-1
 139 497 l 2,5,6
 139 554 139 554 155.5 591.5 c 128,-1,7
 172 629 172 629 200 651.5 c 128,-1,8
 228 674 228 674 264 683.5 c 128,-1,9
 300 693 300 693 338 693 c 0,10,11
 377 693 377 693 418 686 c 128,-1,12
 459 679 459 679 492 663 c 1,13,-1
 471 563 l 1,14,15
 448 571 448 571 413.5 579.5 c 128,-1,16
 379 588 379 588 348 588 c 0,17,18
 331 588 331 588 315.5 585 c 128,-1,19
 300 582 300 582 288.5 572 c 128,-1,20
 277 562 277 562 270 543.5 c 128,-1,21
 263 525 263 525 263 495 c 2,22,-1
 263 470 l 1,23,-1
 456 470 l 1,24,-1
 456 368 l 1,25,-1
 263 368 l 1,26,-1
 263 0 l 1,27,-1
 139 0 l 1,0,-1
EndSplineSet
Substitution2: "'case' Case-Sensitive Forms lookup 18 subtable" F
EndChar

StartChar: g
Encoding: 103 103 74
Width: 500
Flags: W
LayerCount: 2
Fore
SplineSet
158 250 m 0,0,1
 158 192 158 192 179 161.5 c 128,-1,2
 200 131 200 131 245 131 c 0,3,4
 265 131 265 131 282.5 136 c 128,-1,5
 300 141 300 141 314 149 c 1,6,-1
 314 375 l 1,7,8
 300 378 300 378 289 379 c 128,-1,9
 278 380 278 380 266 380 c 0,10,11
 158 380 158 380 158 250 c 0,0,1
438 57 m 2,12,13
 438 -58 438 -58 382.5 -113 c 128,-1,14
 327 -168 327 -168 204 -168 c 0,15,16
 160 -168 160 -168 119.5 -159 c 128,-1,17
 79 -150 79 -150 42 -138 c 1,18,-1
 65 -34 l 1,19,20
 94 -45 94 -45 126 -54.5 c 128,-1,21
 158 -64 158 -64 206 -64 c 0,22,23
 238 -64 238 -64 259 -56.5 c 128,-1,24
 280 -49 280 -49 292 -36 c 128,-1,25
 304 -23 304 -23 309 -5.5 c 128,-1,26
 314 12 314 12 314 32 c 2,27,-1
 314 51 l 1,28,29
 288 41 288 41 266.5 36 c 128,-1,30
 245 31 245 31 220 31 c 0,31,32
 128 31 128 31 80.5 89 c 128,-1,33
 33 147 33 147 33 250 c 0,34,35
 33 366 33 366 97 423 c 128,-1,36
 161 480 161 480 271 480 c 0,37,38
 348 480 348 480 438 455 c 1,39,-1
 438 57 l 2,12,13
EndSplineSet
Substitution2: "'case' Case-Sensitive Forms lookup 18 subtable" G
EndChar

StartChar: h
Encoding: 104 104 75
Width: 500
Flags: W
LayerCount: 2
Fore
SplineSet
63 0 m 1,0,-1
 63 673 l 1,1,-1
 186 694 l 1,2,-1
 186 466 l 1,3,4
 201 471 201 471 222 475.5 c 128,-1,5
 243 480 243 480 259 480 c 0,6,7
 311 480 311 480 346 464.5 c 128,-1,8
 381 449 381 449 402 420.5 c 128,-1,9
 423 392 423 392 432 352.5 c 128,-1,10
 441 313 441 313 441 265 c 2,11,-1
 441 0 l 1,12,-1
 318 0 l 1,13,-1
 318 249 l 2,14,15
 318 315 318 315 303 344 c 128,-1,16
 288 373 288 373 246 373 c 0,17,18
 229 373 229 373 212.5 369 c 128,-1,19
 196 365 196 365 186 362 c 1,20,-1
 186 0 l 1,21,-1
 63 0 l 1,0,-1
EndSplineSet
Substitution2: "'case' Case-Sensitive Forms lookup 18 subtable" H
EndChar

StartChar: i
Encoding: 105 105 76
Width: 500
Flags: W
LayerCount: 2
Fore
SplineSet
284 605 m 0,0,1
 284 569 284 569 261 548 c 128,-1,2
 238 527 238 527 206 527 c 256,3,4
 174 527 174 527 151.5 548 c 128,-1,5
 129 569 129 569 129 605 c 0,6,7
 129 642 129 642 151.5 663 c 128,-1,8
 174 684 174 684 206 684 c 256,9,10
 238 684 238 684 261 663 c 128,-1,11
 284 642 284 642 284 605 c 0,0,1
467 20 m 1,12,13
 429 2 429 2 395.5 -4.5 c 128,-1,14
 362 -11 362 -11 334 -11 c 0,15,16
 286 -11 286 -11 253.5 3 c 128,-1,17
 221 17 221 17 201.5 43.5 c 128,-1,18
 182 70 182 70 174 108 c 128,-1,19
 166 146 166 146 166 195 c 2,20,-1
 166 368 l 1,21,-1
 36 368 l 1,22,-1
 36 470 l 1,23,-1
 289 470 l 1,24,-1
 289 179 l 2,25,26
 289 137 289 137 304.5 116.5 c 128,-1,27
 320 96 320 96 356 96 c 0,28,29
 373 96 373 96 397 100.5 c 128,-1,30
 421 105 421 105 451 119 c 1,31,-1
 467 20 l 1,12,13
EndSplineSet
Substitution2: "'case' Case-Sensitive Forms lookup 18 subtable" I
Substitution2: "'locl' Localized Forms in Latin lookup 2 subtable" i.locl
Substitution2: "'locl' Localized Forms in Latin lookup 1 subtable" i.locl
Substitution2: "'locl' Localized Forms in Latin lookup 0 subtable" i.locl
EndChar

StartChar: j
Encoding: 106 106 77
Width: 500
Flags: W
LayerCount: 2
Fore
SplineSet
400 31 m 2,0,1
 400 -26 400 -26 386 -64.5 c 128,-1,2
 372 -103 372 -103 347.5 -126.5 c 128,-1,3
 323 -150 323 -150 289.5 -160 c 128,-1,4
 256 -170 256 -170 217 -170 c 0,5,6
 169 -170 169 -170 128 -158 c 128,-1,7
 87 -146 87 -146 49 -127 c 1,8,-1
 87 -23 l 1,9,10
 112 -37 112 -37 147.5 -49.5 c 128,-1,11
 183 -62 183 -62 212 -62 c 0,12,13
 243 -62 243 -62 260 -43.5 c 128,-1,14
 277 -25 277 -25 277 25 c 2,15,-1
 277 368 l 1,16,-1
 87 368 l 1,17,-1
 87 470 l 1,18,-1
 400 470 l 1,19,-1
 400 31 l 2,0,1
385 605 m 0,20,21
 385 569 385 569 362 548 c 128,-1,22
 339 527 339 527 307 527 c 256,23,24
 275 527 275 527 252.5 548 c 128,-1,25
 230 569 230 569 230 605 c 0,26,27
 230 642 230 642 252.5 663 c 128,-1,28
 275 684 275 684 307 684 c 256,29,30
 339 684 339 684 362 663 c 128,-1,31
 385 642 385 642 385 605 c 0,20,21
EndSplineSet
Substitution2: "'case' Case-Sensitive Forms lookup 18 subtable" J
EndChar

StartChar: k
Encoding: 107 107 78
Width: 500
Flags: W
LayerCount: 2
Fore
SplineSet
187 284 m 1,0,1
 205 305 205 305 223.5 328.5 c 128,-1,2
 242 352 242 352 259.5 377 c 128,-1,3
 277 402 277 402 293 425.5 c 128,-1,4
 309 449 309 449 321 470 c 1,5,-1
 469 470 l 1,6,7
 451 447 451 447 428 420 c 128,-1,8
 405 393 405 393 380.5 365 c 128,-1,9
 356 337 356 337 331.5 311 c 128,-1,10
 307 285 307 285 287 263 c 1,11,12
 312 239 312 239 341 205.5 c 128,-1,13
 370 172 370 172 398 136 c 128,-1,14
 426 100 426 100 449.5 64 c 128,-1,15
 473 28 473 28 487 0 c 1,16,-1
 346 0 l 1,17,18
 334 25 334 25 314.5 56.5 c 128,-1,19
 295 88 295 88 273 118.5 c 128,-1,20
 251 149 251 149 228.5 176.5 c 128,-1,21
 206 204 206 204 187 222 c 1,22,-1
 187 0 l 1,23,-1
 63 0 l 1,24,-1
 63 673 l 1,25,-1
 187 694 l 1,26,-1
 187 284 l 1,0,1
EndSplineSet
Substitution2: "'case' Case-Sensitive Forms lookup 18 subtable" K
EndChar

StartChar: l
Encoding: 108 108 79
Width: 500
Flags: W
LayerCount: 2
Fore
SplineSet
467 20 m 2,0,1
 464 18 464 18 453.5 13 c 128,-1,2
 443 8 443 8 426 2.5 c 128,-1,3
 409 -3 409 -3 384.5 -7 c 128,-1,4
 360 -11 360 -11 329 -11 c 0,5,6
 244 -11 244 -11 205 39.5 c 128,-1,7
 166 90 166 90 166 187 c 2,8,-1
 166 586 l 1,9,-1
 36 586 l 1,10,-1
 36 688 l 1,11,-1
 289 688 l 1,12,-1
 289 178 l 2,13,14
 289 130 289 130 308 113 c 128,-1,15
 327 96 327 96 356 96 c 0,16,17
 393 96 393 96 418 106 c 128,-1,18
 443 116 443 116 451 119 c 1,19,-1
 467 20 l 2,0,1
EndSplineSet
Substitution2: "'case' Case-Sensitive Forms lookup 18 subtable" L
EndChar

StartChar: m
Encoding: 109 109 80
Width: 500
Flags: W
LayerCount: 2
Fore
SplineSet
343 475 m 0,0,1
 382 475 382 475 407 463 c 128,-1,2
 432 451 432 451 446.5 427 c 128,-1,3
 461 403 461 403 466 366.5 c 128,-1,4
 471 330 471 330 471 281 c 2,5,-1
 471 0 l 1,6,-1
 371 0 l 1,7,-1
 371 287 l 2,8,9
 371 315 371 315 367.5 332 c 128,-1,10
 364 349 364 349 358.5 358 c 128,-1,11
 353 367 353 367 345.5 370 c 128,-1,12
 338 373 338 373 330 373 c 0,13,14
 321 373 321 373 311 371.5 c 128,-1,15
 301 370 301 370 293 366 c 1,16,17
 296 347 296 347 298 324 c 128,-1,18
 300 301 300 301 300 273 c 2,19,-1
 300 179 l 1,20,-1
 200 179 l 1,21,-1
 200 287 l 2,22,23
 200 335 200 335 190.5 354 c 128,-1,24
 181 373 181 373 160 373 c 0,25,26
 154 373 154 373 145.5 372 c 128,-1,27
 137 371 137 371 129 369 c 1,28,-1
 129 0 l 1,29,-1
 29 0 l 1,30,-1
 29 452 l 1,31,32
 68 463 68 463 106 469 c 128,-1,33
 144 475 144 475 173 475 c 0,34,35
 199 475 199 475 219.5 468.5 c 128,-1,36
 240 462 240 462 255 447 c 1,37,38
 272 458 272 458 295 466.5 c 128,-1,39
 318 475 318 475 343 475 c 0,0,1
EndSplineSet
Substitution2: "'case' Case-Sensitive Forms lookup 18 subtable" M
EndChar

StartChar: n
Encoding: 110 110 81
Width: 500
Flags: W
LayerCount: 2
Fore
SplineSet
63 455 m 1,0,1
 96 464 96 464 144.5 472 c 128,-1,2
 193 480 193 480 250 480 c 0,3,4
 306 480 306 480 343 464.5 c 128,-1,5
 380 449 380 449 401.5 420.5 c 128,-1,6
 423 392 423 392 432 352.5 c 128,-1,7
 441 313 441 313 441 265 c 2,8,-1
 441 0 l 1,9,-1
 318 0 l 1,10,-1
 318 249 l 2,11,12
 318 315 318 315 303 344 c 128,-1,13
 288 373 288 373 242 373 c 0,14,15
 228 373 228 373 214.5 372 c 128,-1,16
 201 371 201 371 186 369 c 1,17,-1
 186 0 l 1,18,-1
 63 0 l 1,19,-1
 63 455 l 1,0,1
EndSplineSet
Substitution2: "'case' Case-Sensitive Forms lookup 18 subtable" N
EndChar

StartChar: o
Encoding: 111 111 82
Width: 500
Flags: W
LayerCount: 2
Fore
SplineSet
472 236 m 0,0,1
 472 180 472 180 456 134.5 c 128,-1,2
 440 89 440 89 411 56 c 128,-1,3
 382 23 382 23 341.5 5 c 128,-1,4
 301 -13 301 -13 251 -13 c 256,5,6
 201 -13 201 -13 160.5 5 c 128,-1,7
 120 23 120 23 90.5 56 c 128,-1,8
 61 89 61 89 45 134.5 c 128,-1,9
 29 180 29 180 29 236 c 0,10,11
 29 291 29 291 45.5 336.5 c 128,-1,12
 62 382 62 382 91.5 414.5 c 128,-1,13
 121 447 121 447 162 464.5 c 128,-1,14
 203 482 203 482 251 482 c 0,15,16
 300 482 300 482 340.5 464.5 c 128,-1,17
 381 447 381 447 410.5 414.5 c 128,-1,18
 440 382 440 382 456 336.5 c 128,-1,19
 472 291 472 291 472 236 c 0,0,1
154 235 m 256,20,21
 154 172 154 172 176.5 133 c 128,-1,22
 199 94 199 94 249 94 c 0,23,24
 297 94 297 94 321.5 133 c 128,-1,25
 346 172 346 172 346 235 c 256,26,27
 346 298 346 298 323.5 336.5 c 128,-1,28
 301 375 301 375 251 375 c 0,29,30
 203 375 203 375 178.5 336.5 c 128,-1,31
 154 298 154 298 154 235 c 256,20,21
EndSplineSet
Substitution2: "'case' Case-Sensitive Forms lookup 18 subtable" O
Substitution2: "'ordn' Ordinals in Latin lookup 7 subtable" ordmasculine
EndChar

StartChar: p
Encoding: 112 112 83
Width: 500
Flags: W
LayerCount: 2
Fore
SplineSet
344 231 m 0,0,1
 344 294 344 294 319 334.5 c 128,-1,2
 294 375 294 375 243 375 c 0,3,4
 229 375 229 375 213 373.5 c 128,-1,5
 197 372 197 372 186 371 c 1,6,-1
 186 113 l 1,7,8
 198 105 198 105 218 100 c 128,-1,9
 238 95 238 95 258 95 c 0,10,11
 302 95 302 95 323 130.5 c 128,-1,12
 344 166 344 166 344 231 c 0,0,1
469 235 m 0,13,14
 469 181 469 181 457 135.5 c 128,-1,15
 445 90 445 90 422 57.5 c 128,-1,16
 399 25 399 25 364 7 c 128,-1,17
 329 -11 329 -11 283 -11 c 0,18,19
 236 -11 236 -11 186 12 c 1,20,-1
 186 -165 l 1,21,-1
 63 -165 l 1,22,-1
 63 455 l 1,23,24
 97 466 97 466 146.5 473 c 128,-1,25
 196 480 196 480 244 480 c 0,26,27
 353 480 353 480 411 414 c 128,-1,28
 469 348 469 348 469 235 c 0,13,14
EndSplineSet
Substitution2: "'case' Case-Sensitive Forms lookup 18 subtable" P
EndChar

StartChar: q
Encoding: 113 113 84
Width: 500
Flags: W
LayerCount: 2
Fore
SplineSet
156 231 m 0,0,1
 156 166 156 166 177.5 130.5 c 128,-1,2
 199 95 199 95 243 95 c 0,3,4
 264 95 264 95 282.5 100 c 128,-1,5
 301 105 301 105 315 113 c 1,6,-1
 315 371 l 1,7,8
 306 372 306 372 290.5 373.5 c 128,-1,9
 275 375 275 375 258 375 c 0,10,11
 207 375 207 375 181.5 334.5 c 128,-1,12
 156 294 156 294 156 231 c 0,0,1
31 235 m 0,13,14
 31 289 31 289 46 334.5 c 128,-1,15
 61 380 61 380 89.5 412 c 128,-1,16
 118 444 118 444 160.5 462 c 128,-1,17
 203 480 203 480 257 480 c 0,18,19
 280 480 280 480 305.5 478 c 128,-1,20
 331 476 331 476 355 472.5 c 128,-1,21
 379 469 379 469 400.5 464.5 c 128,-1,22
 422 460 422 460 438 455 c 1,23,-1
 438 -165 l 1,24,-1
 315 -165 l 1,25,-1
 315 13 l 1,26,27
 292 2 292 2 266.5 -4.5 c 128,-1,28
 241 -11 241 -11 218 -11 c 0,29,30
 172 -11 172 -11 137 6.5 c 128,-1,31
 102 24 102 24 78.5 56 c 128,-1,32
 55 88 55 88 43 133.5 c 128,-1,33
 31 179 31 179 31 235 c 0,13,14
EndSplineSet
Substitution2: "'case' Case-Sensitive Forms lookup 18 subtable" Q
EndChar

StartChar: r
Encoding: 114 114 85
Width: 500
Flags: W
LayerCount: 2
Fore
SplineSet
437 345 m 1,0,1
 425 348 425 348 408.5 351 c 128,-1,2
 392 354 392 354 375 356.5 c 128,-1,3
 358 359 358 359 342 360 c 128,-1,4
 326 361 326 361 315 361 c 0,5,6
 289 361 289 361 264 358.5 c 128,-1,7
 239 356 239 356 213 349 c 1,8,-1
 213 0 l 1,9,-1
 89 0 l 1,10,-1
 89 439 l 1,11,12
 138 457 138 457 189.5 468 c 128,-1,13
 241 479 241 479 310 479 c 0,14,15
 320 479 320 479 338.5 478 c 128,-1,16
 357 477 357 477 378 474.5 c 128,-1,17
 399 472 399 472 420.5 468.5 c 128,-1,18
 442 465 442 465 459 459 c 1,19,-1
 437 345 l 1,0,1
EndSplineSet
Substitution2: "'case' Case-Sensitive Forms lookup 18 subtable" R
EndChar

StartChar: s
Encoding: 115 115 86
Width: 500
Flags: W
LayerCount: 2
Fore
SplineSet
228 93 m 0,0,1
 273 93 273 93 297 99.5 c 128,-1,2
 321 106 321 106 321 126 c 0,3,4
 321 139 321 139 313.5 148 c 128,-1,5
 306 157 306 157 292.5 163.5 c 128,-1,6
 279 170 279 170 261.5 176 c 128,-1,7
 244 182 244 182 225 188 c 0,8,9
 198 196 198 196 170 206.5 c 128,-1,10
 142 217 142 217 119 233 c 128,-1,11
 96 249 96 249 81 273.5 c 128,-1,12
 66 298 66 298 66 335 c 0,13,14
 66 365 66 365 77.5 391.5 c 128,-1,15
 89 418 89 418 113.5 438.5 c 128,-1,16
 138 459 138 459 176 470.5 c 128,-1,17
 214 482 214 482 267 482 c 0,18,19
 313 482 313 482 352.5 475 c 128,-1,20
 392 468 392 468 421 455 c 1,21,-1
 402 351 l 1,22,23
 385 356 385 356 349 367.5 c 128,-1,24
 313 379 313 379 268 379 c 0,25,26
 221 379 221 379 204.5 367.5 c 128,-1,27
 188 356 188 356 188 343 c 0,28,29
 188 332 188 332 195.5 323.5 c 128,-1,30
 203 315 203 315 215.5 308 c 128,-1,31
 228 301 228 301 244.5 294.5 c 128,-1,32
 261 288 261 288 280 282 c 0,33,34
 307 273 307 273 336 262 c 128,-1,35
 365 251 365 251 388.5 234.5 c 128,-1,36
 412 218 412 218 427 192.5 c 128,-1,37
 442 167 442 167 442 130 c 0,38,39
 442 101 442 101 431 75 c 128,-1,40
 420 49 420 49 394.5 30 c 128,-1,41
 369 11 369 11 328 0 c 128,-1,42
 287 -11 287 -11 227 -11 c 0,43,44
 166 -11 166 -11 123 3 c 128,-1,45
 80 17 80 17 54 28 c 1,46,-1
 73 131 l 1,47,48
 108 117 108 117 147.5 105 c 128,-1,49
 187 93 187 93 228 93 c 0,0,1
EndSplineSet
Substitution2: "'case' Case-Sensitive Forms lookup 18 subtable" S
EndChar

StartChar: t
Encoding: 116 116 87
Width: 500
Flags: W
LayerCount: 2
Fore
SplineSet
143 368 m 1,0,-1
 36 368 l 1,1,-1
 36 470 l 1,2,-1
 143 470 l 1,3,-1
 143 588 l 1,4,-1
 266 608 l 1,5,-1
 266 470 l 1,6,-1
 463 470 l 1,7,-1
 463 368 l 1,8,-1
 266 368 l 1,9,-1
 266 178 l 2,10,11
 266 152 266 152 271 136 c 128,-1,12
 276 120 276 120 285 111 c 128,-1,13
 294 102 294 102 307 99 c 128,-1,14
 320 96 320 96 336 96 c 0,15,16
 353 96 353 96 367.5 97 c 128,-1,17
 382 98 382 98 395.5 100.5 c 128,-1,18
 409 103 409 103 423.5 108 c 128,-1,19
 438 113 438 113 455 121 c 1,20,-1
 472 15 l 1,21,22
 438 1 438 1 398.5 -5 c 128,-1,23
 359 -11 359 -11 322 -11 c 0,24,25
 279 -11 279 -11 246 -4 c 128,-1,26
 213 3 213 3 190 23 c 128,-1,27
 167 43 167 43 155 79.5 c 128,-1,28
 143 116 143 116 143 175 c 2,29,-1
 143 368 l 1,0,-1
EndSplineSet
Substitution2: "'case' Case-Sensitive Forms lookup 18 subtable" T
EndChar

StartChar: u
Encoding: 117 117 88
Width: 500
Flags: W
LayerCount: 2
Fore
SplineSet
438 16 m 1,0,1
 404 7 404 7 355.5 -2 c 128,-1,2
 307 -11 307 -11 250 -11 c 0,3,4
 192 -11 192 -11 155 5 c 128,-1,5
 118 21 118 21 96.5 50.5 c 128,-1,6
 75 80 75 80 67 120 c 128,-1,7
 59 160 59 160 59 208 c 2,8,-1
 59 470 l 1,9,-1
 182 470 l 1,10,-1
 182 224 l 2,11,12
 182 159 182 159 197.5 127.5 c 128,-1,13
 213 96 213 96 258 96 c 0,14,15
 286 96 286 96 314 101 c 1,16,-1
 314 470 l 1,17,-1
 438 470 l 1,18,-1
 438 16 l 1,0,1
EndSplineSet
Substitution2: "'case' Case-Sensitive Forms lookup 18 subtable" U
EndChar

StartChar: v
Encoding: 118 118 89
Width: 500
Flags: W
LayerCount: 2
Fore
SplineSet
194 0 m 1,0,1
 149 89 149 89 102.5 208.5 c 128,-1,2
 56 328 56 328 14 470 c 1,3,-1
 143 470 l 1,4,5
 152 432 152 432 164.5 389 c 128,-1,6
 177 346 177 346 191 302.5 c 128,-1,7
 205 259 205 259 219.5 218 c 128,-1,8
 234 177 234 177 247 143 c 1,9,10
 260 177 260 177 276 218 c 128,-1,11
 292 259 292 259 307.5 302.5 c 128,-1,12
 323 346 323 346 337.5 389 c 128,-1,13
 352 432 352 432 361 470 c 1,14,-1
 486 470 l 1,15,16
 444 328 444 328 393 208.5 c 128,-1,17
 342 89 342 89 297 0 c 1,18,-1
 194 0 l 1,0,1
EndSplineSet
Substitution2: "'case' Case-Sensitive Forms lookup 18 subtable" V
EndChar

StartChar: w
Encoding: 119 119 90
Width: 500
Flags: W
LayerCount: 2
Fore
SplineSet
322 0 m 1,0,1
 311 31 311 31 301.5 57 c 128,-1,2
 292 83 292 83 283.5 107.5 c 128,-1,3
 275 132 275 132 266.5 158.5 c 128,-1,4
 258 185 258 185 249 217 c 1,5,6
 239 185 239 185 231 159.5 c 128,-1,7
 223 134 223 134 214.5 109 c 128,-1,8
 206 84 206 84 197 58 c 128,-1,9
 188 32 188 32 175 0 c 1,10,-1
 82 0 l 1,11,12
 70 44 70 44 59.5 97.5 c 128,-1,13
 49 151 49 151 40 211.5 c 128,-1,14
 31 272 31 272 24 337 c 128,-1,15
 17 402 17 402 11 470 c 1,16,-1
 116 470 l 1,17,18
 120 383 120 383 124.5 300 c 128,-1,19
 129 217 129 217 141 129 c 1,20,21
 154 167 154 167 163.5 199.5 c 128,-1,22
 173 232 173 232 180.5 261.5 c 128,-1,23
 188 291 188 291 194.5 318.5 c 128,-1,24
 201 346 201 346 208 375 c 1,25,-1
 297 375 l 1,26,27
 303 346 303 346 309.5 318.5 c 128,-1,28
 316 291 316 291 323.5 261.5 c 128,-1,29
 331 232 331 232 339.5 199.5 c 128,-1,30
 348 167 348 167 360 129 c 1,31,32
 366 175 366 175 370 217 c 128,-1,33
 374 259 374 259 376.5 300.5 c 128,-1,34
 379 342 379 342 380.5 383.5 c 128,-1,35
 382 425 382 425 384 470 c 1,36,-1
 489 470 l 1,37,38
 478 333 478 333 458.5 212 c 128,-1,39
 439 91 439 91 415 0 c 1,40,-1
 322 0 l 1,0,1
EndSplineSet
Substitution2: "'case' Case-Sensitive Forms lookup 18 subtable" W
EndChar

StartChar: x
Encoding: 120 120 91
Width: 500
Flags: W
LayerCount: 2
Fore
SplineSet
254 323 m 1,0,-1
 350 470 l 1,1,-1
 475 470 l 1,2,-1
 323 244 l 1,3,4
 347 215 347 215 370 182.5 c 128,-1,5
 393 150 393 150 414 117 c 128,-1,6
 435 84 435 84 452 54 c 128,-1,7
 469 24 469 24 481 0 c 1,8,-1
 353 0 l 1,9,10
 326 51 326 51 299 91 c 128,-1,11
 272 131 272 131 248 163 c 1,12,13
 218 123 218 123 194 85 c 128,-1,14
 170 47 170 47 145 0 c 1,15,-1
 20 0 l 1,16,17
 35 28 35 28 54.5 58.5 c 128,-1,18
 74 89 74 89 95.5 120.5 c 128,-1,19
 117 152 117 152 140.5 183 c 128,-1,20
 164 214 164 214 186 242 c 1,21,-1
 21 470 l 1,22,-1
 150 470 l 1,23,-1
 254 323 l 1,0,-1
EndSplineSet
Substitution2: "'case' Case-Sensitive Forms lookup 18 subtable" X
EndChar

StartChar: y
Encoding: 121 121 92
Width: 500
Flags: W
LayerCount: 2
Fore
SplineSet
472 470 m 1,0,1
 453 404 453 404 435.5 340.5 c 128,-1,2
 418 277 418 277 399 216.5 c 128,-1,3
 380 156 380 156 358.5 98 c 128,-1,4
 337 40 337 40 312 -15 c 0,5,6
 293 -55 293 -55 274.5 -84 c 128,-1,7
 256 -113 256 -113 233.5 -131.5 c 128,-1,8
 211 -150 211 -150 183.5 -159 c 128,-1,9
 156 -168 156 -168 119 -168 c 0,10,11
 88 -168 88 -168 62.5 -163 c 128,-1,12
 37 -158 37 -158 20 -150 c 1,13,-1
 43 -47 l 1,14,15
 63 -56 63 -56 78.5 -59.5 c 128,-1,16
 94 -63 94 -63 112 -63 c 0,17,18
 148 -63 148 -63 170 -39 c 128,-1,19
 192 -15 192 -15 205 18 c 1,20,21
 161 106 161 106 117 219.5 c 128,-1,22
 73 333 73 333 37 470 c 1,23,-1
 165 470 l 1,24,25
 174 433 174 433 185.5 391 c 128,-1,26
 197 349 197 349 210 307 c 128,-1,27
 223 265 223 265 237.5 224.5 c 128,-1,28
 252 184 252 184 267 149 c 1,29,30
 277 184 277 184 288 224.5 c 128,-1,31
 299 265 299 265 309 306.5 c 128,-1,32
 319 348 319 348 328.5 390 c 128,-1,33
 338 432 338 432 346 470 c 1,34,-1
 472 470 l 1,0,1
EndSplineSet
Substitution2: "'case' Case-Sensitive Forms lookup 18 subtable" Y
EndChar

StartChar: z
Encoding: 122 122 93
Width: 500
Flags: W
LayerCount: 2
Fore
SplineSet
426 380 m 1,0,1
 412 364 412 364 386 332.5 c 128,-1,2
 360 301 360 301 329.5 262 c 128,-1,3
 299 223 299 223 268.5 180.5 c 128,-1,4
 238 138 238 138 214 102 c 1,5,-1
 436 102 l 1,6,-1
 436 0 l 1,7,-1
 67 0 l 1,8,-1
 67 75 l 1,9,10
 90 113 90 113 117 153 c 128,-1,11
 144 193 144 193 171 231.5 c 128,-1,12
 198 270 198 270 224 305 c 128,-1,13
 250 340 250 340 271 368 c 1,14,-1
 77 368 l 1,15,-1
 77 470 l 1,16,-1
 426 470 l 1,17,-1
 426 380 l 1,0,1
EndSplineSet
Substitution2: "'case' Case-Sensitive Forms lookup 18 subtable" Z
EndChar

StartChar: braceleft
Encoding: 123 123 94
Width: 500
Flags: W
LayerCount: 2
Fore
SplineSet
187 266 m 1,0,1
 241 256 241 256 264.5 222 c 128,-1,2
 288 188 288 188 288 124 c 2,3,-1
 288 11 l 2,4,5
 288 -31 288 -31 300 -50 c 128,-1,6
 312 -69 312 -69 344 -69 c 2,7,-1
 437 -69 l 1,8,-1
 437 -165 l 1,9,-1
 333 -165 l 2,10,11
 243 -165 243 -165 208.5 -126 c 128,-1,12
 174 -87 174 -87 174 -13 c 2,13,-1
 174 134 l 2,14,15
 174 176 174 176 161 197.5 c 128,-1,16
 148 219 148 219 117 219 c 2,17,-1
 63 219 l 1,18,-1
 63 315 l 1,19,-1
 117 315 l 2,20,21
 148 315 148 315 161 336.5 c 128,-1,22
 174 358 174 358 174 399 c 2,23,-1
 174 547 l 2,24,25
 174 621 174 621 208.5 660 c 128,-1,26
 243 699 243 699 333 699 c 2,27,-1
 437 699 l 1,28,-1
 437 603 l 1,29,-1
 344 603 l 2,30,31
 312 603 312 603 300 584.5 c 128,-1,32
 288 566 288 566 288 523 c 2,33,-1
 288 410 l 2,34,35
 288 346 288 346 264.5 312 c 128,-1,36
 241 278 241 278 187 266 c 1,0,1
EndSplineSet
Substitution2: "'case' Case-Sensitive Forms lookup 17 subtable" Braceleft
EndChar

StartChar: bar
Encoding: 124 124 95
Width: 500
Flags: W
LayerCount: 2
Fore
SplineSet
189 699 m 1,0,-1
 313 699 l 1,1,-1
 313 -165 l 1,2,-1
 189 -165 l 1,3,-1
 189 699 l 1,0,-1
EndSplineSet
EndChar

StartChar: braceright
Encoding: 125 125 96
Width: 500
Flags: W
LayerCount: 2
Fore
SplineSet
313 268 m 1,0,1
 259 278 259 278 235 312 c 128,-1,2
 211 346 211 346 211 410 c 2,3,-1
 211 523 l 2,4,5
 211 565 211 565 199 584 c 128,-1,6
 187 603 187 603 155 603 c 2,7,-1
 63 603 l 1,8,-1
 63 699 l 1,9,-1
 166 699 l 2,10,11
 211 699 211 699 241.5 689 c 128,-1,12
 272 679 272 679 290.5 660 c 128,-1,13
 309 641 309 641 317 612.5 c 128,-1,14
 325 584 325 584 325 547 c 2,15,-1
 325 400 l 2,16,17
 325 358 325 358 338 336.5 c 128,-1,18
 351 315 351 315 382 315 c 2,19,-1
 437 315 l 1,20,-1
 437 219 l 1,21,-1
 382 219 l 2,22,23
 351 219 351 219 338 197.5 c 128,-1,24
 325 176 325 176 325 135 c 2,25,-1
 325 -13 l 2,26,27
 325 -50 325 -50 317 -78.5 c 128,-1,28
 309 -107 309 -107 290.5 -126 c 128,-1,29
 272 -145 272 -145 241.5 -155 c 128,-1,30
 211 -165 211 -165 166 -165 c 2,31,-1
 63 -165 l 1,32,-1
 63 -69 l 1,33,-1
 155 -69 l 2,34,35
 187 -69 187 -69 199 -50.5 c 128,-1,36
 211 -32 211 -32 211 11 c 2,37,-1
 211 124 l 2,38,39
 211 188 211 188 235 222 c 128,-1,40
 259 256 259 256 313 268 c 1,0,1
EndSplineSet
Substitution2: "'case' Case-Sensitive Forms lookup 17 subtable" Braceright
EndChar

StartChar: asciitilde
Encoding: 126 126 97
Width: 500
Flags: W
LayerCount: 2
Fore
SplineSet
345 171 m 0,0,1
 318 171 318 171 294.5 181.5 c 128,-1,2
 271 192 271 192 249 205 c 128,-1,3
 227 218 227 218 206.5 228.5 c 128,-1,4
 186 239 186 239 167 239 c 0,5,6
 159 239 159 239 151.5 237 c 128,-1,7
 144 235 144 235 137 228.5 c 128,-1,8
 130 222 130 222 124 209 c 128,-1,9
 118 196 118 196 112 174 c 1,10,-1
 21 199 l 1,11,12
 25 224 25 224 35 251.5 c 128,-1,13
 45 279 45 279 61.5 302 c 128,-1,14
 78 325 78 325 103 340.5 c 128,-1,15
 128 356 128 356 163 356 c 0,16,17
 189 356 189 356 212.5 345.5 c 128,-1,18
 236 335 236 335 258 322 c 128,-1,19
 280 309 280 309 300 298.5 c 128,-1,20
 320 288 320 288 340 288 c 0,21,22
 348 288 348 288 355.5 290 c 128,-1,23
 363 292 363 292 370 299 c 128,-1,24
 377 306 377 306 383.5 319 c 128,-1,25
 390 332 390 332 396 354 c 1,26,-1
 487 329 l 1,27,28
 482 304 482 304 472.5 276.5 c 128,-1,29
 463 249 463 249 446 225.5 c 128,-1,30
 429 202 429 202 404.5 186.5 c 128,-1,31
 380 171 380 171 345 171 c 0,0,1
EndSplineSet
EndChar

StartChar: Euro
Encoding: 8364 8364 98
Width: 500
Flags: W
LayerCount: 2
Fore
SplineSet
100 427 m 1,0,1
 123 530 123 530 185 580.5 c 128,-1,2
 247 631 247 631 336 631 c 0,3,4
 365 631 365 631 397 627 c 128,-1,5
 429 623 429 623 463 609 c 1,6,-1
 436 507 l 1,7,8
 418 515 418 515 394.5 519.5 c 128,-1,9
 371 524 371 524 342 524 c 0,10,11
 291 524 291 524 265 498 c 128,-1,12
 239 472 239 472 228 427 c 1,13,-1
 410 427 l 1,14,-1
 393 343 l 1,15,-1
 216 343 l 1,16,17
 215 335 215 335 214.5 327.5 c 128,-1,18
 214 320 214 320 214 312 c 256,19,20
 214 304 214 304 214.5 296 c 128,-1,21
 215 288 215 288 216 280 c 1,22,-1
 382 280 l 1,23,-1
 365 196 l 1,24,-1
 228 196 l 1,25,26
 240 143 240 143 270 119.5 c 128,-1,27
 300 96 300 96 337 96 c 0,28,29
 363 96 363 96 394 101 c 128,-1,30
 425 106 425 106 452 119 c 1,31,-1
 478 20 l 1,32,33
 447 5 447 5 409.5 -3.5 c 128,-1,34
 372 -12 372 -12 334 -12 c 0,35,36
 292 -12 292 -12 253 -0.5 c 128,-1,37
 214 11 214 11 182.5 35.5 c 128,-1,38
 151 60 151 60 128.5 99.5 c 128,-1,39
 106 139 106 139 96 196 c 1,40,-1
 31 196 l 1,41,-1
 31 280 l 1,42,-1
 88 280 l 1,43,-1
 88 343 l 1,44,-1
 31 343 l 1,45,-1
 31 427 l 1,46,-1
 100 427 l 1,0,1
EndSplineSet
EndChar

StartChar: quotesinglbase
Encoding: 8218 8218 99
Width: 500
Flags: W
LayerCount: 2
Fore
SplineSet
126 -73 m 1,0,1
 144 -69 144 -69 162.5 -66 c 128,-1,2
 181 -63 181 -63 197.5 -57 c 128,-1,3
 214 -51 214 -51 227 -40 c 128,-1,4
 240 -29 240 -29 248 -10 c 1,5,6
 210 -6 210 -6 189 20 c 128,-1,7
 168 46 168 46 168 78 c 0,8,9
 168 117 168 117 193.5 142 c 128,-1,10
 219 167 219 167 258 167 c 0,11,12
 300 167 300 167 323.5 139 c 128,-1,13
 347 111 347 111 347 63 c 0,14,15
 347 28 347 28 336 -7 c 128,-1,16
 325 -42 325 -42 300.5 -72 c 128,-1,17
 276 -102 276 -102 237 -124 c 128,-1,18
 198 -146 198 -146 142 -153 c 1,19,-1
 126 -73 l 1,0,1
EndSplineSet
EndChar

StartChar: florin
Encoding: 402 402 100
Width: 500
Flags: W
LayerCount: 2
Fore
SplineSet
263 31 m 2,0,1
 263 -26 263 -26 249 -64.5 c 128,-1,2
 235 -103 235 -103 210 -126.5 c 128,-1,3
 185 -150 185 -150 151.5 -160 c 128,-1,4
 118 -170 118 -170 79 -170 c 0,5,6
 50 -170 50 -170 33 -166 c 128,-1,7
 16 -162 16 -162 -1 -157 c 1,8,-1
 27 -55 l 1,9,10
 35 -57 35 -57 44.5 -59.5 c 128,-1,11
 54 -62 54 -62 74 -62 c 0,12,13
 105 -62 105 -62 122 -43.5 c 128,-1,14
 139 -25 139 -25 139 25 c 2,15,-1
 139 368 l 1,16,-1
 36 368 l 1,17,-1
 36 470 l 1,18,-1
 139 470 l 1,19,-1
 139 497 l 2,20,21
 139 554 139 554 155.5 591.5 c 128,-1,22
 172 629 172 629 200 651.5 c 128,-1,23
 228 674 228 674 264 683.5 c 128,-1,24
 300 693 300 693 338 693 c 0,25,26
 377 693 377 693 418 686 c 128,-1,27
 459 679 459 679 492 663 c 1,28,-1
 471 563 l 1,29,30
 448 571 448 571 413.5 579.5 c 128,-1,31
 379 588 379 588 348 588 c 0,32,33
 331 588 331 588 315.5 585 c 128,-1,34
 300 582 300 582 288.5 572 c 128,-1,35
 277 562 277 562 270 543.5 c 128,-1,36
 263 525 263 525 263 495 c 2,37,-1
 263 470 l 1,38,-1
 456 470 l 1,39,-1
 456 368 l 1,40,-1
 263 368 l 1,41,-1
 263 31 l 2,0,1
EndSplineSet
EndChar

StartChar: quotedblbase
Encoding: 8222 8222 101
Width: 500
Flags: W
LayerCount: 2
Fore
SplineSet
12 -77 m 1,0,1
 31 -73 31 -73 49.5 -69 c 128,-1,2
 68 -65 68 -65 83.5 -58.5 c 128,-1,3
 99 -52 99 -52 111.5 -40.5 c 128,-1,4
 124 -29 124 -29 131 -11 c 1,5,6
 98 -8 98 -8 81.5 13.5 c 128,-1,7
 65 35 65 35 65 61 c 0,8,9
 65 96 65 96 88 113.5 c 128,-1,10
 111 131 111 131 138 131 c 0,11,12
 177 131 177 131 196 105.5 c 128,-1,13
 215 80 215 80 215 44 c 0,14,15
 215 15 215 15 203 -17 c 128,-1,16
 191 -49 191 -49 168 -76 c 128,-1,17
 145 -103 145 -103 110 -122 c 128,-1,18
 75 -141 75 -141 29 -144 c 1,19,-1
 12 -77 l 1,0,1
247 -77 m 1,20,21
 266 -73 266 -73 284.5 -69 c 128,-1,22
 303 -65 303 -65 319 -58.5 c 128,-1,23
 335 -52 335 -52 347.5 -40.5 c 128,-1,24
 360 -29 360 -29 367 -11 c 1,25,26
 333 -8 333 -8 317 13.5 c 128,-1,27
 301 35 301 35 301 61 c 0,28,29
 301 96 301 96 324 113.5 c 128,-1,30
 347 131 347 131 374 131 c 0,31,32
 413 131 413 131 432 105.5 c 128,-1,33
 451 80 451 80 451 44 c 0,34,35
 451 15 451 15 439 -17 c 128,-1,36
 427 -49 427 -49 404 -76 c 128,-1,37
 381 -103 381 -103 346 -122 c 128,-1,38
 311 -141 311 -141 265 -144 c 1,39,-1
 247 -77 l 1,20,21
EndSplineSet
EndChar

StartChar: ellipsis
Encoding: 8230 8230 102
Width: 500
Flags: W
LayerCount: 2
Fore
SplineSet
417 -12 m 0,0,1
 389 -12 389 -12 374 8.5 c 128,-1,2
 359 29 359 29 359 54 c 256,3,4
 359 79 359 79 374 99 c 128,-1,5
 389 119 389 119 417 119 c 256,6,7
 445 119 445 119 460 98.5 c 128,-1,8
 475 78 475 78 475 54 c 0,9,10
 475 29 475 29 460.5 8.5 c 128,-1,11
 446 -12 446 -12 417 -12 c 0,0,1
252 -12 m 0,12,13
 223 -12 223 -12 208.5 8.5 c 128,-1,14
 194 29 194 29 194 54 c 256,15,16
 194 79 194 79 208.5 99 c 128,-1,17
 223 119 223 119 252 119 c 0,18,19
 279 119 279 119 294.5 98.5 c 128,-1,20
 310 78 310 78 310 54 c 0,21,22
 310 29 310 29 295 8.5 c 128,-1,23
 280 -12 280 -12 252 -12 c 0,12,13
86 -12 m 0,24,25
 57 -12 57 -12 42.5 8.5 c 128,-1,26
 28 29 28 29 28 54 c 256,27,28
 28 79 28 79 42.5 99 c 128,-1,29
 57 119 57 119 86 119 c 0,30,31
 113 119 113 119 128.5 98.5 c 128,-1,32
 144 78 144 78 144 54 c 0,33,34
 144 29 144 29 129 8.5 c 128,-1,35
 114 -12 114 -12 86 -12 c 0,24,25
EndSplineSet
EndChar

StartChar: dagger
Encoding: 8224 8224 103
Width: 500
Flags: W
LayerCount: 2
Fore
SplineSet
305 336 m 1,0,-1
 305 132 l 2,1,2
 305 60 305 60 301 -1.5 c 128,-1,3
 297 -63 297 -63 288 -129 c 1,4,-1
 213 -129 l 1,5,6
 205 -64 205 -64 200.5 -2 c 128,-1,7
 196 60 196 60 196 132 c 2,8,-1
 196 336 l 1,9,-1
 62 336 l 1,10,-1
 62 438 l 1,11,-1
 196 438 l 1,12,-1
 196 619 l 1,13,-1
 305 619 l 1,14,-1
 305 438 l 1,15,-1
 440 438 l 1,16,-1
 440 336 l 1,17,-1
 305 336 l 1,0,-1
EndSplineSet
EndChar

StartChar: daggerdbl
Encoding: 8225 8225 104
Width: 500
Flags: W
LayerCount: 2
Fore
SplineSet
302 98 m 1,0,1
 300 37 300 37 296 -17 c 128,-1,2
 292 -71 292 -71 284 -129 c 1,3,-1
 210 -129 l 1,4,5
 202 -72 202 -72 197.5 -17.5 c 128,-1,6
 193 37 193 37 192 98 c 1,7,-1
 58 98 l 1,8,-1
 58 201 l 1,9,-1
 192 201 l 1,10,-1
 192 336 l 1,11,-1
 58 336 l 1,12,-1
 58 438 l 1,13,-1
 192 438 l 1,14,-1
 192 619 l 1,15,-1
 302 619 l 1,16,-1
 302 438 l 1,17,-1
 437 438 l 1,18,-1
 437 336 l 1,19,-1
 302 336 l 1,20,-1
 302 201 l 1,21,-1
 437 201 l 1,22,-1
 437 98 l 1,23,-1
 302 98 l 1,0,1
EndSplineSet
EndChar

StartChar: circumflex
Encoding: 710 710 105
Width: 500
Flags: W
LayerCount: 2
Fore
SplineSet
390 569 m 1,0,-1
 341 510 l 1,1,-1
 252 579 l 1,2,-1
 163 510 l 1,3,-1
 112 569 l 1,4,-1
 252 691 l 1,5,-1
 390 569 l 1,0,-1
EndSplineSet
EndChar

StartChar: perthousand
Encoding: 8240 8240 106
Width: 500
Flags: W
LayerCount: 2
Fore
SplineSet
79 124 m 256,0,1
 79 191 79 191 103 226.5 c 128,-1,2
 127 262 127 262 173 262 c 0,3,4
 221 262 221 262 245 226.5 c 128,-1,5
 269 191 269 191 269 124 c 256,6,7
 269 57 269 57 245 22 c 128,-1,8
 221 -13 221 -13 173 -13 c 0,9,10
 127 -13 127 -13 103 22 c 128,-1,11
 79 57 79 57 79 124 c 256,0,1
202 124 m 256,12,13
 202 160 202 160 195 176 c 128,-1,14
 188 192 188 192 173 192 c 0,15,16
 159 192 159 192 152.5 176 c 128,-1,17
 146 160 146 160 146 124 c 256,18,19
 146 88 146 88 152.5 72 c 128,-1,20
 159 56 159 56 173 56 c 0,21,22
 188 56 188 56 195 72 c 128,-1,23
 202 88 202 88 202 124 c 256,12,13
297 124 m 256,24,25
 297 191 297 191 321 226.5 c 128,-1,26
 345 262 345 262 392 262 c 0,27,28
 440 262 440 262 464 226.5 c 128,-1,29
 488 191 488 191 488 124 c 256,30,31
 488 57 488 57 464 22 c 128,-1,32
 440 -13 440 -13 392 -13 c 0,33,34
 345 -13 345 -13 321 22 c 128,-1,35
 297 57 297 57 297 124 c 256,24,25
34 232 m 1,36,-1
 9 276 l 1,37,-1
 466 505 l 1,38,-1
 491 460 l 1,39,-1
 34 232 l 1,36,-1
421 124 m 256,40,41
 421 160 421 160 414 176 c 128,-1,42
 407 192 407 192 392 192 c 256,43,44
 377 192 377 192 370.5 176 c 128,-1,45
 364 160 364 160 364 124 c 256,46,47
 364 88 364 88 370.5 72 c 128,-1,48
 377 56 377 56 392 56 c 256,49,50
 407 56 407 56 414 72 c 128,-1,51
 421 88 421 88 421 124 c 256,40,41
13 496 m 0,52,53
 13 563 13 563 37 598 c 128,-1,54
 61 633 61 633 107 633 c 0,55,56
 155 633 155 633 179 598 c 128,-1,57
 203 563 203 563 203 496 c 0,58,59
 203 428 203 428 179 393 c 128,-1,60
 155 358 155 358 107 358 c 0,61,62
 61 358 61 358 37 393 c 128,-1,63
 13 428 13 428 13 496 c 0,52,53
136 496 m 0,64,65
 136 532 136 532 129 547.5 c 128,-1,66
 122 563 122 563 107 563 c 0,67,68
 93 563 93 563 86 547.5 c 128,-1,69
 79 532 79 532 79 496 c 0,70,71
 79 459 79 459 86 443.5 c 128,-1,72
 93 428 93 428 107 428 c 0,73,74
 122 428 122 428 129 443.5 c 128,-1,75
 136 459 136 459 136 496 c 0,64,65
EndSplineSet
EndChar

StartChar: guilsinglleft
Encoding: 8249 8249 108
Width: 500
Flags: W
LayerCount: 2
Fore
SplineSet
289 254 m 1,0,-1
 380 87 l 1,1,-1
 279 39 l 1,2,-1
 132 254 l 1,3,-1
 279 468 l 1,4,-1
 380 421 l 1,5,-1
 289 254 l 1,0,-1
EndSplineSet
Substitution2: "'case' Case-Sensitive Forms lookup 17 subtable" Guilsinglleft
EndChar

StartChar: OE
Encoding: 338 338 109
Width: 500
Flags: W
LayerCount: 2
Fore
SplineSet
275 0 m 2,0,1
 263 -3 263 -3 250.5 -4 c 128,-1,2
 238 -5 238 -5 224 -5 c 0,3,4
 123 -5 123 -5 70.5 69.5 c 128,-1,5
 18 144 18 144 18 310 c 0,6,7
 18 475 18 475 71.5 550 c 128,-1,8
 125 625 125 625 223 625 c 0,9,10
 238 625 238 625 252 623 c 128,-1,11
 266 621 266 621 280 619 c 2,12,-1
 478 619 l 1,13,-1
 478 517 l 1,14,-1
 367 517 l 1,15,-1
 367 379 l 1,16,-1
 455 379 l 1,17,-1
 455 277 l 1,18,-1
 367 277 l 1,19,-1
 367 102 l 1,20,-1
 491 102 l 1,21,-1
 491 0 l 1,22,-1
 275 0 l 2,0,1
223 102 m 0,23,24
 240 102 240 102 255 107 c 1,25,-1
 255 513 l 1,26,27
 240 518 240 518 223 518 c 0,28,29
 195 518 195 518 177.5 503.5 c 128,-1,30
 160 489 160 489 150.5 462 c 128,-1,31
 141 435 141 435 137.5 396.5 c 128,-1,32
 134 358 134 358 134 310 c 256,33,34
 134 262 134 262 137 223.5 c 128,-1,35
 140 185 140 185 150 158 c 128,-1,36
 160 131 160 131 177 116.5 c 128,-1,37
 194 102 194 102 223 102 c 0,23,24
EndSplineSet
EndChar

StartChar: quoteleft
Encoding: 8216 8216 110
Width: 500
Flags: W
LayerCount: 2
Fore
SplineSet
365 639 m 1,0,1
 347 636 347 636 329 632.5 c 128,-1,2
 311 629 311 629 294.5 623 c 128,-1,3
 278 617 278 617 264.5 606 c 128,-1,4
 251 595 251 595 243 576 c 1,5,6
 281 573 281 573 302 546.5 c 128,-1,7
 323 520 323 520 323 488 c 0,8,9
 323 449 323 449 297.5 424 c 128,-1,10
 272 399 272 399 233 399 c 0,11,12
 191 399 191 399 167.5 427 c 128,-1,13
 144 455 144 455 144 503 c 0,14,15
 144 537 144 537 155 572.5 c 128,-1,16
 166 608 166 608 190.5 638 c 128,-1,17
 215 668 215 668 254 690 c 128,-1,18
 293 712 293 712 349 719 c 1,19,-1
 365 639 l 1,0,1
EndSplineSet
EndChar

StartChar: quoteright
Encoding: 8217 8217 111
Width: 500
Flags: W
LayerCount: 2
Fore
SplineSet
144 495 m 1,0,1
 162 499 162 499 180.5 502 c 128,-1,2
 199 505 199 505 215.5 511 c 128,-1,3
 232 517 232 517 245 528 c 128,-1,4
 258 539 258 539 266 558 c 1,5,6
 228 562 228 562 207 588 c 128,-1,7
 186 614 186 614 186 646 c 0,8,9
 186 685 186 685 211.5 710 c 128,-1,10
 237 735 237 735 276 735 c 0,11,12
 318 735 318 735 341.5 707 c 128,-1,13
 365 679 365 679 365 631 c 0,14,15
 365 596 365 596 354 561 c 128,-1,16
 343 526 343 526 318.5 496 c 128,-1,17
 294 466 294 466 255 444 c 128,-1,18
 216 422 216 422 160 415 c 1,19,-1
 144 495 l 1,0,1
EndSplineSet
EndChar

StartChar: quotedblleft
Encoding: 8220 8220 112
Width: 500
Flags: W
LayerCount: 2
Fore
SplineSet
480 622 m 1,0,1
 461 618 461 618 443 614 c 128,-1,2
 425 610 425 610 409 603.5 c 128,-1,3
 393 597 393 597 380.5 585.5 c 128,-1,4
 368 574 368 574 361 555 c 1,5,6
 394 553 394 553 410.5 531.5 c 128,-1,7
 427 510 427 510 427 484 c 0,8,9
 427 449 427 449 404 431 c 128,-1,10
 381 413 381 413 354 413 c 0,11,12
 315 413 315 413 296 439 c 128,-1,13
 277 465 277 465 277 501 c 0,14,15
 277 530 277 530 289 562 c 128,-1,16
 301 594 301 594 324 621 c 128,-1,17
 347 648 347 648 382 667 c 128,-1,18
 417 686 417 686 463 689 c 1,19,-1
 480 622 l 1,0,1
245 622 m 1,20,21
 226 618 226 618 207.5 614 c 128,-1,22
 189 610 189 610 173 603.5 c 128,-1,23
 157 597 157 597 144.5 585.5 c 128,-1,24
 132 574 132 574 125 555 c 1,25,26
 159 553 159 553 175 531.5 c 128,-1,27
 191 510 191 510 191 484 c 0,28,29
 191 449 191 449 168 431 c 128,-1,30
 145 413 145 413 118 413 c 0,31,32
 79 413 79 413 60 439 c 128,-1,33
 41 465 41 465 41 501 c 0,34,35
 41 530 41 530 53 562 c 128,-1,36
 65 594 65 594 88 621 c 128,-1,37
 111 648 111 648 146 667 c 128,-1,38
 181 686 181 686 227 689 c 1,39,-1
 245 622 l 1,20,21
EndSplineSet
EndChar

StartChar: quotedblright
Encoding: 8221 8221 113
Width: 500
Flags: W
LayerCount: 2
Fore
SplineSet
29 513 m 1,0,1
 48 517 48 517 66.5 521 c 128,-1,2
 85 525 85 525 101 531.5 c 128,-1,3
 117 538 117 538 129.5 549.5 c 128,-1,4
 142 561 142 561 149 580 c 1,5,6
 115 582 115 582 99 603.5 c 128,-1,7
 83 625 83 625 83 651 c 0,8,9
 83 686 83 686 106 704 c 128,-1,10
 129 722 129 722 156 722 c 0,11,12
 195 722 195 722 214 696 c 128,-1,13
 233 670 233 670 233 634 c 0,14,15
 233 605 233 605 221 573 c 128,-1,16
 209 541 209 541 186 514 c 128,-1,17
 163 487 163 487 128 468.5 c 128,-1,18
 93 450 93 450 47 447 c 1,19,-1
 29 513 l 1,0,1
265 513 m 1,20,21
 284 517 284 517 302.5 521 c 128,-1,22
 321 525 321 525 337 531.5 c 128,-1,23
 353 538 353 538 365.5 549.5 c 128,-1,24
 378 561 378 561 385 580 c 1,25,26
 351 582 351 582 335 603.5 c 128,-1,27
 319 625 319 625 319 651 c 0,28,29
 319 686 319 686 341.5 704 c 128,-1,30
 364 722 364 722 392 722 c 0,31,32
 431 722 431 722 450 696 c 128,-1,33
 469 670 469 670 469 634 c 0,34,35
 469 605 469 605 457 573 c 128,-1,36
 445 541 445 541 421.5 514 c 128,-1,37
 398 487 398 487 363.5 468.5 c 128,-1,38
 329 450 329 450 283 447 c 1,39,-1
 265 513 l 1,20,21
EndSplineSet
EndChar

StartChar: bullet
Encoding: 8226 8226 114
Width: 500
Flags: W
LayerCount: 2
Fore
SplineSet
386 314 m 0,0,1
 386 285 386 285 376.5 259.5 c 128,-1,2
 367 234 367 234 349.5 214 c 128,-1,3
 332 194 332 194 306.5 182.5 c 128,-1,4
 281 171 281 171 250 171 c 0,5,6
 218 171 218 171 193 182.5 c 128,-1,7
 168 194 168 194 150.5 214 c 128,-1,8
 133 234 133 234 123.5 259.5 c 128,-1,9
 114 285 114 285 114 314 c 0,10,11
 114 342 114 342 123.5 368 c 128,-1,12
 133 394 133 394 150.5 414 c 128,-1,13
 168 434 168 434 193 445.5 c 128,-1,14
 218 457 218 457 250 457 c 0,15,16
 281 457 281 457 306.5 445.5 c 128,-1,17
 332 434 332 434 349.5 414 c 128,-1,18
 367 394 367 394 376.5 368 c 128,-1,19
 386 342 386 342 386 314 c 0,0,1
EndSplineSet
Substitution2: "'case' Case-Sensitive Forms lookup 17 subtable" Bullet
EndChar

StartChar: endash
Encoding: 8211 8211 115
Width: 500
Flags: W
LayerCount: 2
Fore
SplineSet
54 313 m 1,0,-1
 447 313 l 1,1,-1
 447 221 l 1,2,-1
 54 221 l 1,3,-1
 54 313 l 1,0,-1
EndSplineSet
Substitution2: "'case' Case-Sensitive Forms lookup 17 subtable" Endash
EndChar

StartChar: emdash
Encoding: 8212 8212 116
Width: 500
Flags: W
LayerCount: 2
Fore
SplineSet
0 313 m 1,0,-1
 500 313 l 1,1,-1
 500 221 l 1,2,-1
 0 221 l 1,3,-1
 0 313 l 1,0,-1
EndSplineSet
Substitution2: "'case' Case-Sensitive Forms lookup 17 subtable" Emdash
EndChar

StartChar: tilde
Encoding: 732 732 117
Width: 500
Flags: W
LayerCount: 2
Fore
SplineSet
414 633 m 1,0,1
 409 619 409 619 399.5 603.5 c 128,-1,2
 390 588 390 588 376.5 574 c 128,-1,3
 363 560 363 560 346 551 c 128,-1,4
 329 542 329 542 309 542 c 0,5,6
 293 542 293 542 279.5 547 c 128,-1,7
 266 552 266 552 252.5 557.5 c 128,-1,8
 239 563 239 563 225.5 568 c 128,-1,9
 212 573 212 573 197 573 c 0,10,11
 180 573 180 573 168.5 561.5 c 128,-1,12
 157 550 157 550 149 535 c 1,13,-1
 90 574 l 1,14,15
 95 588 95 588 104.5 604 c 128,-1,16
 114 620 114 620 127.5 634 c 128,-1,17
 141 648 141 648 158 657 c 128,-1,18
 175 666 175 666 196 666 c 0,19,20
 212 666 212 666 225.5 661 c 128,-1,21
 239 656 239 656 252.5 650.5 c 128,-1,22
 266 645 266 645 279 640 c 128,-1,23
 292 635 292 635 307 635 c 0,24,25
 324 635 324 635 336 646 c 128,-1,26
 348 657 348 657 355 672 c 1,27,-1
 414 633 l 1,0,1
EndSplineSet
EndChar

StartChar: trademark
Encoding: 8482 8482 118
Width: 500
Flags: W
LayerCount: 2
Fore
SplineSet
204 619 m 1,0,-1
 204 569 l 1,1,-1
 140 569 l 1,2,-1
 140 357 l 1,3,-1
 82 357 l 1,4,-1
 82 569 l 1,5,-1
 18 569 l 1,6,-1
 18 619 l 1,7,-1
 204 619 l 1,0,-1
326 426 m 1,8,-1
 287 542 l 1,9,10
 285 522 285 522 284 492 c 128,-1,11
 283 462 283 462 282.5 433.5 c 128,-1,12
 282 405 282 405 281.5 383 c 128,-1,13
 281 361 281 361 281 357 c 1,14,-1
 223 357 l 1,15,16
 226 407 226 407 229 444 c 128,-1,17
 232 481 232 481 235.5 511 c 128,-1,18
 239 541 239 541 242.5 566.5 c 128,-1,19
 246 592 246 592 251 619 c 1,20,-1
 305 619 l 1,21,-1
 349 483 l 1,22,-1
 396 619 l 1,23,-1
 450 619 l 1,24,25
 455 592 455 592 458.5 566 c 128,-1,26
 462 540 462 540 465 510 c 128,-1,27
 468 480 468 480 470.5 443 c 128,-1,28
 473 406 473 406 476 357 c 1,29,-1
 418 357 l 1,30,31
 418 361 418 361 417.5 383 c 128,-1,32
 417 405 417 405 416.5 433.5 c 128,-1,33
 416 462 416 462 415 492 c 128,-1,34
 414 522 414 522 413 542 c 1,35,-1
 371 426 l 1,36,-1
 326 426 l 1,8,-1
EndSplineSet
EndChar

StartChar: guilsinglright
Encoding: 8250 8250 120
Width: 500
Flags: W
LayerCount: 2
Fore
SplineSet
155 421 m 1,0,-1
 256 468 l 1,1,-1
 403 254 l 1,2,-1
 256 39 l 1,3,-1
 155 87 l 1,4,-1
 246 254 l 1,5,-1
 155 421 l 1,0,-1
EndSplineSet
Substitution2: "'case' Case-Sensitive Forms lookup 17 subtable" Guilsinglright
EndChar

StartChar: oe
Encoding: 339 339 121
Width: 500
Flags: W
LayerCount: 2
Fore
SplineSet
22 236 m 0,0,1
 22 362 22 362 60.5 422 c 128,-1,2
 99 482 99 482 165 482 c 0,3,4
 193 482 193 482 219.5 465.5 c 128,-1,5
 246 449 246 449 263 417 c 1,6,7
 282 448 282 448 305 465 c 128,-1,8
 328 482 328 482 354 482 c 0,9,10
 383 482 383 482 407.5 470 c 128,-1,11
 432 458 432 458 450 431 c 128,-1,12
 468 404 468 404 478 360 c 128,-1,13
 488 316 488 316 488 252 c 0,14,15
 488 240 488 240 487.5 221.5 c 128,-1,16
 487 203 487 203 486 195 c 1,17,-1
 307 195 l 1,18,19
 308 167 308 167 315 147.5 c 128,-1,20
 322 128 322 128 333 115.5 c 128,-1,21
 344 103 344 103 358 97.5 c 128,-1,22
 372 92 372 92 388 92 c 0,23,24
 406 92 406 92 423.5 96.5 c 128,-1,25
 441 101 441 101 455 109 c 1,26,-1
 473 12 l 1,27,28
 450 0 450 0 427.5 -5.5 c 128,-1,29
 405 -11 405 -11 375 -11 c 0,30,31
 334 -11 334 -11 307 7.5 c 128,-1,32
 280 26 280 26 263 52 c 1,33,34
 248 26 248 26 224 7.5 c 128,-1,35
 200 -11 200 -11 165 -11 c 0,36,37
 92 -11 92 -11 57 52 c 128,-1,38
 22 115 22 115 22 236 c 0,0,1
116 236 m 0,39,40
 116 156 116 156 130.5 124 c 128,-1,41
 145 92 145 92 165 92 c 256,42,43
 185 92 185 92 199 123.5 c 128,-1,44
 213 155 213 155 213 236 c 0,45,46
 213 316 213 316 198.5 348 c 128,-1,47
 184 380 184 380 164 380 c 256,48,49
 144 380 144 380 130 348.5 c 128,-1,50
 116 317 116 317 116 236 c 0,39,40
354 384 m 256,51,52
 341 384 341 384 332.5 374.5 c 128,-1,53
 324 365 324 365 318.5 350 c 128,-1,54
 313 335 313 335 310.5 316.5 c 128,-1,55
 308 298 308 298 308 280 c 1,56,-1
 396 280 l 1,57,58
 396 299 396 299 394 318 c 128,-1,59
 392 337 392 337 387.5 351.5 c 128,-1,60
 383 366 383 366 375 375 c 128,-1,61
 367 384 367 384 354 384 c 256,51,52
EndSplineSet
Substitution2: "'case' Case-Sensitive Forms lookup 18 subtable" OE
EndChar

StartChar: exclamdown
Encoding: 161 161 124
Width: 500
Flags: W
LayerCount: 2
Fore
SplineSet
179 -1 m 2,0,1
 179 35 179 35 180.5 63.5 c 128,-1,2
 182 92 182 92 184.5 118 c 128,-1,3
 187 144 187 144 190.5 170 c 128,-1,4
 194 196 194 196 198 228 c 1,5,-1
 300 228 l 1,6,7
 304 196 304 196 308 170 c 128,-1,8
 312 144 312 144 315 118 c 128,-1,9
 318 92 318 92 319.5 63.5 c 128,-1,10
 321 35 321 35 321 -1 c 2,11,-1
 321 -165 l 1,12,-1
 179 -165 l 1,13,-1
 179 -1 l 2,0,1
167 383 m 256,14,15
 167 422 167 422 192.5 443.5 c 128,-1,16
 218 465 218 465 250 465 c 256,17,18
 282 465 282 465 307.5 443.5 c 128,-1,19
 333 422 333 422 333 383 c 256,20,21
 333 344 333 344 307.5 322.5 c 128,-1,22
 282 301 282 301 250 301 c 256,23,24
 218 301 218 301 192.5 322.5 c 128,-1,25
 167 344 167 344 167 383 c 256,14,15
EndSplineSet
Substitution2: "'case' Case-Sensitive Forms lookup 17 subtable" Exclamdown
EndChar

StartChar: cent
Encoding: 162 162 125
Width: 500
Flags: W
LayerCount: 2
Fore
SplineSet
46 262 m 0,0,1
 46 347 46 347 90.5 408.5 c 128,-1,2
 135 470 135 470 231 490 c 1,3,-1
 231 618 l 1,4,-1
 355 618 l 1,5,-1
 355 495 l 1,6,7
 379 493 379 493 401.5 487 c 128,-1,8
 424 481 424 481 447 472 c 1,9,-1
 421 368 l 1,10,11
 402 375 402 375 378.5 380.5 c 128,-1,12
 355 386 355 386 319 386 c 0,13,14
 236 386 236 386 204 354.5 c 128,-1,15
 172 323 172 323 172 262 c 0,16,17
 172 202 172 202 206.5 170 c 128,-1,18
 241 138 241 138 324 138 c 0,19,20
 353 138 353 138 383 142 c 128,-1,21
 413 146 413 146 438 154 c 1,22,-1
 455 48 l 1,23,24
 436 40 436 40 411 35 c 128,-1,25
 386 30 386 30 355 28 c 1,26,-1
 355 -97 l 1,27,-1
 231 -97 l 1,28,-1
 231 33 l 1,29,30
 183 42 183 42 148 63 c 128,-1,31
 113 84 113 84 90.5 114 c 128,-1,32
 68 144 68 144 57 182 c 128,-1,33
 46 220 46 220 46 262 c 0,0,1
EndSplineSet
EndChar

StartChar: sterling
Encoding: 163 163 126
Width: 500
Flags: W
LayerCount: 2
Fore
SplineSet
234 347 m 1,0,-1
 382 347 l 1,1,-1
 382 246 l 1,2,-1
 234 246 l 1,3,4
 234 230 234 230 233 211 c 128,-1,5
 232 192 232 192 230.5 172.5 c 128,-1,6
 229 153 229 153 227 135 c 128,-1,7
 225 117 225 117 222 102 c 1,8,-1
 455 102 l 1,9,-1
 455 0 l 1,10,-1
 87 0 l 1,11,12
 103 72 103 72 108 133.5 c 128,-1,13
 113 195 113 195 115 246 c 1,14,-1
 38 246 l 1,15,-1
 38 347 l 1,16,-1
 115 347 l 1,17,-1
 115 399 l 2,18,19
 115 466 115 466 129.5 510.5 c 128,-1,20
 144 555 144 555 170 582 c 128,-1,21
 196 609 196 609 233.5 620 c 128,-1,22
 271 631 271 631 318 631 c 0,23,24
 353 631 353 631 384.5 624 c 128,-1,25
 416 617 416 617 446 604 c 1,26,-1
 413 506 l 1,27,28
 392 517 392 517 374 521 c 128,-1,29
 356 525 356 525 330 526 c 0,30,31
 309 526 309 526 291 521.5 c 128,-1,32
 273 517 273 517 260.5 504.5 c 128,-1,33
 248 492 248 492 241 471 c 128,-1,34
 234 450 234 450 234 417 c 2,35,-1
 234 347 l 1,0,-1
EndSplineSet
EndChar

StartChar: currency
Encoding: 164 164 127
Width: 500
Flags: W
LayerCount: 2
Fore
SplineSet
251 486 m 0,0,1
 295 486 295 486 333 470 c 1,2,-1
 399 533 l 1,3,-1
 482 452 l 1,4,-1
 418 390 l 1,5,6
 437 354 437 354 437 310 c 256,7,8
 437 266 437 266 418 230 c 1,9,-1
 482 168 l 1,10,-1
 398 86 l 1,11,-1
 332 150 l 1,12,13
 313 141 313 141 293.5 137.5 c 128,-1,14
 274 134 274 134 251 134 c 256,15,16
 228 134 228 134 208.5 137.5 c 128,-1,17
 189 141 189 141 169 150 c 1,18,-1
 103 87 l 1,19,-1
 20 168 l 1,20,-1
 84 230 l 1,21,22
 65 264 65 264 65 310 c 256,23,24
 65 356 65 356 84 390 c 1,25,-1
 20 452 l 1,26,-1
 104 534 l 1,27,-1
 170 470 l 1,28,29
 206 486 206 486 251 486 c 0,0,1
324 310 m 256,30,31
 324 348 324 348 302.5 368 c 128,-1,32
 281 388 281 388 251 388 c 256,33,34
 221 388 221 388 199.5 368 c 128,-1,35
 178 348 178 348 178 310 c 256,36,37
 178 272 178 272 199.5 252 c 128,-1,38
 221 232 221 232 251 232 c 256,39,40
 281 232 281 232 302.5 252 c 128,-1,41
 324 272 324 272 324 310 c 256,30,31
EndSplineSet
EndChar

StartChar: yen
Encoding: 165 165 128
Width: 500
Flags: W
LayerCount: 2
Fore
SplineSet
448 104 m 1,0,-1
 313 104 l 1,1,-1
 313 0 l 1,2,-1
 189 0 l 1,3,-1
 189 104 l 1,4,-1
 53 104 l 1,5,-1
 53 188 l 1,6,-1
 189 188 l 1,7,-1
 189 250 l 1,8,-1
 53 250 l 1,9,-1
 53 334 l 1,10,-1
 154 334 l 1,11,12
 135 368 135 368 114.5 405.5 c 128,-1,13
 94 443 94 443 75 480.5 c 128,-1,14
 56 518 56 518 39.5 553.5 c 128,-1,15
 23 589 23 589 13 619 c 1,16,-1
 145 619 l 1,17,18
 166 555 166 555 191.5 490 c 128,-1,19
 217 425 217 425 253 353 c 1,20,21
 324 495 324 495 361 619 c 1,22,-1
 488 619 l 1,23,24
 477 590 477 590 462 554.5 c 128,-1,25
 447 519 447 519 429.5 481 c 128,-1,26
 412 443 412 443 392.5 405.5 c 128,-1,27
 373 368 373 368 354 334 c 1,28,-1
 448 334 l 1,29,-1
 448 250 l 1,30,-1
 313 250 l 1,31,-1
 313 188 l 1,32,-1
 448 188 l 1,33,-1
 448 104 l 1,0,-1
EndSplineSet
EndChar

StartChar: brokenbar
Encoding: 166 166 129
Width: 500
Flags: W
LayerCount: 2
Fore
SplineSet
189 189 m 1,0,-1
 313 189 l 1,1,-1
 313 -165 l 1,2,-1
 189 -165 l 1,3,-1
 189 189 l 1,0,-1
189 699 m 1,4,-1
 313 699 l 1,5,-1
 313 345 l 1,6,-1
 189 345 l 1,7,-1
 189 699 l 1,4,-1
EndSplineSet
EndChar

StartChar: section
Encoding: 167 167 130
Width: 500
Flags: W
LayerCount: 2
Fore
SplineSet
82 40 m 1,0,1
 102 32 102 32 120 26 c 128,-1,2
 138 20 138 20 156 15.5 c 128,-1,3
 174 11 174 11 194 9 c 128,-1,4
 214 7 214 7 238 7 c 0,5,6
 271 7 271 7 288.5 18.5 c 128,-1,7
 306 30 306 30 306 49 c 0,8,9
 306 65 306 65 287.5 77.5 c 128,-1,10
 269 90 269 90 224 104 c 0,11,12
 189 116 189 116 158.5 129.5 c 128,-1,13
 128 143 128 143 105 162 c 128,-1,14
 82 181 82 181 68.5 206 c 128,-1,15
 55 231 55 231 55 266 c 0,16,17
 55 302 55 302 71 334 c 128,-1,18
 87 366 87 366 125 402 c 1,19,20
 106 419 106 419 94.5 441 c 128,-1,21
 83 463 83 463 83 488 c 0,22,23
 83 557 83 557 133 595.5 c 128,-1,24
 183 634 183 634 277 634 c 0,25,26
 317 634 317 634 360 624.5 c 128,-1,27
 403 615 403 615 438 601 c 1,28,-1
 405 503 l 1,29,30
 377 514 377 514 346.5 521.5 c 128,-1,31
 316 529 316 529 276 529 c 0,32,33
 235 529 235 529 224 517 c 128,-1,34
 213 505 213 505 213 490 c 0,35,36
 213 472 213 472 227.5 460 c 128,-1,37
 242 448 242 448 284 436 c 0,38,39
 449 388 449 388 449 275 c 0,40,41
 449 237 449 237 433.5 209 c 128,-1,42
 418 181 418 181 386 151 c 1,43,44
 411 128 411 128 423.5 105.5 c 128,-1,45
 436 83 436 83 436 48 c 0,46,47
 436 -27 436 -27 386 -62.5 c 128,-1,48
 336 -98 336 -98 245 -98 c 0,49,50
 176 -98 176 -98 128 -86 c 128,-1,51
 80 -74 80 -74 49 -58 c 1,52,-1
 82 40 l 1,0,1
205 355 m 1,53,54
 187 341 187 341 175.5 320.5 c 128,-1,55
 164 300 164 300 164 285 c 0,56,57
 164 268 164 268 168.5 255 c 128,-1,58
 173 242 173 242 187.5 231 c 128,-1,59
 202 220 202 220 228.5 208.5 c 128,-1,60
 255 197 255 197 300 183 c 1,61,62
 318 198 318 198 329 218 c 128,-1,63
 340 238 340 238 340 253 c 0,64,65
 340 271 340 271 335 283.5 c 128,-1,66
 330 296 330 296 315 306.5 c 128,-1,67
 300 317 300 317 273.5 328.5 c 128,-1,68
 247 340 247 340 205 355 c 1,53,54
EndSplineSet
EndChar

StartChar: dieresis
Encoding: 168 168 131
Width: 500
Flags: W
LayerCount: 2
Fore
SplineSet
152 538 m 0,0,1
 124 538 124 538 103.5 555.5 c 128,-1,2
 83 573 83 573 83 605 c 256,3,4
 83 637 83 637 103.5 655 c 128,-1,5
 124 673 124 673 152 673 c 0,6,7
 179 673 179 673 200 655 c 128,-1,8
 221 637 221 637 221 605 c 256,9,10
 221 573 221 573 200 555.5 c 128,-1,11
 179 538 179 538 152 538 c 0,0,1
351 538 m 256,12,13
 323 538 323 538 302.5 555.5 c 128,-1,14
 282 573 282 573 282 605 c 256,15,16
 282 637 282 637 302.5 655 c 128,-1,17
 323 673 323 673 351 673 c 256,18,19
 379 673 379 673 399.5 655 c 128,-1,20
 420 637 420 637 420 605 c 256,21,22
 420 573 420 573 399.5 555.5 c 128,-1,23
 379 538 379 538 351 538 c 256,12,13
EndSplineSet
EndChar

StartChar: copyright
Encoding: 169 169 132
Width: 500
Flags: W
LayerCount: 2
Fore
SplineSet
327 120 m 1,0,1
 310 112 310 112 291.5 108 c 128,-1,2
 273 104 273 104 256 104 c 0,3,4
 227 104 227 104 205.5 114.5 c 128,-1,5
 184 125 184 125 170 142.5 c 128,-1,6
 156 160 156 160 149 182.5 c 128,-1,7
 142 205 142 205 142 229 c 256,8,9
 142 253 142 253 149 276 c 128,-1,10
 156 299 156 299 170 317 c 128,-1,11
 184 335 184 335 205.5 346 c 128,-1,12
 227 357 227 357 257 357 c 0,13,14
 273 357 273 357 290.5 354.5 c 128,-1,15
 308 352 308 352 325 344 c 1,16,-1
 305 290 l 1,17,18
 294 295 294 295 283 296.5 c 128,-1,19
 272 298 272 298 263 298 c 0,20,21
 231 298 231 298 217.5 278 c 128,-1,22
 204 258 204 258 204 233 c 0,23,24
 204 201 204 201 220.5 182.5 c 128,-1,25
 237 164 237 164 267 164 c 0,26,27
 276 164 276 164 287.5 166 c 128,-1,28
 299 168 299 168 310 173 c 1,29,-1
 327 120 l 1,0,1
25 231 m 256,30,31
 25 292 25 292 44 338 c 128,-1,32
 63 384 63 384 94.5 414.5 c 128,-1,33
 126 445 126 445 166.5 460 c 128,-1,34
 207 475 207 475 251 475 c 0,35,36
 294 475 294 475 335 460 c 128,-1,37
 376 445 376 445 407.5 414.5 c 128,-1,38
 439 384 439 384 458 338 c 128,-1,39
 477 292 477 292 477 231 c 256,40,41
 477 170 477 170 458 124.5 c 128,-1,42
 439 79 439 79 407.5 48.5 c 128,-1,43
 376 18 376 18 335 2.5 c 128,-1,44
 294 -13 294 -13 251 -13 c 0,45,46
 207 -13 207 -13 166.5 2.5 c 128,-1,47
 126 18 126 18 94.5 48.5 c 128,-1,48
 63 79 63 79 44 124.5 c 128,-1,49
 25 170 25 170 25 231 c 256,30,31
250 51 m 256,50,51
 280 51 280 51 308 62.5 c 128,-1,52
 336 74 336 74 358.5 97 c 128,-1,53
 381 120 381 120 394.5 154 c 128,-1,54
 408 188 408 188 408 232 c 0,55,56
 408 275 408 275 394.5 308.5 c 128,-1,57
 381 342 381 342 359 365 c 128,-1,58
 337 388 337 388 308.5 400 c 128,-1,59
 280 412 280 412 250 412 c 256,60,61
 220 412 220 412 192 400 c 128,-1,62
 164 388 164 388 141.5 365 c 128,-1,63
 119 342 119 342 105.5 308.5 c 128,-1,64
 92 275 92 275 92 232 c 0,65,66
 92 188 92 188 105.5 154 c 128,-1,67
 119 120 119 120 141.5 97 c 128,-1,68
 164 74 164 74 192 62.5 c 128,-1,69
 220 51 220 51 250 51 c 256,50,51
EndSplineSet
EndChar

StartChar: ordfeminine
Encoding: 170 170 133
Width: 500
Flags: W
LayerCount: 2
Fore
SplineSet
262 351 m 0,0,1
 276 351 276 351 289 352 c 128,-1,2
 302 353 302 353 310 354 c 1,3,-1
 310 423 l 1,4,5
 304 425 304 425 292.5 426.5 c 128,-1,6
 281 428 281 428 271 428 c 0,7,8
 244 428 244 428 224 420.5 c 128,-1,9
 204 413 204 413 204 390 c 256,10,11
 204 367 204 367 220 359 c 128,-1,12
 236 351 236 351 262 351 c 0,0,1
254 632 m 0,13,14
 297 632 297 632 326 622.5 c 128,-1,15
 355 613 355 613 372.5 595.5 c 128,-1,16
 390 578 390 578 397.5 552.5 c 128,-1,17
 405 527 405 527 405 496 c 2,18,-1
 405 293 l 1,19,20
 385 288 385 288 346 281.5 c 128,-1,21
 307 275 307 275 255 275 c 0,22,23
 185 275 185 275 144.5 300.5 c 128,-1,24
 104 326 104 326 104 388 c 0,25,26
 104 418 104 418 116 438.5 c 128,-1,27
 128 459 128 459 148.5 471 c 128,-1,28
 169 483 169 483 196 488.5 c 128,-1,29
 223 494 223 494 253 494 c 0,30,31
 271 494 271 494 285 492 c 128,-1,32
 299 490 299 490 310 488 c 1,33,-1
 310 497 l 2,34,35
 310 522 310 522 295 536 c 128,-1,36
 280 550 280 550 243 550 c 0,37,38
 218 550 218 550 193 546.5 c 128,-1,39
 168 543 168 543 150 537 c 1,40,-1
 137 616 l 1,41,42
 154 621 154 621 187.5 626.5 c 128,-1,43
 221 632 221 632 254 632 c 0,13,14
EndSplineSet
EndChar

StartChar: guillemotleft
Encoding: 171 171 134
Width: 500
Flags: W
LayerCount: 2
Fore
SplineSet
186 462 m 1,0,-1
 251 422 l 1,1,-1
 157 255 l 1,2,-1
 251 88 l 1,3,-1
 188 46 l 1,4,-1
 50 255 l 1,5,-1
 186 462 l 1,0,-1
385 462 m 1,6,-1
 451 422 l 1,7,-1
 358 255 l 1,8,-1
 451 88 l 1,9,-1
 387 46 l 1,10,-1
 251 255 l 1,11,-1
 385 462 l 1,6,-1
EndSplineSet
Substitution2: "'case' Case-Sensitive Forms lookup 17 subtable" Guillemotleft
EndChar

StartChar: logicalnot
Encoding: 172 172 135
Width: 500
Flags: W
LayerCount: 2
Fore
SplineSet
448 42 m 1,0,-1
 343 42 l 1,1,-1
 343 261 l 1,2,-1
 45 261 l 1,3,-1
 45 363 l 1,4,-1
 448 363 l 1,5,-1
 448 42 l 1,0,-1
EndSplineSet
EndChar

StartChar: registered
Encoding: 174 174 137
Width: 500
Flags: W
LayerCount: 2
Fore
SplineSet
220 187 m 1,0,-1
 220 110 l 1,1,-1
 166 110 l 1,2,-1
 166 348 l 1,3,4
 180 352 180 352 197 354.5 c 128,-1,5
 214 357 214 357 233 357 c 0,6,7
 290 357 290 357 317.5 335 c 128,-1,8
 345 313 345 313 345 271 c 0,9,10
 345 223 345 223 305 200 c 1,11,12
 317 183 317 183 330 159.5 c 128,-1,13
 343 136 343 136 356 110 c 1,14,-1
 299 110 l 1,15,16
 286 134 286 134 276 152.5 c 128,-1,17
 266 171 266 171 256 187 c 1,18,-1
 220 187 l 1,0,-1
220 237 m 1,19,-1
 238 237 l 2,20,21
 265 237 265 237 278 244 c 128,-1,22
 291 251 291 251 291 274 c 0,23,24
 291 294 291 294 275 300.5 c 128,-1,25
 259 307 259 307 242 307 c 0,26,27
 236 307 236 307 230.5 306.5 c 128,-1,28
 225 306 225 306 220 305 c 1,29,-1
 220 237 l 1,19,-1
25 231 m 256,30,31
 25 292 25 292 44 338 c 128,-1,32
 63 384 63 384 94.5 414.5 c 128,-1,33
 126 445 126 445 166.5 460 c 128,-1,34
 207 475 207 475 251 475 c 0,35,36
 294 475 294 475 335 460 c 128,-1,37
 376 445 376 445 407.5 414.5 c 128,-1,38
 439 384 439 384 458 338 c 128,-1,39
 477 292 477 292 477 231 c 256,40,41
 477 170 477 170 458 124.5 c 128,-1,42
 439 79 439 79 407.5 48.5 c 128,-1,43
 376 18 376 18 335 2.5 c 128,-1,44
 294 -13 294 -13 251 -13 c 0,45,46
 207 -13 207 -13 166.5 2.5 c 128,-1,47
 126 18 126 18 94.5 48.5 c 128,-1,48
 63 79 63 79 44 124.5 c 128,-1,49
 25 170 25 170 25 231 c 256,30,31
250 51 m 256,50,51
 280 51 280 51 308 62.5 c 128,-1,52
 336 74 336 74 358.5 97 c 128,-1,53
 381 120 381 120 394.5 154 c 128,-1,54
 408 188 408 188 408 232 c 0,55,56
 408 275 408 275 394.5 308.5 c 128,-1,57
 381 342 381 342 359 365 c 128,-1,58
 337 388 337 388 308.5 400 c 128,-1,59
 280 412 280 412 250 412 c 256,60,61
 220 412 220 412 192 400 c 128,-1,62
 164 388 164 388 141.5 365 c 128,-1,63
 119 342 119 342 105.5 308.5 c 128,-1,64
 92 275 92 275 92 232 c 0,65,66
 92 188 92 188 105.5 154 c 128,-1,67
 119 120 119 120 141.5 97 c 128,-1,68
 164 74 164 74 192 62.5 c 128,-1,69
 220 51 220 51 250 51 c 256,50,51
EndSplineSet
EndChar

StartChar: macron
Encoding: 175 175 138
Width: 500
Flags: W
LayerCount: 2
Fore
SplineSet
108 647 m 1,0,-1
 396 647 l 1,1,-1
 396 560 l 1,2,-1
 108 560 l 1,3,-1
 108 647 l 1,0,-1
EndSplineSet
EndChar

StartChar: degree
Encoding: 176 176 139
Width: 500
Flags: W
LayerCount: 2
Fore
SplineSet
252 698 m 0,0,1
 283 698 283 698 309.5 688.5 c 128,-1,2
 336 679 336 679 355 661 c 128,-1,3
 374 643 374 643 385 617 c 128,-1,4
 396 591 396 591 396 559 c 256,5,6
 396 527 396 527 385 501.5 c 128,-1,7
 374 476 374 476 355 458 c 128,-1,8
 336 440 336 440 309.5 430.5 c 128,-1,9
 283 421 283 421 252 421 c 0,10,11
 186 421 186 421 147 457.5 c 128,-1,12
 108 494 108 494 108 559 c 256,13,14
 108 624 108 624 148 661 c 128,-1,15
 188 698 188 698 252 698 c 0,0,1
252 505 m 256,16,17
 275 505 275 505 290.5 518.5 c 128,-1,18
 306 532 306 532 306 560 c 256,19,20
 306 588 306 588 290.5 601 c 128,-1,21
 275 614 275 614 252 614 c 256,22,23
 229 614 229 614 213 601 c 128,-1,24
 197 588 197 588 197 560 c 256,25,26
 197 532 197 532 213 518.5 c 128,-1,27
 229 505 229 505 252 505 c 256,16,17
EndSplineSet
EndChar

StartChar: plusminus
Encoding: 177 177 140
Width: 500
Flags: W
LayerCount: 2
Fore
SplineSet
40 102 m 1,0,-1
 460 102 l 1,1,-1
 460 0 l 1,2,-1
 40 0 l 1,3,-1
 40 102 l 1,0,-1
40 402 m 1,4,-1
 197 402 l 1,5,-1
 197 558 l 1,6,-1
 303 558 l 1,7,-1
 303 402 l 1,8,-1
 460 402 l 1,9,-1
 460 300 l 1,10,-1
 303 300 l 1,11,-1
 303 143 l 1,12,-1
 197 143 l 1,13,-1
 197 300 l 1,14,-1
 40 300 l 1,15,-1
 40 402 l 1,4,-1
EndSplineSet
EndChar

StartChar: twosuperior
Encoding: 178 178 141
Width: 500
Flags: W
LayerCount: 2
Fore
SplineSet
377 523 m 0,0,1
 377 484 377 484 354 457.5 c 128,-1,2
 331 431 331 431 304 408 c 0,3,4
 288 395 288 395 272.5 380 c 128,-1,5
 257 365 257 365 246 351 c 1,6,-1
 386 351 l 1,7,-1
 386 270 l 1,8,-1
 129 270 l 1,9,-1
 129 295 l 2,10,11
 129 339 129 339 152.5 374 c 128,-1,12
 176 409 176 409 221 447 c 0,13,14
 246 468 246 468 260.5 483 c 128,-1,15
 275 498 275 498 275 514 c 0,16,17
 275 528 275 528 267 536 c 128,-1,18
 259 544 259 544 244 544 c 0,19,20
 218 544 218 544 196 534 c 128,-1,21
 174 524 174 524 159 511 c 1,22,-1
 113 580 l 1,23,24
 136 600 136 600 172 616.5 c 128,-1,25
 208 633 208 633 248 633 c 0,26,27
 318 633 318 633 347.5 602.5 c 128,-1,28
 377 572 377 572 377 523 c 0,0,1
EndSplineSet
Substitution2: "Single Substitution lookup 22 subtable" twoinferior
Substitution2: "'sinf' Scientific Inferiors lookup 11 subtable" two.sinf
Substitution2: "'subs' Subscript lookup 10 subtable" two.sinf
Substitution2: "'sups' Superscript lookup 9 subtable" two.sups
Substitution2: "'dnom' Denominators lookup 8 subtable" twoinferior
EndChar

StartChar: threesuperior
Encoding: 179 179 142
Width: 500
Flags: W
LayerCount: 2
Fore
SplineSet
231 346 m 0,0,1
 263 346 263 346 275.5 356 c 128,-1,2
 288 366 288 366 288 380 c 0,3,4
 288 416 288 416 225 416 c 2,5,-1
 188 416 l 1,6,-1
 188 489 l 1,7,-1
 225 489 l 2,8,9
 246 489 246 489 259 497 c 128,-1,10
 272 505 272 505 272 522 c 0,11,12
 272 550 272 550 233 550 c 0,13,14
 212 550 212 550 192 543 c 128,-1,15
 172 536 172 536 153 528 c 1,16,-1
 119 598 l 1,17,18
 141 612 141 612 174.5 622.5 c 128,-1,19
 208 633 208 633 240 633 c 0,20,21
 276 633 276 633 300.5 625 c 128,-1,22
 325 617 325 617 340 603.5 c 128,-1,23
 355 590 355 590 361 571.5 c 128,-1,24
 367 553 367 553 367 533 c 0,25,26
 367 514 367 514 358.5 497.5 c 128,-1,27
 350 481 350 481 330 464 c 1,28,29
 359 451 359 451 371.5 428.5 c 128,-1,30
 384 406 384 406 384 379 c 0,31,32
 384 354 384 354 376 333 c 128,-1,33
 368 312 368 312 350 296.5 c 128,-1,34
 332 281 332 281 303 272 c 128,-1,35
 274 263 274 263 232 263 c 0,36,37
 202 263 202 263 167.5 269.5 c 128,-1,38
 133 276 133 276 113 287 c 1,39,-1
 134 366 l 1,40,41
 164 353 164 353 185 349.5 c 128,-1,42
 206 346 206 346 231 346 c 0,0,1
EndSplineSet
Substitution2: "Single Substitution lookup 22 subtable" threeinferior
Substitution2: "'sinf' Scientific Inferiors lookup 11 subtable" three.sinf
Substitution2: "'subs' Subscript lookup 10 subtable" three.sinf
Substitution2: "'sups' Superscript lookup 9 subtable" three.sups
Substitution2: "'dnom' Denominators lookup 8 subtable" threeinferior
EndChar

StartChar: acute
Encoding: 180 180 143
Width: 500
Flags: W
LayerCount: 2
Fore
SplineSet
371 597 m 1,0,-1
 197 513 l 1,1,-1
 152 580 l 1,2,-1
 310 691 l 1,3,-1
 371 597 l 1,0,-1
EndSplineSet
EndChar

StartChar: mu
Encoding: 181 181 144
Width: 500
Flags: W
LayerCount: 2
Fore
SplineSet
182 470 m 1,0,-1
 182 214 l 2,1,2
 182 179 182 179 187 156.5 c 128,-1,3
 192 134 192 134 201.5 120.5 c 128,-1,4
 211 107 211 107 225.5 101.5 c 128,-1,5
 240 96 240 96 259 96 c 0,6,7
 273 96 273 96 287.5 97.5 c 128,-1,8
 302 99 302 99 314 101 c 1,9,-1
 314 470 l 1,10,-1
 438 470 l 1,11,-1
 438 16 l 1,12,13
 406 7 406 7 359 -2 c 128,-1,14
 312 -11 312 -11 261 -11 c 0,15,16
 245 -11 245 -11 221 -6.5 c 128,-1,17
 197 -2 197 -2 176 4 c 1,18,19
 178 -17 178 -17 180 -36.5 c 128,-1,20
 182 -56 182 -56 182 -82 c 2,21,-1
 182 -165 l 1,22,-1
 59 -165 l 1,23,-1
 59 470 l 1,24,-1
 182 470 l 1,0,-1
EndSplineSet
EndChar

StartChar: paragraph
Encoding: 182 182 145
Width: 500
Flags: W
LayerCount: 2
Fore
SplineSet
172 232 m 1,0,1
 96 249 96 249 57.5 294.5 c 128,-1,2
 19 340 19 340 19 427 c 0,3,4
 19 475 19 475 36.5 512 c 128,-1,5
 54 549 54 549 86.5 574.5 c 128,-1,6
 119 600 119 600 165 613 c 128,-1,7
 211 626 211 626 268 626 c 0,8,9
 316 626 316 626 366.5 620.5 c 128,-1,10
 417 615 417 615 455 605 c 1,11,-1
 455 -165 l 1,12,-1
 354 -165 l 1,13,-1
 354 522 l 1,14,15
 344 524 344 524 320 525 c 128,-1,16
 296 526 296 526 274 524 c 1,17,-1
 274 -165 l 1,18,-1
 172 -165 l 1,19,-1
 172 232 l 1,0,1
EndSplineSet
EndChar

StartChar: cedilla
Encoding: 184 184 147
Width: 500
Flags: W
LayerCount: 2
Fore
SplineSet
300 -24 m 1,0,1
 333 -34 333 -34 346 -53.5 c 128,-1,2
 359 -73 359 -73 359 -91 c 0,3,4
 359 -114 359 -114 348.5 -129 c 128,-1,5
 338 -144 338 -144 321.5 -153 c 128,-1,6
 305 -162 305 -162 283 -166 c 128,-1,7
 261 -170 261 -170 239 -170 c 0,8,9
 194 -170 194 -170 159 -159 c 1,10,-1
 172 -96 l 1,11,12
 178 -98 178 -98 195 -101.5 c 128,-1,13
 212 -105 212 -105 228 -105 c 0,14,15
 269 -105 269 -105 269 -80 c 0,16,17
 269 -61 269 -61 233 -49 c 2,18,-1
 213 -43 l 1,19,20
 218 -26 218 -26 226.5 -8 c 128,-1,21
 235 10 235 10 240 18 c 1,22,-1
 320 18 l 1,23,24
 315 7 315 7 310 -3 c 128,-1,25
 305 -13 305 -13 300 -24 c 1,0,1
EndSplineSet
EndChar

StartChar: onesuperior
Encoding: 185 185 148
Width: 500
Flags: W
LayerCount: 2
Fore
SplineSet
138 270 m 1,0,-1
 138 351 l 1,1,-1
 238 351 l 1,2,-1
 238 511 l 1,3,4
 220 500 220 500 201.5 492.5 c 128,-1,5
 183 485 183 485 156 474 c 1,6,-1
 129 552 l 1,7,8
 167 567 167 567 202 586 c 128,-1,9
 237 605 237 605 263 626 c 1,10,-1
 340 626 l 1,11,-1
 340 351 l 1,12,-1
 422 351 l 1,13,-1
 422 270 l 1,14,-1
 138 270 l 1,0,-1
EndSplineSet
Substitution2: "Single Substitution lookup 22 subtable" oneinferior
Substitution2: "'sinf' Scientific Inferiors lookup 11 subtable" one.sinf
Substitution2: "'subs' Subscript lookup 10 subtable" one.sinf
Substitution2: "'sups' Superscript lookup 9 subtable" one.sups
Substitution2: "'dnom' Denominators lookup 8 subtable" oneinferior
EndChar

StartChar: ordmasculine
Encoding: 186 186 149
Width: 500
Flags: W
LayerCount: 2
Fore
SplineSet
423 452 m 256,0,1
 423 410 423 410 410.5 377 c 128,-1,2
 398 344 398 344 375 321 c 128,-1,3
 352 298 352 298 320 285.5 c 128,-1,4
 288 273 288 273 249 273 c 256,5,6
 210 273 210 273 178 285.5 c 128,-1,7
 146 298 146 298 123 321 c 128,-1,8
 100 344 100 344 87 377 c 128,-1,9
 74 410 74 410 74 452 c 256,10,11
 74 494 74 494 87 528 c 128,-1,12
 100 562 100 562 123 585 c 128,-1,13
 146 608 146 608 178 620.5 c 128,-1,14
 210 633 210 633 249 633 c 256,15,16
 288 633 288 633 320 620.5 c 128,-1,17
 352 608 352 608 375 585 c 128,-1,18
 398 562 398 562 410.5 528 c 128,-1,19
 423 494 423 494 423 452 c 256,0,1
321 452 m 0,20,21
 321 495 321 495 302.5 519.5 c 128,-1,22
 284 544 284 544 249 544 c 0,23,24
 215 544 215 544 195.5 519.5 c 128,-1,25
 176 495 176 495 176 452 c 0,26,27
 176 411 176 411 195 387 c 128,-1,28
 214 363 214 363 249 363 c 256,29,30
 284 363 284 363 302.5 387 c 128,-1,31
 321 411 321 411 321 452 c 0,20,21
EndSplineSet
EndChar

StartChar: guillemotright
Encoding: 187 187 150
Width: 500
Flags: W
LayerCount: 2
Fore
SplineSet
315 46 m 1,0,-1
 250 86 l 1,1,-1
 344 254 l 1,2,-1
 250 421 l 1,3,-1
 313 462 l 1,4,-1
 451 254 l 1,5,-1
 315 46 l 1,0,-1
116 46 m 1,6,-1
 50 86 l 1,7,-1
 143 254 l 1,8,-1
 50 421 l 1,9,-1
 114 462 l 1,10,-1
 250 254 l 1,11,-1
 116 46 l 1,6,-1
EndSplineSet
Substitution2: "'case' Case-Sensitive Forms lookup 17 subtable" Guillemotright
EndChar

StartChar: onequarter
Encoding: 188 188 151
Width: 500
Flags: W
LayerCount: 2
Fore
SplineSet
459 250 m 1,0,-1
 459 102 l 1,1,-1
 495 102 l 1,2,-1
 495 39 l 1,3,-1
 459 39 l 1,4,-1
 459 0 l 1,5,-1
 379 0 l 1,6,-1
 379 39 l 1,7,-1
 255 39 l 1,8,-1
 255 84 l 1,9,10
 278 127 278 127 300.5 165 c 128,-1,11
 323 203 323 203 355 250 c 1,12,-1
 459 250 l 1,0,-1
2 557 m 1,13,14
 36 572 36 572 61 587.5 c 128,-1,15
 86 603 86 603 110 626 c 1,16,-1
 173 626 l 1,17,-1
 173 376 l 1,18,-1
 88 376 l 1,19,-1
 88 526 l 1,20,21
 68 515 68 515 54 509 c 128,-1,22
 40 503 40 503 21 498 c 1,23,-1
 2 557 l 1,13,14
379 186 m 1,24,25
 363 163 363 163 350.5 142.5 c 128,-1,26
 338 122 338 122 328 102 c 1,27,-1
 379 102 l 1,28,-1
 379 186 l 1,24,25
448 619 m 1,29,-1
 131 0 l 1,30,-1
 31 0 l 1,31,-1
 348 619 l 1,32,-1
 448 619 l 1,29,-1
EndSplineSet
Ligature2: "'frac' Diagonal Fractions lookup 13 subtable" one.sinf fraction four.sinf
Ligature2: "'frac' Diagonal Fractions lookup 13 subtable" one.sinf fraction four.sups
Ligature2: "'frac' Diagonal Fractions lookup 13 subtable" one.sinf fraction fourinferior
Ligature2: "'frac' Diagonal Fractions lookup 13 subtable" one.sinf fraction foursuperior
Ligature2: "'frac' Diagonal Fractions lookup 13 subtable" one.sinf fraction four
Ligature2: "'frac' Diagonal Fractions lookup 13 subtable" one.sups fraction four.sinf
Ligature2: "'frac' Diagonal Fractions lookup 13 subtable" one.sups fraction four.sups
Ligature2: "'frac' Diagonal Fractions lookup 13 subtable" one.sups fraction fourinferior
Ligature2: "'frac' Diagonal Fractions lookup 13 subtable" one.sups fraction foursuperior
Ligature2: "'frac' Diagonal Fractions lookup 13 subtable" one.sups fraction four
Ligature2: "'frac' Diagonal Fractions lookup 13 subtable" oneinferior fraction four.sinf
Ligature2: "'frac' Diagonal Fractions lookup 13 subtable" oneinferior fraction four.sups
Ligature2: "'frac' Diagonal Fractions lookup 13 subtable" oneinferior fraction fourinferior
Ligature2: "'frac' Diagonal Fractions lookup 13 subtable" oneinferior fraction foursuperior
Ligature2: "'frac' Diagonal Fractions lookup 13 subtable" oneinferior fraction four
Ligature2: "'frac' Diagonal Fractions lookup 13 subtable" onesuperior fraction four.sinf
Ligature2: "'frac' Diagonal Fractions lookup 13 subtable" onesuperior fraction four.sups
Ligature2: "'frac' Diagonal Fractions lookup 13 subtable" onesuperior fraction fourinferior
Ligature2: "'frac' Diagonal Fractions lookup 13 subtable" onesuperior fraction foursuperior
Ligature2: "'frac' Diagonal Fractions lookup 13 subtable" onesuperior fraction four
Ligature2: "'frac' Diagonal Fractions lookup 13 subtable" one fraction four.sinf
Ligature2: "'frac' Diagonal Fractions lookup 13 subtable" one fraction four.sups
Ligature2: "'frac' Diagonal Fractions lookup 13 subtable" one fraction fourinferior
Ligature2: "'frac' Diagonal Fractions lookup 13 subtable" one fraction foursuperior
Ligature2: "'frac' Diagonal Fractions lookup 13 subtable" one fraction four
EndChar

StartChar: onehalf
Encoding: 189 189 152
Width: 500
Flags: W
LayerCount: 2
Fore
SplineSet
491 63 m 1,0,-1
 491 0 l 1,1,-1
 282 0 l 1,2,3
 280 6 280 6 280 12 c 128,-1,4
 280 18 280 18 280 23 c 0,5,6
 280 58 280 58 300.5 77 c 128,-1,7
 321 96 321 96 350 115 c 2,8,-1
 372 129 l 2,9,10
 389 140 389 140 395 147 c 128,-1,11
 401 154 401 154 401 167 c 0,12,13
 401 189 401 189 375 189 c 0,14,15
 360 189 360 189 345 181 c 128,-1,16
 330 173 330 173 318 160 c 1,17,-1
 277 213 l 1,18,19
 296 236 296 236 325 247.5 c 128,-1,20
 354 259 354 259 386 259 c 0,21,22
 425 259 425 259 455.5 239 c 128,-1,23
 486 219 486 219 486 177 c 0,24,25
 486 150 486 150 475 133 c 128,-1,26
 464 116 464 116 448 104 c 128,-1,27
 432 92 432 92 414 82.5 c 128,-1,28
 396 73 396 73 382 63 c 1,29,-1
 491 63 l 1,0,-1
2 557 m 1,30,31
 36 572 36 572 61 587.5 c 128,-1,32
 86 603 86 603 110 626 c 1,33,-1
 173 626 l 1,34,-1
 173 376 l 1,35,-1
 88 376 l 1,36,-1
 88 526 l 1,37,38
 68 515 68 515 54 509 c 128,-1,39
 40 503 40 503 21 498 c 1,40,-1
 2 557 l 1,30,31
448 619 m 1,41,-1
 131 0 l 1,42,-1
 31 0 l 1,43,-1
 348 619 l 1,44,-1
 448 619 l 1,41,-1
EndSplineSet
Ligature2: "'frac' Diagonal Fractions lookup 13 subtable" one.sinf fraction two.sinf
Ligature2: "'frac' Diagonal Fractions lookup 13 subtable" one.sinf fraction two.sups
Ligature2: "'frac' Diagonal Fractions lookup 13 subtable" one.sinf fraction twoinferior
Ligature2: "'frac' Diagonal Fractions lookup 13 subtable" one.sinf fraction twosuperior
Ligature2: "'frac' Diagonal Fractions lookup 13 subtable" one.sinf fraction two
Ligature2: "'frac' Diagonal Fractions lookup 13 subtable" one.sups fraction two.sinf
Ligature2: "'frac' Diagonal Fractions lookup 13 subtable" one.sups fraction two.sups
Ligature2: "'frac' Diagonal Fractions lookup 13 subtable" one.sups fraction twoinferior
Ligature2: "'frac' Diagonal Fractions lookup 13 subtable" one.sups fraction twosuperior
Ligature2: "'frac' Diagonal Fractions lookup 13 subtable" one.sups fraction two
Ligature2: "'frac' Diagonal Fractions lookup 13 subtable" oneinferior fraction two.sinf
Ligature2: "'frac' Diagonal Fractions lookup 13 subtable" oneinferior fraction two.sups
Ligature2: "'frac' Diagonal Fractions lookup 13 subtable" oneinferior fraction twoinferior
Ligature2: "'frac' Diagonal Fractions lookup 13 subtable" oneinferior fraction twosuperior
Ligature2: "'frac' Diagonal Fractions lookup 13 subtable" oneinferior fraction two
Ligature2: "'frac' Diagonal Fractions lookup 13 subtable" onesuperior fraction two.sinf
Ligature2: "'frac' Diagonal Fractions lookup 13 subtable" onesuperior fraction two.sups
Ligature2: "'frac' Diagonal Fractions lookup 13 subtable" onesuperior fraction twoinferior
Ligature2: "'frac' Diagonal Fractions lookup 13 subtable" onesuperior fraction twosuperior
Ligature2: "'frac' Diagonal Fractions lookup 13 subtable" onesuperior fraction two
Ligature2: "'frac' Diagonal Fractions lookup 13 subtable" one fraction two.sinf
Ligature2: "'frac' Diagonal Fractions lookup 13 subtable" one fraction two.sups
Ligature2: "'frac' Diagonal Fractions lookup 13 subtable" one fraction twoinferior
Ligature2: "'frac' Diagonal Fractions lookup 13 subtable" one fraction twosuperior
Ligature2: "'frac' Diagonal Fractions lookup 13 subtable" one fraction two
EndChar

StartChar: threequarters
Encoding: 190 190 153
Width: 500
Flags: W
LayerCount: 2
Fore
SplineSet
30 445 m 1,0,1
 41 440 41 440 60.5 435 c 128,-1,2
 80 430 80 430 100 430 c 0,3,4
 123 430 123 430 134.5 434 c 128,-1,5
 146 438 146 438 146 451 c 0,6,7
 146 477 146 477 87 477 c 2,8,-1
 67 477 l 1,9,-1
 67 534 l 1,10,-1
 89 534 l 2,11,12
 115 534 115 534 124.5 539 c 128,-1,13
 134 544 134 544 134 554 c 0,14,15
 134 563 134 563 126.5 567 c 128,-1,16
 119 571 119 571 108 571 c 0,17,18
 91 571 91 571 71 565 c 128,-1,19
 51 559 51 559 42 554 c 1,20,-1
 20 608 l 1,21,22
 34 619 34 619 62 626 c 128,-1,23
 90 633 90 633 120 633 c 0,24,25
 172 633 172 633 196 612.5 c 128,-1,26
 220 592 220 592 220 566 c 0,27,28
 220 547 220 547 213.5 534 c 128,-1,29
 207 521 207 521 190 510 c 1,30,31
 232 490 232 490 232 447 c 0,32,33
 232 424 232 424 222.5 409 c 128,-1,34
 213 394 213 394 196 384.5 c 128,-1,35
 179 375 179 375 156.5 371 c 128,-1,36
 134 367 134 367 107 367 c 0,37,38
 79 367 79 367 53.5 371.5 c 128,-1,39
 28 376 28 376 12 384 c 1,40,-1
 30 445 l 1,0,1
459 250 m 1,41,-1
 459 102 l 1,42,-1
 495 102 l 1,43,-1
 495 39 l 1,44,-1
 459 39 l 1,45,-1
 459 0 l 1,46,-1
 379 0 l 1,47,-1
 379 39 l 1,48,-1
 255 39 l 1,49,-1
 255 84 l 1,50,51
 278 127 278 127 300.5 165 c 128,-1,52
 323 203 323 203 355 250 c 1,53,-1
 459 250 l 1,41,-1
379 186 m 1,54,55
 363 163 363 163 350.5 142.5 c 128,-1,56
 338 122 338 122 328 102 c 1,57,-1
 379 102 l 1,58,-1
 379 186 l 1,54,55
466 619 m 1,59,-1
 149 0 l 1,60,-1
 49 0 l 1,61,-1
 366 619 l 1,62,-1
 466 619 l 1,59,-1
EndSplineSet
Ligature2: "'frac' Diagonal Fractions lookup 13 subtable" three.sinf fraction four.sinf
Ligature2: "'frac' Diagonal Fractions lookup 13 subtable" three.sinf fraction four.sups
Ligature2: "'frac' Diagonal Fractions lookup 13 subtable" three.sinf fraction fourinferior
Ligature2: "'frac' Diagonal Fractions lookup 13 subtable" three.sinf fraction foursuperior
Ligature2: "'frac' Diagonal Fractions lookup 13 subtable" three.sinf fraction four
Ligature2: "'frac' Diagonal Fractions lookup 13 subtable" three.sups fraction four.sinf
Ligature2: "'frac' Diagonal Fractions lookup 13 subtable" three.sups fraction four.sups
Ligature2: "'frac' Diagonal Fractions lookup 13 subtable" three.sups fraction fourinferior
Ligature2: "'frac' Diagonal Fractions lookup 13 subtable" three.sups fraction foursuperior
Ligature2: "'frac' Diagonal Fractions lookup 13 subtable" three.sups fraction four
Ligature2: "'frac' Diagonal Fractions lookup 13 subtable" threeinferior fraction four.sinf
Ligature2: "'frac' Diagonal Fractions lookup 13 subtable" threeinferior fraction four.sups
Ligature2: "'frac' Diagonal Fractions lookup 13 subtable" threeinferior fraction fourinferior
Ligature2: "'frac' Diagonal Fractions lookup 13 subtable" threeinferior fraction foursuperior
Ligature2: "'frac' Diagonal Fractions lookup 13 subtable" threeinferior fraction four
Ligature2: "'frac' Diagonal Fractions lookup 13 subtable" threesuperior fraction four.sinf
Ligature2: "'frac' Diagonal Fractions lookup 13 subtable" threesuperior fraction four.sups
Ligature2: "'frac' Diagonal Fractions lookup 13 subtable" threesuperior fraction fourinferior
Ligature2: "'frac' Diagonal Fractions lookup 13 subtable" threesuperior fraction foursuperior
Ligature2: "'frac' Diagonal Fractions lookup 13 subtable" threesuperior fraction four
Ligature2: "'frac' Diagonal Fractions lookup 13 subtable" three fraction four.sinf
Ligature2: "'frac' Diagonal Fractions lookup 13 subtable" three fraction four.sups
Ligature2: "'frac' Diagonal Fractions lookup 13 subtable" three fraction fourinferior
Ligature2: "'frac' Diagonal Fractions lookup 13 subtable" three fraction foursuperior
Ligature2: "'frac' Diagonal Fractions lookup 13 subtable" three fraction four
EndChar

StartChar: questiondown
Encoding: 191 191 154
Width: 500
Flags: W
LayerCount: 2
Fore
SplineSet
337 229 m 1,0,1
 338 224 338 224 338 214 c 0,2,3
 338 174 338 174 317 137.5 c 128,-1,4
 296 101 296 101 262 73 c 0,5,6
 251 64 251 64 239.5 55 c 128,-1,7
 228 46 228 46 219 37 c 128,-1,8
 210 28 210 28 204.5 17.5 c 128,-1,9
 199 7 199 7 199 -5 c 0,10,11
 199 -35 199 -35 220 -50.5 c 128,-1,12
 241 -66 241 -66 273 -66 c 256,13,14
 305 -66 305 -66 335 -56.5 c 128,-1,15
 365 -47 365 -47 400 -30 c 1,16,-1
 434 -124 l 1,17,18
 399 -146 399 -146 352 -158 c 128,-1,19
 305 -170 305 -170 259 -170 c 0,20,21
 202 -170 202 -170 165 -155 c 128,-1,22
 128 -140 128 -140 107 -116.5 c 128,-1,23
 86 -93 86 -93 77.5 -65.5 c 128,-1,24
 69 -38 69 -38 69 -13 c 0,25,26
 69 16 69 16 80.5 39.5 c 128,-1,27
 92 63 92 63 109.5 82.5 c 128,-1,28
 127 102 127 102 147 119.5 c 128,-1,29
 167 137 167 137 184.5 154 c 128,-1,30
 202 171 202 171 213.5 189 c 128,-1,31
 225 207 225 207 225 229 c 1,32,-1
 337 229 l 1,0,1
190 383 m 0,33,34
 190 422 190 422 215.5 444 c 128,-1,35
 241 466 241 466 273 466 c 0,36,37
 289 466 289 466 304 460.5 c 128,-1,38
 319 455 319 455 331 444 c 128,-1,39
 343 433 343 433 350 417.5 c 128,-1,40
 357 402 357 402 357 383 c 256,41,42
 357 364 357 364 350 348.5 c 128,-1,43
 343 333 343 333 331 322.5 c 128,-1,44
 319 312 319 312 304 306.5 c 128,-1,45
 289 301 289 301 273 301 c 256,46,47
 257 301 257 301 242 306.5 c 128,-1,48
 227 312 227 312 215.5 322.5 c 128,-1,49
 204 333 204 333 197 348.5 c 128,-1,50
 190 364 190 364 190 383 c 0,33,34
EndSplineSet
Substitution2: "'case' Case-Sensitive Forms lookup 17 subtable" Questiondown
EndChar

StartChar: Aring
Encoding: 197 197 160
Width: 500
Flags: W
LayerCount: 2
Fore
SplineSet
355 685 m 0,0,1
 355 659 355 659 346 640 c 128,-1,2
 337 621 337 621 322 607 c 1,3,4
 365 473 365 473 408 323.5 c 128,-1,5
 451 174 451 174 491 0 c 1,6,-1
 359 0 l 1,7,-1
 330 143 l 1,8,-1
 165 143 l 1,9,-1
 137 0 l 1,10,-1
 9 0 l 1,11,12
 52 178 52 178 95.5 325.5 c 128,-1,13
 139 473 139 473 180 605 c 1,14,15
 164 618 164 618 154.5 638 c 128,-1,16
 145 658 145 658 145 685 c 0,17,18
 145 710 145 710 153.5 729.5 c 128,-1,19
 162 749 162 749 176.5 762 c 128,-1,20
 191 775 191 775 210 781.5 c 128,-1,21
 229 788 229 788 249 788 c 0,22,23
 292 788 292 788 323.5 762 c 128,-1,24
 355 736 355 736 355 685 c 0,0,1
249 499 m 1,25,26
 239 464 239 464 230.5 432.5 c 128,-1,27
 222 401 222 401 214.5 370.5 c 128,-1,28
 207 340 207 340 200.5 309 c 128,-1,29
 194 278 194 278 188 245 c 1,30,-1
 309 245 l 1,31,32
 303 278 303 278 297 309 c 128,-1,33
 291 340 291 340 283.5 370.5 c 128,-1,34
 276 401 276 401 267.5 432.5 c 128,-1,35
 259 464 259 464 249 499 c 1,25,26
290 685 m 256,36,37
 290 706 290 706 278 716.5 c 128,-1,38
 266 727 266 727 249 727 c 0,39,40
 234 727 234 727 221.5 716.5 c 128,-1,41
 209 706 209 706 209 685 c 256,42,43
 209 664 209 664 221.5 653.5 c 128,-1,44
 234 643 234 643 249 643 c 0,45,46
 266 643 266 643 278 653.5 c 128,-1,47
 290 664 290 664 290 685 c 256,36,37
EndSplineSet
EndChar

StartChar: AE
Encoding: 198 198 161
Width: 500
Flags: W
LayerCount: 2
Fore
SplineSet
255 143 m 1,0,-1
 164 143 l 1,1,-1
 137 0 l 1,2,-1
 9 0 l 1,3,4
 35 106 35 106 57 186.5 c 128,-1,5
 79 267 79 267 101 337 c 128,-1,6
 123 407 123 407 146 473.5 c 128,-1,7
 169 540 169 540 198 619 c 1,8,-1
 478 619 l 1,9,-1
 478 517 l 1,10,-1
 367 517 l 1,11,-1
 367 379 l 1,12,-1
 455 379 l 1,13,-1
 455 277 l 1,14,-1
 367 277 l 1,15,-1
 367 102 l 1,16,-1
 491 102 l 1,17,-1
 491 0 l 1,18,-1
 255 0 l 1,19,-1
 255 143 l 1,0,-1
255 536 m 1,20,21
 238 467 238 467 221 397.5 c 128,-1,22
 204 328 204 328 186 245 c 1,23,-1
 255 245 l 1,24,-1
 255 536 l 1,20,21
EndSplineSet
EndChar

StartChar: Ccedilla
Encoding: 199 199 162
Width: 500
Flags: W
LayerCount: 2
Fore
SplineSet
300 -24 m 1,0,1
 333 -34 333 -34 346 -53.5 c 128,-1,2
 359 -73 359 -73 359 -91 c 0,3,4
 359 -114 359 -114 348.5 -129 c 128,-1,5
 338 -144 338 -144 321.5 -153 c 128,-1,6
 305 -162 305 -162 283 -166 c 128,-1,7
 261 -170 261 -170 239 -170 c 0,8,9
 194 -170 194 -170 159 -159 c 1,10,-1
 172 -96 l 1,11,12
 178 -98 178 -98 195 -101.5 c 128,-1,13
 212 -105 212 -105 228 -105 c 0,14,15
 269 -105 269 -105 269 -80 c 0,16,17
 269 -61 269 -61 233 -49 c 2,18,-1
 213 -43 l 1,19,20
 215 -34 215 -34 219 -24 c 128,-1,21
 223 -14 223 -14 227 -6 c 1,22,23
 130 15 130 15 78.5 95.5 c 128,-1,24
 27 176 27 176 27 310 c 0,25,26
 27 387 27 387 48 447 c 128,-1,27
 69 507 69 507 106.5 548.5 c 128,-1,28
 144 590 144 590 195.5 611.5 c 128,-1,29
 247 633 247 633 308 633 c 0,30,31
 341 633 341 633 367.5 627.5 c 128,-1,32
 394 622 394 622 414 615 c 128,-1,33
 434 608 434 608 447.5 600 c 128,-1,34
 461 592 461 592 468 588 c 1,35,-1
 436 490 l 1,36,37
 413 505 413 505 380.5 515.5 c 128,-1,38
 348 526 348 526 306 526 c 0,39,40
 277 526 277 526 249.5 515.5 c 128,-1,41
 222 505 222 505 200.5 480.5 c 128,-1,42
 179 456 179 456 165.5 415 c 128,-1,43
 152 374 152 374 152 313 c 0,44,45
 152 207 152 207 188.5 150.5 c 128,-1,46
 225 94 225 94 308 94 c 0,47,48
 356 94 356 94 387.5 105 c 128,-1,49
 419 116 419 116 438 127 c 1,50,-1
 469 30 l 1,51,52
 444 15 444 15 401.5 2 c 128,-1,53
 359 -11 359 -11 304 -13 c 1,54,-1
 300 -24 l 1,0,1
EndSplineSet
EndChar

StartChar: Eth
Encoding: 208 208 171
Width: 500
Flags: W
LayerCount: 2
Fore
SplineSet
473 310 m 0,0,1
 473 224 473 224 452.5 163.5 c 128,-1,2
 432 103 432 103 395.5 65 c 128,-1,3
 359 27 359 27 309 9.5 c 128,-1,4
 259 -8 259 -8 199 -8 c 0,5,6
 167 -8 167 -8 136.5 -4.5 c 128,-1,7
 106 -1 106 -1 71 7 c 1,8,-1
 71 270 l 1,9,-1
 18 270 l 1,10,-1
 18 372 l 1,11,-1
 71 372 l 1,12,-1
 71 611 l 1,13,14
 113 620 113 620 148 623 c 128,-1,15
 183 626 183 626 215 626 c 0,16,17
 273 626 273 626 321 608 c 128,-1,18
 369 590 369 590 402.5 551.5 c 128,-1,19
 436 513 436 513 454.5 453.5 c 128,-1,20
 473 394 473 394 473 310 c 0,0,1
195 372 m 1,21,-1
 271 372 l 1,22,-1
 271 270 l 1,23,-1
 195 270 l 1,24,-1
 195 100 l 1,25,26
 199 99 199 99 203.5 99 c 128,-1,27
 208 99 208 99 213 99 c 0,28,29
 251 99 251 99 277 115 c 128,-1,30
 303 131 303 131 318.5 159 c 128,-1,31
 334 187 334 187 341 225.5 c 128,-1,32
 348 264 348 264 348 310 c 0,33,34
 348 350 348 350 343 388 c 128,-1,35
 338 426 338 426 324.5 455 c 128,-1,36
 311 484 311 484 287 501.5 c 128,-1,37
 263 519 263 519 226 519 c 0,38,39
 218 519 218 519 210 518.5 c 128,-1,40
 202 518 202 518 195 516 c 1,41,-1
 195 372 l 1,21,-1
EndSplineSet
EndChar

StartChar: multiply
Encoding: 215 215 178
Width: 500
Flags: W
LayerCount: 2
Fore
SplineSet
379 459 m 1,0,-1
 449 388 l 1,1,-1
 324 264 l 1,2,-1
 450 139 l 1,3,-1
 379 70 l 1,4,-1
 254 196 l 1,5,-1
 129 70 l 1,6,-1
 60 138 l 1,7,-1
 185 263 l 1,8,-1
 60 388 l 1,9,-1
 129 460 l 1,10,-1
 254 335 l 1,11,-1
 379 459 l 1,0,-1
EndSplineSet
EndChar

StartChar: Oslash
Encoding: 216 216 179
Width: 500
Flags: W
LayerCount: 2
Fore
SplineSet
27 308 m 0,0,1
 27 468 27 468 86 549.5 c 128,-1,2
 145 631 145 631 250 631 c 0,3,4
 305 631 305 631 344 612 c 1,5,-1
 367 659 l 1,6,-1
 447 619 l 1,7,-1
 413 552 l 1,8,9
 473 469 473 469 473 308 c 0,10,11
 473 148 473 148 415 66.5 c 128,-1,12
 357 -15 357 -15 251 -15 c 0,13,14
 194 -15 194 -15 150 8 c 1,15,-1
 127 -40 l 1,16,-1
 48 0 l 1,17,-1
 82 71 l 1,18,19
 27 153 27 153 27 308 c 0,0,1
348 308 m 0,20,21
 348 334 348 334 346.5 358.5 c 128,-1,22
 345 383 345 383 343 405 c 1,23,-1
 198 109 l 1,24,25
 220 92 220 92 250 92 c 0,26,27
 281 92 281 92 300.5 109 c 128,-1,28
 320 126 320 126 330.5 155.5 c 128,-1,29
 341 185 341 185 344.5 224 c 128,-1,30
 348 263 348 263 348 308 c 0,20,21
152 308 m 0,31,32
 152 260 152 260 155 221 c 1,33,-1
 296 511 l 1,34,35
 277 524 277 524 250 524 c 0,36,37
 218 524 218 524 199 507 c 128,-1,38
 180 490 180 490 169.5 460.5 c 128,-1,39
 159 431 159 431 155.5 392 c 128,-1,40
 152 353 152 353 152 308 c 0,31,32
EndSplineSet
EndChar

StartChar: Thorn
Encoding: 222 222 185
Width: 500
Flags: W
LayerCount: 2
Fore
SplineSet
224 531 m 0,0,1
 343 531 343 531 407.5 480 c 128,-1,2
 472 429 472 429 472 324 c 0,3,4
 472 220 472 220 407 167 c 128,-1,5
 342 114 342 114 221 114 c 2,6,-1
 177 114 l 1,7,-1
 177 0 l 1,8,-1
 54 0 l 1,9,-1
 54 619 l 1,10,-1
 177 619 l 1,11,-1
 177 530 l 1,12,13
 190 531 190 531 201.5 531 c 128,-1,14
 213 531 213 531 224 531 c 0,0,1
238 424 m 0,15,16
 227 424 227 424 207.5 423.5 c 128,-1,17
 188 423 188 423 177 421 c 1,18,-1
 177 221 l 1,19,-1
 227 221 l 2,20,21
 286 221 286 221 316 248 c 128,-1,22
 346 275 346 275 346 325 c 0,23,24
 346 373 346 373 316.5 398.5 c 128,-1,25
 287 424 287 424 238 424 c 0,15,16
EndSplineSet
EndChar

StartChar: germandbls
Encoding: 223 223 186
Width: 500
Flags: W
LayerCount: 2
Fore
SplineSet
408 545 m 0,0,1
 408 502 408 502 397.5 477.5 c 128,-1,2
 387 453 387 453 375 435.5 c 128,-1,3
 363 418 363 418 352.5 401 c 128,-1,4
 342 384 342 384 342 355 c 0,5,6
 342 334 342 334 353 319.5 c 128,-1,7
 364 305 364 305 381 292.5 c 128,-1,8
 398 280 398 280 417 268 c 128,-1,9
 436 256 436 256 453 240.5 c 128,-1,10
 470 225 470 225 481 202.5 c 128,-1,11
 492 180 492 180 492 148 c 0,12,13
 492 71 492 71 453.5 30 c 128,-1,14
 415 -11 415 -11 321 -11 c 0,15,16
 274 -11 274 -11 246.5 -2.5 c 128,-1,17
 219 6 219 6 202 14 c 1,18,-1
 224 116 l 1,19,20
 241 108 241 108 266.5 100.5 c 128,-1,21
 292 93 292 93 313 93 c 0,22,23
 340 93 340 93 353.5 107.5 c 128,-1,24
 367 122 367 122 367 146 c 256,25,26
 367 170 367 170 345.5 188 c 128,-1,27
 324 206 324 206 290 223 c 0,28,29
 245 247 245 247 233 276.5 c 128,-1,30
 221 306 221 306 221 338 c 0,31,32
 221 373 221 373 232 395 c 128,-1,33
 243 417 243 417 256 435.5 c 128,-1,34
 269 454 269 454 280 475 c 128,-1,35
 291 496 291 496 291 530 c 0,36,37
 291 559 291 559 275 573.5 c 128,-1,38
 259 588 259 588 230 588 c 0,39,40
 192 588 192 588 173 559 c 128,-1,41
 154 530 154 530 154 479 c 2,42,-1
 154 0 l 1,43,-1
 31 0 l 1,44,-1
 31 476 l 2,45,46
 31 523 31 523 42 563 c 128,-1,47
 53 603 53 603 77 632 c 128,-1,48
 101 661 101 661 138 677 c 128,-1,49
 175 693 175 693 227 693 c 0,50,51
 277 693 277 693 311.5 681 c 128,-1,52
 346 669 346 669 367.5 648.5 c 128,-1,53
 389 628 389 628 398.5 601.5 c 128,-1,54
 408 575 408 575 408 545 c 0,0,1
EndSplineSet
EndChar

StartChar: ae
Encoding: 230 230 193
Width: 500
Flags: W
LayerCount: 2
Fore
SplineSet
163 482 m 0,0,1
 194 482 194 482 221.5 469.5 c 128,-1,2
 249 457 249 457 270 428 c 1,3,4
 287 454 287 454 308 468 c 128,-1,5
 329 482 329 482 354 482 c 0,6,7
 383 482 383 482 407.5 470 c 128,-1,8
 432 458 432 458 450 431 c 128,-1,9
 468 404 468 404 478 360 c 128,-1,10
 488 316 488 316 488 252 c 0,11,12
 488 240 488 240 488 222.5 c 128,-1,13
 488 205 488 205 486 195 c 1,14,-1
 307 195 l 1,15,16
 308 167 308 167 315 147.5 c 128,-1,17
 322 128 322 128 333 115.5 c 128,-1,18
 344 103 344 103 358 97.5 c 128,-1,19
 372 92 372 92 388 92 c 0,20,21
 406 92 406 92 423.5 96.5 c 128,-1,22
 441 101 441 101 455 109 c 1,23,-1
 473 12 l 1,24,25
 450 0 450 0 427.5 -5.5 c 128,-1,26
 405 -11 405 -11 375 -11 c 0,27,28
 340 -11 340 -11 315 3 c 128,-1,29
 290 17 290 17 273 38 c 1,30,31
 250 12 250 12 220.5 0.5 c 128,-1,32
 191 -11 191 -11 162 -11 c 0,33,34
 128 -11 128 -11 102 2.5 c 128,-1,35
 76 16 76 16 58.5 38 c 128,-1,36
 41 60 41 60 32 88 c 128,-1,37
 23 116 23 116 23 145 c 0,38,39
 23 213 23 213 61.5 251.5 c 128,-1,40
 100 290 100 290 160 290 c 0,41,42
 173 290 173 290 186 288.5 c 128,-1,43
 199 287 199 287 213 282 c 1,44,-1
 213 305 l 2,45,46
 213 349 213 349 197.5 366 c 128,-1,47
 182 383 182 383 155 383 c 0,48,49
 138 383 138 383 118.5 377.5 c 128,-1,50
 99 372 99 372 76 364 c 1,51,-1
 59 459 l 1,52,53
 85 470 85 470 111 476 c 128,-1,54
 137 482 137 482 163 482 c 0,0,1
213 199 m 1,55,56
 204 202 204 202 194.5 203 c 128,-1,57
 185 204 185 204 177 204 c 0,58,59
 151 204 151 204 134.5 191 c 128,-1,60
 118 178 118 178 118 146 c 0,61,62
 118 119 118 119 132 103 c 128,-1,63
 146 87 146 87 173 87 c 0,64,65
 196 87 196 87 222 99 c 1,66,67
 216 125 216 125 214.5 151 c 128,-1,68
 213 177 213 177 213 199 c 1,55,56
354 384 m 256,69,70
 341 384 341 384 332.5 374.5 c 128,-1,71
 324 365 324 365 318.5 350 c 128,-1,72
 313 335 313 335 310.5 316.5 c 128,-1,73
 308 298 308 298 308 280 c 1,74,-1
 396 280 l 1,75,76
 396 299 396 299 394 318 c 128,-1,77
 392 337 392 337 387.5 351.5 c 128,-1,78
 383 366 383 366 375 375 c 128,-1,79
 367 384 367 384 354 384 c 256,69,70
EndSplineSet
Substitution2: "'case' Case-Sensitive Forms lookup 18 subtable" AE
EndChar

StartChar: ccedilla
Encoding: 231 231 194
Width: 500
Flags: W
LayerCount: 2
Fore
SplineSet
44 235 m 0,0,1
 44 286 44 286 60 331 c 128,-1,2
 76 376 76 376 109 409.5 c 128,-1,3
 142 443 142 443 192.5 462.5 c 128,-1,4
 243 482 243 482 313 482 c 0,5,6
 355 482 355 482 389 476 c 128,-1,7
 423 470 423 470 458 456 c 1,8,-1
 431 357 l 1,9,10
 411 364 411 364 386.5 369.5 c 128,-1,11
 362 375 362 375 324 375 c 0,12,13
 280 375 280 375 250.5 364.5 c 128,-1,14
 221 354 221 354 203 335.5 c 128,-1,15
 185 317 185 317 177 291 c 128,-1,16
 169 265 169 265 169 235 c 0,17,18
 169 170 169 170 205.5 133 c 128,-1,19
 242 96 242 96 330 96 c 0,20,21
 359 96 359 96 390.5 100 c 128,-1,22
 422 104 422 104 448 113 c 1,23,-1
 466 12 l 1,24,25
 440 2 440 2 403 -4.5 c 128,-1,26
 366 -11 366 -11 316 -11 c 2,27,-1
 305 -11 l 1,28,-1
 300 -24 l 1,29,30
 333 -34 333 -34 346 -53.5 c 128,-1,31
 359 -73 359 -73 359 -91 c 0,32,33
 359 -114 359 -114 348.5 -129 c 128,-1,34
 338 -144 338 -144 321.5 -153 c 128,-1,35
 305 -162 305 -162 283 -166 c 128,-1,36
 261 -170 261 -170 239 -170 c 0,37,38
 194 -170 194 -170 159 -159 c 1,39,-1
 172 -96 l 1,40,41
 178 -98 178 -98 195 -101.5 c 128,-1,42
 212 -105 212 -105 228 -105 c 0,43,44
 269 -105 269 -105 269 -80 c 0,45,46
 269 -61 269 -61 233 -49 c 2,47,-1
 213 -43 l 1,48,49
 219 -22 219 -22 229 -2 c 1,50,51
 180 8 180 8 145 30 c 128,-1,52
 110 52 110 52 87.5 83 c 128,-1,53
 65 114 65 114 54.5 152.5 c 128,-1,54
 44 191 44 191 44 235 c 0,0,1
EndSplineSet
Substitution2: "'case' Case-Sensitive Forms lookup 18 subtable" Ccedilla
EndChar

StartChar: eth
Encoding: 240 240 203
Width: 500
Flags: W
LayerCount: 2
Fore
SplineSet
391 535 m 1,0,1
 423 475 423 475 439 408.5 c 128,-1,2
 455 342 455 342 455 276 c 0,3,4
 455 218 455 218 444.5 165.5 c 128,-1,5
 434 113 434 113 410 73.5 c 128,-1,6
 386 34 386 34 346 10.5 c 128,-1,7
 306 -13 306 -13 246 -13 c 0,8,9
 194 -13 194 -13 155.5 4.5 c 128,-1,10
 117 22 117 22 91.5 52 c 128,-1,11
 66 82 66 82 53 122.5 c 128,-1,12
 40 163 40 163 40 209 c 0,13,14
 40 252 40 252 52.5 290.5 c 128,-1,15
 65 329 65 329 89.5 358 c 128,-1,16
 114 387 114 387 151.5 404 c 128,-1,17
 189 421 189 421 240 421 c 0,18,19
 260 421 260 421 282 414 c 128,-1,20
 304 407 304 407 321 398 c 1,21,22
 316 421 316 421 306 446 c 128,-1,23
 296 471 296 471 280 497 c 1,24,-1
 188 466 l 1,25,-1
 162 541 l 1,26,-1
 230 564 l 1,27,28
 216 580 216 580 200 593.5 c 128,-1,29
 184 607 184 607 166 620 c 1,30,-1
 240 697 l 1,31,32
 301 661 301 661 346 604 c 1,33,-1
 455 640 l 1,34,-1
 480 565 l 1,35,-1
 391 535 l 1,0,1
327 294 m 1,36,37
 303 315 303 315 281.5 319 c 128,-1,38
 260 323 260 323 249 323 c 0,39,40
 207 323 207 323 186.5 293 c 128,-1,41
 166 263 166 263 166 209 c 0,42,43
 166 187 166 187 171 166.5 c 128,-1,44
 176 146 176 146 185.5 130 c 128,-1,45
 195 114 195 114 209 104 c 128,-1,46
 223 94 223 94 241 94 c 0,47,48
 289 94 289 94 308.5 141.5 c 128,-1,49
 328 189 328 189 328 267 c 0,50,51
 328 274 328 274 327.5 280.5 c 128,-1,52
 327 287 327 287 327 294 c 1,36,37
EndSplineSet
Substitution2: "'case' Case-Sensitive Forms lookup 18 subtable" Eth
EndChar

StartChar: divide
Encoding: 247 247 210
Width: 500
Flags: W
LayerCount: 2
Fore
SplineSet
321 444 m 256,0,1
 321 408 321 408 300 389.5 c 128,-1,2
 279 371 279 371 252 371 c 0,3,4
 223 371 223 371 202 389.5 c 128,-1,5
 181 408 181 408 181 444 c 256,6,7
 181 480 181 480 202 499 c 128,-1,8
 223 518 223 518 252 518 c 0,9,10
 279 518 279 518 300 499 c 128,-1,11
 321 480 321 480 321 444 c 256,0,1
321 79 m 0,12,13
 321 44 321 44 300 24.5 c 128,-1,14
 279 5 279 5 252 5 c 0,15,16
 223 5 223 5 202 24.5 c 128,-1,17
 181 44 181 44 181 79 c 0,18,19
 181 115 181 115 202 134.5 c 128,-1,20
 223 154 223 154 252 154 c 0,21,22
 279 154 279 154 300 134.5 c 128,-1,23
 321 115 321 115 321 79 c 0,12,13
40 313 m 1,24,-1
 460 313 l 1,25,-1
 460 212 l 1,26,-1
 40 212 l 1,27,-1
 40 313 l 1,24,-1
EndSplineSet
EndChar

StartChar: oslash
Encoding: 248 248 211
Width: 500
Flags: W
LayerCount: 2
Fore
SplineSet
472 234 m 0,0,1
 472 178 472 178 456 132.5 c 128,-1,2
 440 87 440 87 411 54 c 128,-1,3
 382 21 382 21 341.5 3 c 128,-1,4
 301 -15 301 -15 251 -15 c 0,5,6
 219 -15 219 -15 191 -7.5 c 128,-1,7
 163 0 163 0 138 13 c 1,8,-1
 100 -38 l 1,9,-1
 38 9 l 1,10,-1
 79 66 l 1,11,12
 55 98 55 98 42 140.5 c 128,-1,13
 29 183 29 183 29 234 c 0,14,15
 29 289 29 289 45.5 334.5 c 128,-1,16
 62 380 62 380 91.5 412.5 c 128,-1,17
 121 445 121 445 162 462.5 c 128,-1,18
 203 480 203 480 251 480 c 0,19,20
 313 480 313 480 363 451 c 1,21,-1
 400 502 l 1,22,-1
 463 455 l 1,23,-1
 421 398 l 1,24,25
 445 366 445 366 458.5 325 c 128,-1,26
 472 284 472 284 472 234 c 0,0,1
154 233 m 0,27,28
 154 217 154 217 155 202.5 c 128,-1,29
 156 188 156 188 159 174 c 1,30,-1
 296 362 l 1,31,32
 277 373 277 373 251 373 c 0,33,34
 203 373 203 373 178.5 334.5 c 128,-1,35
 154 296 154 296 154 233 c 0,27,28
346 233 m 0,36,37
 346 249 346 249 345 262.5 c 128,-1,38
 344 276 344 276 341 289 c 1,39,-1
 204 104 l 1,40,41
 223 92 223 92 249 92 c 0,42,43
 297 92 297 92 321.5 131 c 128,-1,44
 346 170 346 170 346 233 c 0,36,37
EndSplineSet
Substitution2: "'case' Case-Sensitive Forms lookup 18 subtable" Oslash
EndChar

StartChar: thorn
Encoding: 254 254 217
Width: 500
Flags: W
LayerCount: 2
Fore
SplineSet
469 235 m 0,0,1
 469 181 469 181 457 135.5 c 128,-1,2
 445 90 445 90 422 57.5 c 128,-1,3
 399 25 399 25 364 7 c 128,-1,4
 329 -11 329 -11 283 -11 c 0,5,6
 236 -11 236 -11 186 12 c 1,7,-1
 186 -165 l 1,8,-1
 63 -165 l 1,9,-1
 63 673 l 1,10,-1
 186 694 l 1,11,-1
 186 472 l 1,12,13
 200 475 200 475 215 477.5 c 128,-1,14
 230 480 230 480 244 480 c 0,15,16
 353 480 353 480 411 414 c 128,-1,17
 469 348 469 348 469 235 c 0,0,1
344 231 m 0,18,19
 344 294 344 294 319 334.5 c 128,-1,20
 294 375 294 375 243 375 c 0,21,22
 229 375 229 375 213 373.5 c 128,-1,23
 197 372 197 372 186 371 c 1,24,-1
 186 113 l 1,25,26
 198 105 198 105 218 100 c 128,-1,27
 238 95 238 95 258 95 c 0,28,29
 302 95 302 95 323 130.5 c 128,-1,30
 344 166 344 166 344 231 c 0,18,19
EndSplineSet
Substitution2: "'case' Case-Sensitive Forms lookup 18 subtable" Thorn
EndChar

StartChar: Aogonek
Encoding: 260 260 223
Width: 500
Flags: W
LayerCount: 2
Fore
SplineSet
249 499 m 1,0,1
 239 464 239 464 230.5 432.5 c 128,-1,2
 222 401 222 401 214.5 370.5 c 128,-1,3
 207 340 207 340 200.5 309 c 128,-1,4
 194 278 194 278 188 245 c 1,5,-1
 309 245 l 1,6,7
 303 278 303 278 297 309 c 128,-1,8
 291 340 291 340 283.5 370.5 c 128,-1,9
 276 401 276 401 267.5 432.5 c 128,-1,10
 259 464 259 464 249 499 c 1,0,1
359 0 m 1,11,-1
 330 143 l 1,12,-1
 165 143 l 1,13,-1
 137 0 l 1,14,-1
 9 0 l 1,15,16
 53 183 53 183 98 333.5 c 128,-1,17
 143 484 143 484 185 619 c 1,18,-1
 319 619 l 1,19,20
 363 483 363 483 406.5 330.5 c 128,-1,21
 450 178 450 178 491 0 c 1,22,23
 482 -8 482 -8 470.5 -18 c 128,-1,24
 459 -28 459 -28 449 -39 c 128,-1,25
 439 -50 439 -50 432.5 -61 c 128,-1,26
 426 -72 426 -72 426 -81 c 0,27,28
 426 -91 426 -91 431.5 -98 c 128,-1,29
 437 -105 437 -105 453 -105 c 0,30,31
 461 -105 461 -105 472 -104 c 128,-1,32
 483 -103 483 -103 498 -98 c 1,33,-1
 505 -156 l 1,34,35
 491 -161 491 -161 465.5 -165.5 c 128,-1,36
 440 -170 440 -170 412 -170 c 0,37,38
 364 -170 364 -170 343 -151.5 c 128,-1,39
 322 -133 322 -133 322 -106 c 0,40,41
 322 -82 322 -82 335.5 -55 c 128,-1,42
 349 -28 349 -28 375 -8 c 2,43,-1
 384 0 l 1,44,-1
 359 0 l 1,11,-1
EndSplineSet
EndChar

StartChar: aogonek
Encoding: 261 261 224
Width: 500
Flags: W
LayerCount: 2
Fore
SplineSet
439 -156 m 1,0,1
 425 -161 425 -161 399.5 -165.5 c 128,-1,2
 374 -170 374 -170 346 -170 c 0,3,4
 298 -170 298 -170 277 -151.5 c 128,-1,5
 256 -133 256 -133 256 -106 c 0,6,7
 256 -82 256 -82 270.5 -55.5 c 128,-1,8
 285 -29 285 -29 309 -7 c 1,9,10
 292 -9 292 -9 275 -10 c 128,-1,11
 258 -11 258 -11 242 -11 c 0,12,13
 197 -11 197 -11 160.5 -3 c 128,-1,14
 124 5 124 5 98 23.5 c 128,-1,15
 72 42 72 42 58 71.5 c 128,-1,16
 44 101 44 101 44 144 c 0,17,18
 44 185 44 185 60 213 c 128,-1,19
 76 241 76 241 103 258 c 128,-1,20
 130 275 130 275 165 282.5 c 128,-1,21
 200 290 200 290 238 290 c 0,22,23
 286 290 286 290 323 282 c 1,24,-1
 323 297 l 2,25,26
 323 332 323 332 301 355.5 c 128,-1,27
 279 379 279 379 225 379 c 0,28,29
 190 379 190 379 157.5 374 c 128,-1,30
 125 369 125 369 105 362 c 1,31,-1
 88 461 l 1,32,33
 111 469 111 469 153 475.5 c 128,-1,34
 195 482 195 482 240 482 c 0,35,36
 298 482 298 482 336.5 468.5 c 128,-1,37
 375 455 375 455 398 430.5 c 128,-1,38
 421 406 421 406 431 370.5 c 128,-1,39
 441 335 441 335 441 291 c 2,40,-1
 441 13 l 1,41,42
 434 8 434 8 420.5 -3 c 128,-1,43
 407 -14 407 -14 393.5 -27.5 c 128,-1,44
 380 -41 380 -41 370 -55 c 128,-1,45
 360 -69 360 -69 360 -81 c 0,46,47
 360 -91 360 -91 365.5 -98 c 128,-1,48
 371 -105 371 -105 387 -105 c 0,49,50
 395 -105 395 -105 406 -104 c 128,-1,51
 417 -103 417 -103 432 -98 c 1,52,-1
 439 -156 l 1,0,1
251 88 m 0,53,54
 271 88 271 88 290 88.5 c 128,-1,55
 309 89 309 89 323 91 c 1,56,-1
 323 199 l 1,57,58
 311 201 311 201 294 202.5 c 128,-1,59
 277 204 277 204 263 204 c 0,60,61
 244 204 244 204 226 201.5 c 128,-1,62
 208 199 208 199 194.5 193 c 128,-1,63
 181 187 181 187 173 176 c 128,-1,64
 165 165 165 165 165 147 c 0,65,66
 165 115 165 115 189 101.5 c 128,-1,67
 213 88 213 88 251 88 c 0,53,54
EndSplineSet
Substitution2: "'case' Case-Sensitive Forms lookup 18 subtable" Aogonek
EndChar

StartChar: dcaron
Encoding: 271 271 234
Width: 500
Flags: W
LayerCount: 2
Fore
SplineSet
138 238 m 0,0,1
 138 175 138 175 154.5 135 c 128,-1,2
 171 95 171 95 207 95 c 0,3,4
 229 95 229 95 245 99 c 1,5,-1
 245 355 l 1,6,7
 235 363 235 363 221 368.5 c 128,-1,8
 207 374 207 374 192 374 c 0,9,10
 163 374 163 374 150.5 339 c 128,-1,11
 138 304 138 304 138 238 c 0,0,1
369 14 m 1,12,13
 338 3 338 3 293.5 -4 c 128,-1,14
 249 -11 249 -11 206 -11 c 0,15,16
 111 -11 111 -11 62 54 c 128,-1,17
 13 119 13 119 13 232 c 0,18,19
 13 347 13 347 53 413.5 c 128,-1,20
 93 480 93 480 171 480 c 0,21,22
 191 480 191 480 211 474.5 c 128,-1,23
 231 469 231 469 245 459 c 1,24,-1
 245 673 l 1,25,-1
 369 694 l 1,26,-1
 369 14 l 1,12,13
518 693 m 1,27,-1
 489 475 l 1,28,-1
 409 475 l 1,29,-1
 409 693 l 1,30,-1
 518 693 l 1,27,-1
EndSplineSet
Substitution2: "'case' Case-Sensitive Forms lookup 18 subtable" Dcaron
EndChar

StartChar: dcroat
Encoding: 273 273 236
Width: 500
Flags: W
LayerCount: 2
Fore
SplineSet
427 615 m 1,0,-1
 482 615 l 1,1,-1
 482 532 l 1,2,-1
 427 532 l 1,3,-1
 427 14 l 1,4,5
 392 3 392 3 344 -4 c 128,-1,6
 296 -11 296 -11 248 -11 c 0,7,8
 139 -11 139 -11 83.5 54 c 128,-1,9
 28 119 28 119 28 232 c 0,10,11
 28 347 28 347 75 413.5 c 128,-1,12
 122 480 122 480 213 480 c 0,13,14
 238 480 238 480 262 474.5 c 128,-1,15
 286 469 286 469 304 459 c 1,16,-1
 304 532 l 1,17,-1
 176 532 l 1,18,-1
 176 615 l 1,19,-1
 304 615 l 1,20,-1
 304 673 l 1,21,-1
 427 694 l 1,22,-1
 427 615 l 1,0,-1
153 238 m 0,23,24
 153 175 153 175 175.5 135 c 128,-1,25
 198 95 198 95 249 95 c 0,26,27
 265 95 265 95 277.5 96 c 128,-1,28
 290 97 290 97 304 99 c 1,29,-1
 304 355 l 1,30,31
 290 363 290 363 272 368.5 c 128,-1,32
 254 374 254 374 234 374 c 0,33,34
 192 374 192 374 172.5 339 c 128,-1,35
 153 304 153 304 153 238 c 0,23,24
EndSplineSet
Substitution2: "'case' Case-Sensitive Forms lookup 18 subtable" Dcroat
EndChar

StartChar: Eogonek
Encoding: 280 280 243
Width: 500
Flags: W
LayerCount: 2
Fore
SplineSet
63 0 m 1,0,-1
 63 619 l 1,1,-1
 438 619 l 1,2,-1
 438 517 l 1,3,-1
 186 517 l 1,4,-1
 186 378 l 1,5,-1
 405 378 l 1,6,-1
 405 276 l 1,7,-1
 186 276 l 1,8,-1
 186 102 l 1,9,-1
 460 102 l 1,10,-1
 460 0 l 1,11,12
 450 -8 450 -8 438.5 -18 c 128,-1,13
 427 -28 427 -28 417.5 -39 c 128,-1,14
 408 -50 408 -50 401.5 -61 c 128,-1,15
 395 -72 395 -72 395 -81 c 0,16,17
 395 -91 395 -91 400.5 -98 c 128,-1,18
 406 -105 406 -105 422 -105 c 0,19,20
 430 -105 430 -105 441 -104 c 128,-1,21
 452 -103 452 -103 467 -98 c 1,22,-1
 474 -156 l 1,23,24
 460 -161 460 -161 434.5 -165.5 c 128,-1,25
 409 -170 409 -170 381 -170 c 0,26,27
 333 -170 333 -170 312 -151.5 c 128,-1,28
 291 -133 291 -133 291 -106 c 0,29,30
 291 -80 291 -80 307.5 -51 c 128,-1,31
 324 -22 324 -22 353 0 c 1,32,-1
 63 0 l 1,0,-1
EndSplineSet
EndChar

StartChar: eogonek
Encoding: 281 281 244
Width: 500
Flags: W
LayerCount: 2
Fore
SplineSet
429 -156 m 1,0,1
 415 -161 415 -161 389.5 -165.5 c 128,-1,2
 364 -170 364 -170 336 -170 c 0,3,4
 288 -170 288 -170 267 -151.5 c 128,-1,5
 246 -133 246 -133 246 -106 c 0,6,7
 246 -83 246 -83 259 -57.5 c 128,-1,8
 272 -32 272 -32 295 -11 c 1,9,-1
 289 -11 l 2,10,11
 229 -11 229 -11 181.5 4.5 c 128,-1,12
 134 20 134 20 100.5 50.5 c 128,-1,13
 67 81 67 81 49 126 c 128,-1,14
 31 171 31 171 31 231 c 0,15,16
 31 293 31 293 50 340 c 128,-1,17
 69 387 69 387 100 418.5 c 128,-1,18
 131 450 131 450 171 466 c 128,-1,19
 211 482 211 482 253 482 c 0,20,21
 357 482 357 482 411 420.5 c 128,-1,22
 465 359 465 359 465 241 c 0,23,24
 465 229 465 229 464.5 216 c 128,-1,25
 464 203 464 203 463 195 c 1,26,-1
 158 195 l 1,27,28
 158 149 158 149 196 122.5 c 128,-1,29
 234 96 234 96 294 96 c 0,30,31
 331 96 331 96 364.5 104 c 128,-1,32
 398 112 398 112 421 120 c 1,33,-1
 438 17 l 1,34,-1
 429 11 l 2,35,36
 421 6 421 6 407.5 -5 c 128,-1,37
 394 -16 394 -16 381.5 -29 c 128,-1,38
 369 -42 369 -42 359.5 -56 c 128,-1,39
 350 -70 350 -70 350 -81 c 0,40,41
 350 -91 350 -91 355.5 -98 c 128,-1,42
 361 -105 361 -105 377 -105 c 0,43,44
 385 -105 385 -105 396 -104 c 128,-1,45
 407 -103 407 -103 422 -98 c 1,46,-1
 429 -156 l 1,0,1
346 280 m 1,47,48
 346 299 346 299 341 316.5 c 128,-1,49
 336 334 336 334 325 348 c 128,-1,50
 314 362 314 362 297 370.5 c 128,-1,51
 280 379 280 379 255 379 c 0,52,53
 231 379 231 379 213.5 371 c 128,-1,54
 196 363 196 363 184.5 349 c 128,-1,55
 173 335 173 335 166.5 317 c 128,-1,56
 160 299 160 299 158 280 c 1,57,-1
 346 280 l 1,47,48
EndSplineSet
Substitution2: "'case' Case-Sensitive Forms lookup 18 subtable" Eogonek
EndChar

StartChar: hcircumflex
Encoding: 293 293 256
Width: 500
Flags: W
LayerCount: 2
Fore
SplineSet
63 0 m 1,0,-1
 63 633 l 1,1,-1
 186 654 l 1,2,-1
 186 466 l 1,3,4
 201 471 201 471 222 475.5 c 128,-1,5
 243 480 243 480 259 480 c 0,6,7
 311 480 311 480 346 464.5 c 128,-1,8
 381 449 381 449 402 420.5 c 128,-1,9
 423 392 423 392 432 352.5 c 128,-1,10
 441 313 441 313 441 265 c 2,11,-1
 441 0 l 1,12,-1
 318 0 l 1,13,-1
 318 249 l 2,14,15
 318 315 318 315 303 344 c 128,-1,16
 288 373 288 373 246 373 c 0,17,18
 229 373 229 373 212.5 369 c 128,-1,19
 196 365 196 365 186 362 c 1,20,-1
 186 0 l 1,21,-1
 63 0 l 1,0,-1
317 734 m 1,22,-1
 279 677 l 1,23,-1
 187 731 l 1,24,-1
 93 677 l 1,25,-1
 55 734 l 1,26,-1
 187 829 l 1,27,-1
 317 734 l 1,22,-1
EndSplineSet
Substitution2: "'case' Case-Sensitive Forms lookup 18 subtable" Hcircumflex
EndChar

StartChar: Hbar
Encoding: 294 294 257
Width: 500
Flags: W
LayerCount: 2
Fore
SplineSet
438 619 m 1,0,-1
 438 547 l 1,1,-1
 483 547 l 1,2,-1
 483 448 l 1,3,-1
 438 448 l 1,4,-1
 438 0 l 1,5,-1
 314 0 l 1,6,-1
 314 254 l 1,7,-1
 186 254 l 1,8,-1
 186 0 l 1,9,-1
 63 0 l 1,10,-1
 63 448 l 1,11,-1
 18 448 l 1,12,-1
 18 547 l 1,13,-1
 63 547 l 1,14,-1
 63 619 l 1,15,-1
 186 619 l 1,16,-1
 186 547 l 1,17,-1
 314 547 l 1,18,-1
 314 619 l 1,19,-1
 438 619 l 1,0,-1
314 355 m 1,20,-1
 314 448 l 1,21,-1
 186 448 l 1,22,-1
 186 355 l 1,23,-1
 314 355 l 1,20,-1
EndSplineSet
EndChar

StartChar: hbar
Encoding: 295 295 258
Width: 500
Flags: W
LayerCount: 2
Fore
SplineSet
80 0 m 1,0,-1
 80 532 l 1,1,-1
 25 532 l 1,2,-1
 25 615 l 1,3,-1
 80 615 l 1,4,-1
 80 673 l 1,5,-1
 204 694 l 1,6,-1
 204 615 l 1,7,-1
 331 615 l 1,8,-1
 331 532 l 1,9,-1
 204 532 l 1,10,-1
 204 466 l 1,11,12
 218 471 218 471 237 475.5 c 128,-1,13
 256 480 256 480 271 480 c 0,14,15
 320 480 320 480 352.5 464.5 c 128,-1,16
 385 449 385 449 404.5 420.5 c 128,-1,17
 424 392 424 392 432.5 352.5 c 128,-1,18
 441 313 441 313 441 265 c 2,19,-1
 441 0 l 1,20,-1
 318 0 l 1,21,-1
 318 249 l 2,22,23
 318 315 318 315 305 344 c 128,-1,24
 292 373 292 373 257 373 c 0,25,26
 243 373 243 373 227.5 369 c 128,-1,27
 212 365 212 365 204 362 c 1,28,-1
 204 0 l 1,29,-1
 80 0 l 1,0,-1
EndSplineSet
Substitution2: "'case' Case-Sensitive Forms lookup 18 subtable" Hbar
EndChar

StartChar: Iogonek
Encoding: 302 302 265
Width: 500
Flags: W
LayerCount: 2
Fore
SplineSet
334 -156 m 1,0,1
 320 -161 320 -161 294.5 -165.5 c 128,-1,2
 269 -170 269 -170 241 -170 c 0,3,4
 193 -170 193 -170 172 -151.5 c 128,-1,5
 151 -133 151 -133 151 -106 c 0,6,7
 151 -80 151 -80 167.5 -51 c 128,-1,8
 184 -22 184 -22 213 0 c 1,9,-1
 54 0 l 1,10,-1
 54 102 l 1,11,-1
 189 102 l 1,12,-1
 189 517 l 1,13,-1
 54 517 l 1,14,-1
 54 619 l 1,15,-1
 447 619 l 1,16,-1
 447 517 l 1,17,-1
 313 517 l 1,18,-1
 313 102 l 1,19,-1
 447 102 l 1,20,-1
 447 0 l 1,21,-1
 319 0 l 1,22,23
 309 -8 309 -8 298 -18 c 128,-1,24
 287 -28 287 -28 277.5 -39 c 128,-1,25
 268 -50 268 -50 261.5 -61 c 128,-1,26
 255 -72 255 -72 255 -81 c 0,27,28
 255 -91 255 -91 260.5 -98 c 128,-1,29
 266 -105 266 -105 282 -105 c 0,30,31
 290 -105 290 -105 301 -104 c 128,-1,32
 312 -103 312 -103 327 -98 c 1,33,-1
 334 -156 l 1,0,1
EndSplineSet
EndChar

StartChar: iogonek
Encoding: 303 303 266
Width: 500
Flags: W
LayerCount: 2
Fore
SplineSet
284 605 m 0,0,1
 284 569 284 569 261 548 c 128,-1,2
 238 527 238 527 206 527 c 256,3,4
 174 527 174 527 151.5 548 c 128,-1,5
 129 569 129 569 129 605 c 0,6,7
 129 642 129 642 151.5 663 c 128,-1,8
 174 684 174 684 206 684 c 256,9,10
 238 684 238 684 261 663 c 128,-1,11
 284 642 284 642 284 605 c 0,0,1
443 0 m 2,12,13
 433 -8 433 -8 421.5 -18 c 128,-1,14
 410 -28 410 -28 400.5 -39 c 128,-1,15
 391 -50 391 -50 385 -61 c 128,-1,16
 379 -72 379 -72 379 -81 c 0,17,18
 379 -91 379 -91 384.5 -98 c 128,-1,19
 390 -105 390 -105 406 -105 c 0,20,21
 414 -105 414 -105 425 -104 c 128,-1,22
 436 -103 436 -103 451 -98 c 1,23,-1
 458 -156 l 1,24,25
 419 -170 419 -170 375 -170 c 0,26,27
 355 -170 355 -170 337 -166.5 c 128,-1,28
 319 -163 319 -163 305.5 -155.5 c 128,-1,29
 292 -148 292 -148 283.5 -135.5 c 128,-1,30
 275 -123 275 -123 275 -106 c 0,31,32
 275 -83 275 -83 288 -57.5 c 128,-1,33
 301 -32 301 -32 324 -11 c 1,34,35
 279 -9 279 -9 248.5 5.5 c 128,-1,36
 218 20 218 20 200 46.5 c 128,-1,37
 182 73 182 73 174 110.5 c 128,-1,38
 166 148 166 148 166 195 c 2,39,-1
 166 368 l 1,40,-1
 36 368 l 1,41,-1
 36 470 l 1,42,-1
 289 470 l 1,43,-1
 289 178 l 2,44,45
 289 135 289 135 304.5 115.5 c 128,-1,46
 320 96 320 96 356 96 c 0,47,48
 373 96 373 96 397 100.5 c 128,-1,49
 421 105 421 105 451 119 c 1,50,-1
 467 18 l 1,51,-1
 443 0 l 2,12,13
EndSplineSet
Substitution2: "'case' Case-Sensitive Forms lookup 18 subtable" Iogonek
EndChar

StartChar: dotlessi
Encoding: 305 305 268
Width: 500
Flags: W
LayerCount: 2
Fore
SplineSet
467 20 m 1,0,1
 429 2 429 2 395.5 -4.5 c 128,-1,2
 362 -11 362 -11 334 -11 c 0,3,4
 286 -11 286 -11 253.5 3 c 128,-1,5
 221 17 221 17 201.5 43.5 c 128,-1,6
 182 70 182 70 174 108 c 128,-1,7
 166 146 166 146 166 195 c 2,8,-1
 166 368 l 1,9,-1
 36 368 l 1,10,-1
 36 470 l 1,11,-1
 289 470 l 1,12,-1
 289 179 l 2,13,14
 289 137 289 137 304.5 116.5 c 128,-1,15
 320 96 320 96 356 96 c 0,16,17
 373 96 373 96 397 100.5 c 128,-1,18
 421 105 421 105 451 119 c 1,19,-1
 467 20 l 1,0,1
EndSplineSet
EndChar

StartChar: IJ
Encoding: 306 306 270
Width: 500
Flags: W
LayerCount: 2
Fore
SplineSet
24 0 m 1,0,-1
 24 619 l 1,1,-1
 147 619 l 1,2,-1
 147 0 l 1,3,-1
 24 0 l 1,0,-1
480 194 m 2,4,5
 480 132 480 132 466.5 92 c 128,-1,6
 453 52 453 52 429 29 c 128,-1,7
 405 6 405 6 373.5 -3.5 c 128,-1,8
 342 -13 342 -13 306 -13 c 0,9,10
 271 -13 271 -13 240 -4.5 c 128,-1,11
 209 4 209 4 173 29 c 1,12,-1
 221 127 l 1,13,14
 236 113 236 113 252.5 103.5 c 128,-1,15
 269 94 269 94 295 94 c 0,16,17
 308 94 308 94 319.5 98 c 128,-1,18
 331 102 331 102 339 113.5 c 128,-1,19
 347 125 347 125 351.5 146 c 128,-1,20
 356 167 356 167 356 202 c 2,21,-1
 356 619 l 1,22,-1
 480 619 l 1,23,-1
 480 194 l 2,4,5
EndSplineSet
EndChar

StartChar: ij
Encoding: 307 307 271
Width: 500
Flags: W
LayerCount: 2
Fore
SplineSet
196 0 m 1,0,-1
 73 0 l 1,1,-1
 73 470 l 1,2,-1
 196 470 l 1,3,-1
 196 0 l 1,0,-1
214 605 m 0,4,5
 214 568 214 568 190 547.5 c 128,-1,6
 166 527 166 527 134 527 c 256,7,8
 102 527 102 527 78.5 547.5 c 128,-1,9
 55 568 55 568 55 605 c 0,10,11
 55 643 55 643 78.5 663.5 c 128,-1,12
 102 684 102 684 134 684 c 256,13,14
 166 684 166 684 190 663.5 c 128,-1,15
 214 643 214 643 214 605 c 0,4,5
259 -165 m 0,16,17
 246 -165 246 -165 221.5 -163 c 128,-1,18
 197 -161 197 -161 176 -153 c 1,19,-1
 193 -52 l 1,20,21
 207 -57 207 -57 218 -58.5 c 128,-1,22
 229 -60 229 -60 246 -60 c 0,23,24
 278 -60 278 -60 290 -41 c 128,-1,25
 302 -22 302 -22 302 13 c 2,26,-1
 302 470 l 1,27,-1
 426 470 l 1,28,-1
 426 17 l 2,29,30
 426 -77 426 -77 385.5 -121 c 128,-1,31
 345 -165 345 -165 259 -165 c 0,16,17
443 605 m 0,32,33
 443 568 443 568 419 547.5 c 128,-1,34
 395 527 395 527 363 527 c 256,35,36
 331 527 331 527 307.5 547.5 c 128,-1,37
 284 568 284 568 284 605 c 0,38,39
 284 643 284 643 307.5 663.5 c 128,-1,40
 331 684 331 684 363 684 c 256,41,42
 395 684 395 684 419 663.5 c 128,-1,43
 443 643 443 643 443 605 c 0,32,33
EndSplineSet
Substitution2: "'case' Case-Sensitive Forms lookup 18 subtable" IJ
EndChar

StartChar: kgreenlandic.case
Encoding: 65538 -1 276
Width: 500
Flags: W
LayerCount: 2
Fore
SplineSet
288 0 m 1,0,1
 280 35 280 35 265.5 75.5 c 128,-1,2
 251 116 251 116 233 154.5 c 128,-1,3
 215 193 215 193 196 226.5 c 128,-1,4
 177 260 177 260 159 283 c 1,5,-1
 159 0 l 1,6,-1
 45 0 l 1,7,-1
 45 619 l 1,8,-1
 159 619 l 1,9,-1
 159 362 l 1,10,11
 174 390 174 390 190 424 c 128,-1,12
 206 458 206 458 220 492 c 128,-1,13
 234 526 234 526 246 559 c 128,-1,14
 258 592 258 592 266 619 c 1,15,-1
 396 619 l 1,16,17
 386 592 386 592 370 558 c 128,-1,18
 354 524 354 524 333 486.5 c 128,-1,19
 312 449 312 449 286.5 409 c 128,-1,20
 261 369 261 369 233 330 c 1,21,22
 269 296 269 296 298 254.5 c 128,-1,23
 327 213 327 213 349.5 169 c 128,-1,24
 372 125 372 125 389 81 c 128,-1,25
 406 37 406 37 418 0 c 1,26,-1
 288 0 l 1,0,1
403 442 m 1,27,28
 401 456 401 456 400 470.5 c 128,-1,29
 399 485 399 485 400 498 c 0,30,31
 402 531 402 531 407 557 c 128,-1,32
 412 583 412 583 419.5 605 c 128,-1,33
 427 627 427 627 438 647.5 c 128,-1,34
 449 668 449 668 463 691 c 1,35,-1
 532 675 l 1,36,37
 513 626 513 626 505.5 581.5 c 128,-1,38
 498 537 498 537 498 490 c 0,39,40
 498 477 498 477 498.5 464 c 128,-1,41
 499 451 499 451 501 442 c 1,42,-1
 403 442 l 1,27,28
EndSplineSet
EndChar

StartChar: kgreenlandic
Encoding: 312 312 277
Width: 500
Flags: W
LayerCount: 2
Fore
SplineSet
187 284 m 1,0,1
 205 305 205 305 223.5 328.5 c 128,-1,2
 242 352 242 352 259.5 377 c 128,-1,3
 277 402 277 402 293 425.5 c 128,-1,4
 309 449 309 449 321 470 c 1,5,-1
 469 470 l 1,6,7
 451 447 451 447 428 420 c 128,-1,8
 405 393 405 393 380.5 365 c 128,-1,9
 356 337 356 337 331.5 311 c 128,-1,10
 307 285 307 285 287 263 c 1,11,12
 312 239 312 239 341 205.5 c 128,-1,13
 370 172 370 172 398 136 c 128,-1,14
 426 100 426 100 449.5 64 c 128,-1,15
 473 28 473 28 487 0 c 1,16,-1
 346 0 l 1,17,18
 334 25 334 25 314.5 56.5 c 128,-1,19
 295 88 295 88 273 118.5 c 128,-1,20
 251 149 251 149 228.5 176.5 c 128,-1,21
 206 204 206 204 187 222 c 1,22,-1
 187 0 l 1,23,-1
 63 0 l 1,24,-1
 63 469 l 1,25,-1
 187 470 l 1,26,-1
 187 284 l 1,0,1
EndSplineSet
Substitution2: "'case' Case-Sensitive Forms lookup 18 subtable" kgreenlandic.case
EndChar

StartChar: lacute
Encoding: 314 314 279
Width: 500
Flags: W
LayerCount: 2
Fore
SplineSet
467 20 m 2,0,1
 464 18 464 18 453.5 13 c 128,-1,2
 443 8 443 8 426 2.5 c 128,-1,3
 409 -3 409 -3 384.5 -7 c 128,-1,4
 360 -11 360 -11 329 -11 c 0,5,6
 244 -11 244 -11 205 39.5 c 128,-1,7
 166 90 166 90 166 187 c 2,8,-1
 166 543 l 1,9,-1
 36 543 l 1,10,-1
 36 645 l 1,11,-1
 289 645 l 1,12,-1
 289 178 l 2,13,14
 289 130 289 130 308 113 c 128,-1,15
 327 96 327 96 356 96 c 0,16,17
 393 96 393 96 418 106 c 128,-1,18
 443 116 443 116 451 119 c 1,19,-1
 467 20 l 2,0,1
352 739 m 1,20,-1
 157 677 l 1,21,-1
 130 739 l 1,22,-1
 320 829 l 1,23,-1
 352 739 l 1,20,-1
EndSplineSet
Substitution2: "'case' Case-Sensitive Forms lookup 18 subtable" Lacute
EndChar

StartChar: Ldot
Encoding: 319 319 284
Width: 500
Flags: W
LayerCount: 2
Fore
SplineSet
458 360 m 256,0,1
 458 320 458 320 432.5 299 c 128,-1,2
 407 278 407 278 375 278 c 256,3,4
 343 278 343 278 317.5 299 c 128,-1,5
 292 320 292 320 292 360 c 256,6,7
 292 400 292 400 317.5 421 c 128,-1,8
 343 442 343 442 375 442 c 256,9,10
 407 442 407 442 432.5 421 c 128,-1,11
 458 400 458 400 458 360 c 256,0,1
460 0 m 1,12,-1
 71 0 l 1,13,-1
 71 619 l 1,14,-1
 195 619 l 1,15,-1
 195 102 l 1,16,-1
 460 102 l 1,17,-1
 460 0 l 1,12,-1
EndSplineSet
EndChar

StartChar: ldot
Encoding: 320 320 285
Width: 500
Flags: W
LayerCount: 2
Fore
SplineSet
568 368 m 256,0,1
 568 328 568 328 542.5 307 c 128,-1,2
 517 286 517 286 485 286 c 256,3,4
 453 286 453 286 427.5 307 c 128,-1,5
 402 328 402 328 402 368 c 256,6,7
 402 408 402 408 427.5 429 c 128,-1,8
 453 450 453 450 485 450 c 256,9,10
 517 450 517 450 542.5 429 c 128,-1,11
 568 408 568 408 568 368 c 256,0,1
467 20 m 2,12,13
 464 18 464 18 453.5 13 c 128,-1,14
 443 8 443 8 426 2.5 c 128,-1,15
 409 -3 409 -3 384.5 -7 c 128,-1,16
 360 -11 360 -11 329 -11 c 0,17,18
 244 -11 244 -11 205 39.5 c 128,-1,19
 166 90 166 90 166 187 c 2,20,-1
 166 591 l 1,21,-1
 36 591 l 1,22,-1
 36 693 l 1,23,-1
 289 693 l 1,24,-1
 289 178 l 2,25,26
 289 130 289 130 308 113 c 128,-1,27
 327 96 327 96 356 96 c 0,28,29
 393 96 393 96 418 106 c 128,-1,30
 443 116 443 116 451 119 c 1,31,-1
 467 20 l 2,12,13
EndSplineSet
Substitution2: "'case' Case-Sensitive Forms lookup 18 subtable" Ldot
EndChar

StartChar: Lslash
Encoding: 321 321 286
Width: 500
Flags: W
LayerCount: 2
Fore
SplineSet
213 292 m 1,0,-1
 213 102 l 1,1,-1
 460 102 l 1,2,-1
 460 0 l 1,3,-1
 89 0 l 1,4,-1
 89 230 l 1,5,-1
 34 203 l 1,6,-1
 -10 293 l 1,7,-1
 89 343 l 1,8,-1
 89 619 l 1,9,-1
 213 619 l 1,10,-1
 213 405 l 1,11,-1
 321 459 l 1,12,-1
 364 369 l 1,13,-1
 213 292 l 1,0,-1
EndSplineSet
EndChar

StartChar: lslash
Encoding: 322 322 287
Width: 500
Flags: W
LayerCount: 2
Fore
SplineSet
467 20 m 2,0,1
 464 18 464 18 453.5 13 c 128,-1,2
 443 8 443 8 426 2.5 c 128,-1,3
 409 -3 409 -3 384.5 -7 c 128,-1,4
 360 -11 360 -11 329 -11 c 0,5,6
 244 -11 244 -11 205 39.5 c 128,-1,7
 166 90 166 90 166 187 c 2,8,-1
 166 299 l 1,9,-1
 111 271 l 1,10,-1
 71 354 l 1,11,-1
 166 401 l 1,12,-1
 166 586 l 1,13,-1
 36 586 l 1,14,-1
 36 688 l 1,15,-1
 289 688 l 1,16,-1
 289 462 l 1,17,-1
 353 494 l 1,18,-1
 393 412 l 1,19,-1
 289 360 l 1,20,-1
 289 178 l 2,21,22
 289 130 289 130 308 113 c 128,-1,23
 327 96 327 96 356 96 c 0,24,25
 393 96 393 96 418 106 c 128,-1,26
 443 116 443 116 451 119 c 1,27,-1
 467 20 l 2,0,1
EndSplineSet
Substitution2: "'case' Case-Sensitive Forms lookup 18 subtable" Lslash
EndChar

StartChar: napostrophe.case
Encoding: 65539 -1 294
Width: 500
Flags: W
LayerCount: 2
Fore
SplineSet
379 0 m 1,0,1
 362 52 362 52 347 99.5 c 128,-1,2
 332 147 332 147 318 193.5 c 128,-1,3
 304 240 304 240 289 289 c 128,-1,4
 274 338 274 338 258 393 c 1,5,-1
 258 0 l 1,6,-1
 171 0 l 1,7,-1
 171 619 l 1,8,-1
 246 619 l 1,9,10
 259 580 259 580 274 535 c 128,-1,11
 289 490 289 490 304.5 443 c 128,-1,12
 320 396 320 396 336 348.5 c 128,-1,13
 352 301 352 301 366 256 c 1,14,-1
 366 619 l 1,15,-1
 454 619 l 1,16,-1
 454 0 l 1,17,-1
 379 0 l 1,0,1
138 693 m 1,18,-1
 138 655 l 2,19,20
 136 627 136 627 131.5 604 c 128,-1,21
 127 581 127 581 119.5 561 c 128,-1,22
 112 541 112 541 101.5 522.5 c 128,-1,23
 91 504 91 504 78 484 c 1,24,-1
 9 504 l 1,25,26
 28 544 28 544 35.5 579.5 c 128,-1,27
 43 615 43 615 43 653 c 0,28,29
 43 664 43 664 42.5 674.5 c 128,-1,30
 42 685 42 685 40 693 c 1,31,-1
 138 693 l 1,18,-1
EndSplineSet
EndChar

StartChar: Eng
Encoding: 330 330 296
Width: 500
Flags: W
LayerCount: 2
Fore
SplineSet
343 30 m 1,0,1
 303 125 303 125 256.5 220 c 128,-1,2
 210 315 210 315 157 411 c 1,3,-1
 157 0 l 1,4,-1
 46 0 l 1,5,-1
 46 619 l 1,6,-1
 145 619 l 1,7,8
 173 575 173 575 201 523.5 c 128,-1,9
 229 472 229 472 255.5 421 c 128,-1,10
 282 370 282 370 304.5 322 c 128,-1,11
 327 274 327 274 343 238 c 1,12,-1
 343 619 l 1,13,-1
 454 619 l 1,14,-1
 454 8 l 2,15,16
 454 -79 454 -79 418.5 -123 c 128,-1,17
 383 -167 383 -167 305 -167 c 0,18,19
 294 -167 294 -167 276 -165 c 128,-1,20
 258 -163 258 -163 240 -155 c 1,21,-1
 258 -54 l 1,22,23
 277 -62 277 -62 295 -62 c 0,24,25
 323 -62 323 -62 333 -45 c 128,-1,26
 343 -28 343 -28 343 4 c 2,27,-1
 343 30 l 1,0,1
EndSplineSet
EndChar

StartChar: eng
Encoding: 331 331 297
Width: 500
Flags: W
LayerCount: 2
Fore
SplineSet
318 249 m 2,0,1
 318 315 318 315 303 344 c 128,-1,2
 288 373 288 373 242 373 c 0,3,4
 228 373 228 373 214.5 372 c 128,-1,5
 201 371 201 371 186 369 c 1,6,-1
 186 0 l 1,7,-1
 63 0 l 1,8,-1
 63 455 l 1,9,10
 96 464 96 464 144.5 472 c 128,-1,11
 193 480 193 480 250 480 c 0,12,13
 306 480 306 480 343 464.5 c 128,-1,14
 380 449 380 449 401.5 420.5 c 128,-1,15
 423 392 423 392 432 352.5 c 128,-1,16
 441 313 441 313 441 265 c 2,17,-1
 441 3 l 2,18,19
 441 -83 441 -83 404.5 -124 c 128,-1,20
 368 -165 368 -165 284 -165 c 0,21,22
 273 -165 273 -165 252.5 -163.5 c 128,-1,23
 232 -162 232 -162 213 -154 c 1,24,-1
 229 -59 l 1,25,26
 248 -65 248 -65 269 -65 c 0,27,28
 318 -65 318 -65 318 -2 c 2,29,-1
 318 249 l 2,0,1
EndSplineSet
Substitution2: "'case' Case-Sensitive Forms lookup 18 subtable" Eng
EndChar

StartChar: Scedilla
Encoding: 350 350 314
Width: 500
Flags: W
LayerCount: 2
Fore
SplineSet
260 -24 m 1,0,1
 293 -34 293 -34 306 -53.5 c 128,-1,2
 319 -73 319 -73 319 -91 c 0,3,4
 319 -114 319 -114 308.5 -129 c 128,-1,5
 298 -144 298 -144 281.5 -153 c 128,-1,6
 265 -162 265 -162 243 -166 c 128,-1,7
 221 -170 221 -170 199 -170 c 0,8,9
 154 -170 154 -170 119 -159 c 1,10,-1
 132 -96 l 1,11,12
 138 -98 138 -98 155 -101.5 c 128,-1,13
 172 -105 172 -105 188 -105 c 0,14,15
 229 -105 229 -105 229 -80 c 0,16,17
 229 -61 229 -61 193 -49 c 2,18,-1
 173 -43 l 1,19,20
 175 -35 175 -35 178.5 -27 c 128,-1,21
 182 -19 182 -19 185 -11 c 1,22,23
 129 -6 129 -6 94.5 8 c 128,-1,24
 60 22 60 22 40 34 c 1,25,-1
 76 134 l 1,26,27
 103 118 103 118 140.5 104 c 128,-1,28
 178 90 178 90 232 90 c 0,29,30
 263 90 263 90 283.5 96.5 c 128,-1,31
 304 103 304 103 316 114.5 c 128,-1,32
 328 126 328 126 332.5 140.5 c 128,-1,33
 337 155 337 155 337 170 c 0,34,35
 337 189 337 189 326 204 c 128,-1,36
 315 219 315 219 298 230.5 c 128,-1,37
 281 242 281 242 260 251.5 c 128,-1,38
 239 261 239 261 218 269 c 0,39,40
 190 279 190 279 160 292 c 128,-1,41
 130 305 130 305 105.5 325 c 128,-1,42
 81 345 81 345 65 374.5 c 128,-1,43
 49 404 49 404 49 448 c 0,44,45
 49 535 49 535 105.5 584 c 128,-1,46
 162 633 162 633 261 633 c 0,47,48
 318 633 318 633 360.5 620 c 128,-1,49
 403 607 403 607 432 591 c 1,50,-1
 396 496 l 1,51,52
 371 510 371 510 340.5 520 c 128,-1,53
 310 530 310 530 270 530 c 0,54,55
 172 530 172 530 172 459 c 0,56,57
 172 441 172 441 182 427.5 c 128,-1,58
 192 414 192 414 207.5 403.5 c 128,-1,59
 223 393 223 393 242.5 385 c 128,-1,60
 262 377 262 377 281 370 c 0,61,62
 310 359 310 359 341.5 345.5 c 128,-1,63
 373 332 373 332 399.5 309.5 c 128,-1,64
 426 287 426 287 443 253.5 c 128,-1,65
 460 220 460 220 460 169 c 0,66,67
 460 88 460 88 411.5 41.5 c 128,-1,68
 363 -5 363 -5 265 -12 c 1,69,70
 261 -20 261 -20 260 -24 c 1,0,1
EndSplineSet
EndChar

StartChar: scedilla
Encoding: 351 351 315
Width: 500
Flags: W
LayerCount: 2
Fore
SplineSet
270 -24 m 1,0,1
 303 -34 303 -34 316 -53.5 c 128,-1,2
 329 -73 329 -73 329 -91 c 0,3,4
 329 -114 329 -114 318.5 -129 c 128,-1,5
 308 -144 308 -144 291.5 -153 c 128,-1,6
 275 -162 275 -162 253 -166 c 128,-1,7
 231 -170 231 -170 209 -170 c 0,8,9
 164 -170 164 -170 129 -159 c 1,10,-1
 142 -96 l 1,11,12
 148 -98 148 -98 165 -101.5 c 128,-1,13
 182 -105 182 -105 198 -105 c 0,14,15
 239 -105 239 -105 239 -80 c 0,16,17
 239 -61 239 -61 203 -49 c 2,18,-1
 183 -43 l 1,19,20
 185 -35 185 -35 188.5 -26.5 c 128,-1,21
 192 -18 192 -18 196 -10 c 1,22,23
 147 -6 147 -6 111.5 6 c 128,-1,24
 76 18 76 18 54 28 c 1,25,-1
 73 131 l 1,26,27
 108 117 108 117 147.5 105 c 128,-1,28
 187 93 187 93 228 93 c 0,29,30
 273 93 273 93 297 99.5 c 128,-1,31
 321 106 321 106 321 126 c 0,32,33
 321 139 321 139 313.5 148 c 128,-1,34
 306 157 306 157 292.5 163.5 c 128,-1,35
 279 170 279 170 261.5 176 c 128,-1,36
 244 182 244 182 225 188 c 0,37,38
 198 196 198 196 170 206.5 c 128,-1,39
 142 217 142 217 119 233 c 128,-1,40
 96 249 96 249 81 273.5 c 128,-1,41
 66 298 66 298 66 335 c 0,42,43
 66 365 66 365 77.5 391.5 c 128,-1,44
 89 418 89 418 113.5 438.5 c 128,-1,45
 138 459 138 459 176 470.5 c 128,-1,46
 214 482 214 482 267 482 c 0,47,48
 313 482 313 482 352.5 475 c 128,-1,49
 392 468 392 468 421 455 c 1,50,-1
 402 351 l 1,51,52
 385 356 385 356 349 367.5 c 128,-1,53
 313 379 313 379 268 379 c 0,54,55
 221 379 221 379 204.5 367.5 c 128,-1,56
 188 356 188 356 188 343 c 0,57,58
 188 332 188 332 195.5 323.5 c 128,-1,59
 203 315 203 315 215.5 308 c 128,-1,60
 228 301 228 301 244.5 294.5 c 128,-1,61
 261 288 261 288 280 282 c 0,62,63
 307 273 307 273 336 262 c 128,-1,64
 365 251 365 251 388.5 234.5 c 128,-1,65
 412 218 412 218 427 192.5 c 128,-1,66
 442 167 442 167 442 130 c 0,67,68
 442 104 442 104 433 80.5 c 128,-1,69
 424 57 424 57 404.5 39 c 128,-1,70
 385 21 385 21 353.5 8.5 c 128,-1,71
 322 -4 322 -4 276 -8 c 1,72,-1
 270 -24 l 1,0,1
EndSplineSet
Substitution2: "'case' Case-Sensitive Forms lookup 18 subtable" Scedilla
EndChar

StartChar: uni0162
Encoding: 354 354 316
Width: 500
Flags: W
LayerCount: 2
Fore
SplineSet
273 -24 m 1,0,1
 306 -34 306 -34 319 -53.5 c 128,-1,2
 332 -73 332 -73 332 -91 c 0,3,4
 332 -114 332 -114 321.5 -129 c 128,-1,5
 311 -144 311 -144 294.5 -153 c 128,-1,6
 278 -162 278 -162 256 -166 c 128,-1,7
 234 -170 234 -170 212 -170 c 0,8,9
 167 -170 167 -170 132 -159 c 1,10,-1
 145 -96 l 1,11,12
 151 -98 151 -98 168 -101.5 c 128,-1,13
 185 -105 185 -105 201 -105 c 0,14,15
 242 -105 242 -105 242 -80 c 0,16,17
 242 -61 242 -61 206 -49 c 2,18,-1
 186 -43 l 1,19,20
 189 -32 189 -32 193.5 -20.5 c 128,-1,21
 198 -9 198 -9 203 0 c 1,22,-1
 188 0 l 1,23,-1
 188 517 l 1,24,-1
 25 517 l 1,25,-1
 25 619 l 1,26,-1
 475 619 l 1,27,-1
 475 517 l 1,28,-1
 312 517 l 1,29,-1
 312 0 l 1,30,-1
 283 0 l 1,31,32
 278 -8 278 -8 273 -24 c 1,0,1
EndSplineSet
EndChar

StartChar: uni0163
Encoding: 355 355 317
Width: 500
Flags: W
LayerCount: 2
Fore
SplineSet
343 -24 m 1,0,1
 376 -34 376 -34 389 -53.5 c 128,-1,2
 402 -73 402 -73 402 -91 c 0,3,4
 402 -114 402 -114 391.5 -129 c 128,-1,5
 381 -144 381 -144 364.5 -153 c 128,-1,6
 348 -162 348 -162 326 -166 c 128,-1,7
 304 -170 304 -170 282 -170 c 0,8,9
 237 -170 237 -170 202 -159 c 1,10,-1
 215 -96 l 1,11,12
 221 -98 221 -98 238 -101.5 c 128,-1,13
 255 -105 255 -105 271 -105 c 0,14,15
 312 -105 312 -105 312 -80 c 0,16,17
 312 -61 312 -61 276 -49 c 2,18,-1
 256 -43 l 1,19,20
 258 -34 258 -34 261.5 -25 c 128,-1,21
 265 -16 265 -16 269 -8 c 1,22,23
 239 -5 239 -5 215.5 5.5 c 128,-1,24
 192 16 192 16 176 37 c 128,-1,25
 160 58 160 58 151.5 91.5 c 128,-1,26
 143 125 143 125 143 175 c 2,27,-1
 143 368 l 1,28,-1
 36 368 l 1,29,-1
 36 470 l 1,30,-1
 143 470 l 1,31,-1
 143 588 l 1,32,-1
 266 608 l 1,33,-1
 266 470 l 1,34,-1
 463 470 l 1,35,-1
 463 368 l 1,36,-1
 266 368 l 1,37,-1
 266 178 l 2,38,39
 266 152 266 152 271 136 c 128,-1,40
 276 120 276 120 285 111 c 128,-1,41
 294 102 294 102 307 99 c 128,-1,42
 320 96 320 96 336 96 c 0,43,44
 353 96 353 96 367.5 97 c 128,-1,45
 382 98 382 98 395.5 100.5 c 128,-1,46
 409 103 409 103 423.5 108 c 128,-1,47
 438 113 438 113 455 121 c 1,48,-1
 472 15 l 1,49,50
 444 4 444 4 412 -2 c 128,-1,51
 380 -8 380 -8 348 -10 c 1,52,-1
 343 -24 l 1,0,1
EndSplineSet
Substitution2: "'case' Case-Sensitive Forms lookup 18 subtable" uni0162
EndChar

StartChar: Tbar
Encoding: 358 358 320
Width: 500
Flags: W
LayerCount: 2
Fore
SplineSet
475 619 m 1,0,-1
 475 517 l 1,1,-1
 312 517 l 1,2,-1
 312 337 l 1,3,-1
 438 337 l 1,4,-1
 438 238 l 1,5,-1
 312 238 l 1,6,-1
 312 0 l 1,7,-1
 188 0 l 1,8,-1
 188 238 l 1,9,-1
 63 238 l 1,10,-1
 63 337 l 1,11,-1
 188 337 l 1,12,-1
 188 517 l 1,13,-1
 25 517 l 1,14,-1
 25 619 l 1,15,-1
 475 619 l 1,0,-1
EndSplineSet
EndChar

StartChar: tbar
Encoding: 359 359 321
Width: 500
Flags: W
LayerCount: 2
Fore
SplineSet
143 204 m 1,0,-1
 36 204 l 1,1,-1
 36 288 l 1,2,-1
 143 288 l 1,3,-1
 143 368 l 1,4,-1
 36 368 l 1,5,-1
 36 470 l 1,6,-1
 143 470 l 1,7,-1
 143 588 l 1,8,-1
 266 608 l 1,9,-1
 266 470 l 1,10,-1
 463 470 l 1,11,-1
 463 368 l 1,12,-1
 266 368 l 1,13,-1
 266 288 l 1,14,-1
 462 288 l 1,15,-1
 462 204 l 1,16,-1
 266 204 l 1,17,-1
 266 178 l 2,18,19
 266 152 266 152 271 136 c 128,-1,20
 276 120 276 120 285 111 c 128,-1,21
 294 102 294 102 307 99 c 128,-1,22
 320 96 320 96 336 96 c 0,23,24
 353 96 353 96 367.5 97 c 128,-1,25
 382 98 382 98 395.5 100.5 c 128,-1,26
 409 103 409 103 423.5 108 c 128,-1,27
 438 113 438 113 455 121 c 1,28,-1
 472 15 l 1,29,30
 438 1 438 1 398.5 -5 c 128,-1,31
 359 -11 359 -11 322 -11 c 0,32,33
 279 -11 279 -11 246 -4 c 128,-1,34
 213 3 213 3 190 23 c 128,-1,35
 167 43 167 43 155 79.5 c 128,-1,36
 143 116 143 116 143 175 c 2,37,-1
 143 204 l 1,0,-1
EndSplineSet
Substitution2: "'case' Case-Sensitive Forms lookup 18 subtable" Tbar
EndChar

StartChar: Uring
Encoding: 366 366 328
Width: 500
Flags: W
LayerCount: 2
Fore
SplineSet
248 -13 m 0,0,1
 188 -13 188 -13 147.5 3.5 c 128,-1,2
 107 20 107 20 83 51 c 128,-1,3
 59 82 59 82 49 126 c 128,-1,4
 39 170 39 170 39 224 c 2,5,-1
 39 599 l 1,6,-1
 163 599 l 1,7,-1
 163 232 l 2,8,9
 163 193 163 193 167 166.5 c 128,-1,10
 171 140 171 140 180.5 124 c 128,-1,11
 190 108 190 108 207 101 c 128,-1,12
 224 94 224 94 250 94 c 256,13,14
 276 94 276 94 293 101 c 128,-1,15
 310 108 310 108 320 124.5 c 128,-1,16
 330 141 330 141 334 167.5 c 128,-1,17
 338 194 338 194 338 233 c 2,18,-1
 338 599 l 1,19,-1
 461 599 l 1,20,-1
 461 224 l 2,21,22
 461 170 461 170 451 126 c 128,-1,23
 441 82 441 82 416 51 c 128,-1,24
 391 20 391 20 350 3.5 c 128,-1,25
 309 -13 309 -13 248 -13 c 0,0,1
355 723 m 0,26,27
 355 673 355 673 323.5 647 c 128,-1,28
 292 621 292 621 249 621 c 0,29,30
 229 621 229 621 210 627.5 c 128,-1,31
 191 634 191 634 176.5 647 c 128,-1,32
 162 660 162 660 153.5 679 c 128,-1,33
 145 698 145 698 145 723 c 256,34,35
 145 748 145 748 153.5 767.5 c 128,-1,36
 162 787 162 787 176.5 800 c 128,-1,37
 191 813 191 813 210 819.5 c 128,-1,38
 229 826 229 826 249 826 c 0,39,40
 292 826 292 826 323.5 800 c 128,-1,41
 355 774 355 774 355 723 c 0,26,27
290 723 m 0,42,43
 290 744 290 744 278 754.5 c 128,-1,44
 266 765 266 765 249 765 c 0,45,46
 234 765 234 765 221.5 754.5 c 128,-1,47
 209 744 209 744 209 723 c 0,48,49
 209 703 209 703 221.5 692 c 128,-1,50
 234 681 234 681 249 681 c 0,51,52
 266 681 266 681 278 692 c 128,-1,53
 290 703 290 703 290 723 c 0,42,43
EndSplineSet
EndChar

StartChar: Uogonek
Encoding: 370 370 332
Width: 500
Flags: W
LayerCount: 2
Fore
SplineSet
391 24 m 0,0,1
 384 19 384 19 369.5 6 c 128,-1,2
 355 -7 355 -7 340 -22.5 c 128,-1,3
 325 -38 325 -38 313.5 -53.5 c 128,-1,4
 302 -69 302 -69 302 -81 c 0,5,6
 302 -91 302 -91 307.5 -98 c 128,-1,7
 313 -105 313 -105 329 -105 c 0,8,9
 337 -105 337 -105 348 -104 c 128,-1,10
 359 -103 359 -103 374 -98 c 1,11,-1
 381 -156 l 1,12,13
 367 -161 367 -161 341.5 -165.5 c 128,-1,14
 316 -170 316 -170 288 -170 c 0,15,16
 240 -170 240 -170 219 -151.5 c 128,-1,17
 198 -133 198 -133 198 -106 c 0,18,19
 198 -83 198 -83 210.5 -58.5 c 128,-1,20
 223 -34 223 -34 245 -13 c 1,21,22
 185 -13 185 -13 145.5 4 c 128,-1,23
 106 21 106 21 82.5 52 c 128,-1,24
 59 83 59 83 49 126.5 c 128,-1,25
 39 170 39 170 39 224 c 2,26,-1
 39 619 l 1,27,-1
 163 619 l 1,28,-1
 163 232 l 2,29,30
 163 193 163 193 167 166.5 c 128,-1,31
 171 140 171 140 180.5 124 c 128,-1,32
 190 108 190 108 207 101 c 128,-1,33
 224 94 224 94 250 94 c 256,34,35
 276 94 276 94 293 101 c 128,-1,36
 310 108 310 108 320 124.5 c 128,-1,37
 330 141 330 141 334 167.5 c 128,-1,38
 338 194 338 194 338 233 c 2,39,-1
 338 619 l 1,40,-1
 461 619 l 1,41,-1
 461 224 l 2,42,43
 461 156 461 156 446 106.5 c 128,-1,44
 431 57 431 57 391 24 c 0,0,1
EndSplineSet
EndChar

StartChar: uogonek
Encoding: 371 371 333
Width: 500
Flags: W
LayerCount: 2
Fore
SplineSet
434 -156 m 1,0,1
 420 -161 420 -161 394.5 -165.5 c 128,-1,2
 369 -170 369 -170 341 -170 c 0,3,4
 293 -170 293 -170 272 -151.5 c 128,-1,5
 251 -133 251 -133 251 -106 c 0,6,7
 251 -82 251 -82 265 -55.5 c 128,-1,8
 279 -29 279 -29 304 -7 c 1,9,10
 290 -9 290 -9 276.5 -10 c 128,-1,11
 263 -11 263 -11 250 -11 c 0,12,13
 192 -11 192 -11 155 5 c 128,-1,14
 118 21 118 21 96.5 50.5 c 128,-1,15
 75 80 75 80 67 120 c 128,-1,16
 59 160 59 160 59 208 c 2,17,-1
 59 470 l 1,18,-1
 182 470 l 1,19,-1
 182 224 l 2,20,21
 182 159 182 159 197.5 127.5 c 128,-1,22
 213 96 213 96 258 96 c 0,23,24
 286 96 286 96 314 101 c 1,25,-1
 314 470 l 1,26,-1
 438 470 l 1,27,-1
 438 16 l 1,28,29
 431 11 431 11 417.5 -0.5 c 128,-1,30
 404 -12 404 -12 390 -26 c 128,-1,31
 376 -40 376 -40 365.5 -54.5 c 128,-1,32
 355 -69 355 -69 355 -81 c 0,33,34
 355 -91 355 -91 360.5 -98 c 128,-1,35
 366 -105 366 -105 382 -105 c 0,36,37
 390 -105 390 -105 401 -104 c 128,-1,38
 412 -103 412 -103 427 -98 c 1,39,-1
 434 -156 l 1,0,1
EndSplineSet
Substitution2: "'case' Case-Sensitive Forms lookup 18 subtable" Uogonek
EndChar

StartChar: longs
Encoding: 383 383 344
Width: 500
Flags: W
LayerCount: 2
Fore
SplineSet
139 0 m 1,0,-1
 139 497 l 2,1,2
 139 554 139 554 155.5 591.5 c 128,-1,3
 172 629 172 629 200 651.5 c 128,-1,4
 228 674 228 674 264 683.5 c 128,-1,5
 300 693 300 693 338 693 c 0,6,7
 377 693 377 693 418 687 c 128,-1,8
 459 681 459 681 492 665 c 1,9,-1
 471 564 l 1,10,11
 448 572 448 572 413.5 580 c 128,-1,12
 379 588 379 588 348 588 c 0,13,14
 331 588 331 588 315.5 585 c 128,-1,15
 300 582 300 582 288.5 572 c 128,-1,16
 277 562 277 562 270 543.5 c 128,-1,17
 263 525 263 525 263 495 c 2,18,-1
 263 0 l 1,19,-1
 139 0 l 1,0,-1
EndSplineSet
Substitution2: "'case' Case-Sensitive Forms lookup 17 subtable" S
EndChar

StartChar: dotlessj
Encoding: 567 567 349
Width: 500
Flags: W
LayerCount: 2
Fore
SplineSet
400 31 m 2,0,1
 400 -26 400 -26 386 -64.5 c 128,-1,2
 372 -103 372 -103 347.5 -126.5 c 128,-1,3
 323 -150 323 -150 289.5 -160 c 128,-1,4
 256 -170 256 -170 217 -170 c 0,5,6
 169 -170 169 -170 128 -158 c 128,-1,7
 87 -146 87 -146 49 -127 c 1,8,-1
 87 -23 l 1,9,10
 112 -37 112 -37 147.5 -49.5 c 128,-1,11
 183 -62 183 -62 212 -62 c 0,12,13
 243 -62 243 -62 260 -43.5 c 128,-1,14
 277 -25 277 -25 277 25 c 2,15,-1
 277 367 l 1,16,-1
 87 367 l 1,17,-1
 87 469 l 1,18,-1
 400 469 l 1,19,-1
 400 31 l 2,0,1
EndSplineSet
Substitution2: "'case' Case-Sensitive Forms lookup 17 subtable" J
EndChar

StartChar: apostrophe
Encoding: 700 700 350
Width: 500
Flags: W
LayerCount: 2
Fore
SplineSet
323 693 m 1,0,1
 323 682 323 682 323 674 c 128,-1,2
 323 666 323 666 322 655 c 0,3,4
 320 627 320 627 315.5 604 c 128,-1,5
 311 581 311 581 303.5 560.5 c 128,-1,6
 296 540 296 540 286 521 c 128,-1,7
 276 502 276 502 263 482 c 1,8,-1
 176 506 l 1,9,10
 195 547 195 547 202.5 581 c 128,-1,11
 210 615 210 615 210 653 c 0,12,13
 210 664 210 664 209.5 674.5 c 128,-1,14
 209 685 209 685 207 693 c 1,15,-1
 323 693 l 1,0,1
EndSplineSet
EndChar

StartChar: caron
Encoding: 711 711 351
Width: 500
Flags: W
LayerCount: 2
Fore
SplineSet
112 632 m 1,0,-1
 161 691 l 1,1,-1
 250 622 l 1,2,-1
 339 691 l 1,3,-1
 390 632 l 1,4,-1
 250 510 l 1,5,-1
 112 632 l 1,0,-1
EndSplineSet
EndChar

StartChar: uni02C9
Encoding: 713 713 352
Width: 500
Flags: W
LayerCount: 2
Fore
SplineSet
106 647 m 1,0,-1
 394 647 l 1,1,-1
 394 556 l 1,2,-1
 106 556 l 1,3,-1
 106 647 l 1,0,-1
EndSplineSet
EndChar

StartChar: breve
Encoding: 728 728 353
Width: 500
Flags: W
LayerCount: 2
Fore
SplineSet
250 534 m 256,0,1
 219 534 219 534 192.5 543.5 c 128,-1,2
 166 553 166 553 146.5 571.5 c 128,-1,3
 127 590 127 590 116 616 c 128,-1,4
 105 642 105 642 105 675 c 2,5,-1
 105 682 l 1,6,-1
 196 682 l 1,7,8
 198 644 198 644 213 631.5 c 128,-1,9
 228 619 228 619 250 619 c 256,10,11
 272 619 272 619 287 631.5 c 128,-1,12
 302 644 302 644 305 682 c 1,13,-1
 395 682 l 1,14,-1
 395 675 l 2,15,16
 395 642 395 642 384 616 c 128,-1,17
 373 590 373 590 353.5 571.5 c 128,-1,18
 334 553 334 553 307.5 543.5 c 128,-1,19
 281 534 281 534 250 534 c 256,0,1
EndSplineSet
EndChar

StartChar: dotaccent
Encoding: 729 729 354
Width: 500
Flags: W
LayerCount: 2
Fore
SplineSet
250 536 m 256,0,1
 221 536 221 536 200 554.5 c 128,-1,2
 179 573 179 573 179 605 c 256,3,4
 179 637 179 637 200 656 c 128,-1,5
 221 675 221 675 250 675 c 256,6,7
 279 675 279 675 300 656 c 128,-1,8
 321 637 321 637 321 605 c 256,9,10
 321 573 321 573 300 554.5 c 128,-1,11
 279 536 279 536 250 536 c 256,0,1
EndSplineSet
EndChar

StartChar: ring
Encoding: 730 730 355
Width: 500
Flags: W
LayerCount: 2
Fore
SplineSet
355 604 m 0,0,1
 355 554 355 554 323.5 528 c 128,-1,2
 292 502 292 502 249 502 c 0,3,4
 229 502 229 502 210 508.5 c 128,-1,5
 191 515 191 515 176.5 528 c 128,-1,6
 162 541 162 541 153.5 560 c 128,-1,7
 145 579 145 579 145 604 c 256,8,9
 145 629 145 629 153.5 648.5 c 128,-1,10
 162 668 162 668 176.5 681 c 128,-1,11
 191 694 191 694 210 700.5 c 128,-1,12
 229 707 229 707 249 707 c 0,13,14
 292 707 292 707 323.5 681 c 128,-1,15
 355 655 355 655 355 604 c 0,0,1
290 604 m 0,16,17
 290 625 290 625 278 635.5 c 128,-1,18
 266 646 266 646 249 646 c 0,19,20
 234 646 234 646 221.5 635.5 c 128,-1,21
 209 625 209 625 209 604 c 0,22,23
 209 584 209 584 221.5 573 c 128,-1,24
 234 562 234 562 249 562 c 0,25,26
 266 562 266 562 278 573 c 128,-1,27
 290 584 290 584 290 604 c 0,16,17
EndSplineSet
EndChar

StartChar: ogonek
Encoding: 731 731 356
Width: 500
Flags: W
LayerCount: 2
Fore
SplineSet
346 -156 m 1,0,1
 332 -161 332 -161 306.5 -165.5 c 128,-1,2
 281 -170 281 -170 253 -170 c 0,3,4
 205 -170 205 -170 184 -151.5 c 128,-1,5
 163 -133 163 -133 163 -106 c 0,6,7
 163 -76 163 -76 185.5 -42.5 c 128,-1,8
 208 -9 208 -9 244 13 c 1,9,-1
 348 13 l 1,10,11
 341 8 341 8 327.5 -3 c 128,-1,12
 314 -14 314 -14 300.5 -27.5 c 128,-1,13
 287 -41 287 -41 277 -55 c 128,-1,14
 267 -69 267 -69 267 -81 c 0,15,16
 267 -91 267 -91 272.5 -98 c 128,-1,17
 278 -105 278 -105 294 -105 c 0,18,19
 302 -105 302 -105 313 -104 c 128,-1,20
 324 -103 324 -103 339 -98 c 1,21,-1
 346 -156 l 1,0,1
EndSplineSet
EndChar

StartChar: hungarumlaut
Encoding: 733 733 357
Width: 500
Flags: W
LayerCount: 2
Fore
SplineSet
258 622 m 1,0,-1
 114 510 l 1,1,-1
 67 559 l 1,2,-1
 188 692 l 1,3,-1
 258 622 l 1,0,-1
438 622 m 1,4,-1
 294 510 l 1,5,-1
 247 559 l 1,6,-1
 369 691 l 1,7,-1
 438 622 l 1,4,-1
EndSplineSet
EndChar

StartChar: fraction
Encoding: 8260 8260 366
Width: 500
Flags: W
LayerCount: 2
Fore
SplineSet
474 619 m 1,0,-1
 125 0 l 1,1,-1
 25 0 l 1,2,-1
 374 619 l 1,3,-1
 474 619 l 1,0,-1
EndSplineSet
EndChar

StartChar: zerosuperior
Encoding: 8304 8304 367
Width: 500
Flags: W
LayerCount: 2
Fore
SplineSet
102 448 m 256,0,1
 102 537 102 537 140.5 585 c 128,-1,2
 179 633 179 633 251 633 c 0,3,4
 322 633 322 633 360.5 585 c 128,-1,5
 399 537 399 537 399 448 c 256,6,7
 399 359 399 359 360.5 311 c 128,-1,8
 322 263 322 263 251 263 c 0,9,10
 179 263 179 263 140.5 311 c 128,-1,11
 102 359 102 359 102 448 c 256,0,1
304 448 m 0,12,13
 304 495 304 495 293 524 c 128,-1,14
 282 553 282 553 252 553 c 256,15,16
 222 553 222 553 209.5 524 c 128,-1,17
 197 495 197 495 197 448 c 0,18,19
 197 400 197 400 209.5 371.5 c 128,-1,20
 222 343 222 343 252 343 c 256,21,22
 282 343 282 343 293 371.5 c 128,-1,23
 304 400 304 400 304 448 c 0,12,13
280 451 m 256,24,25
 280 435 280 435 272 424 c 128,-1,26
 264 413 264 413 250 413 c 256,27,28
 236 413 236 413 228 424 c 128,-1,29
 220 435 220 435 220 451 c 256,30,31
 220 467 220 467 228 478 c 128,-1,32
 236 489 236 489 250 489 c 256,33,34
 264 489 264 489 272 478 c 128,-1,35
 280 467 280 467 280 451 c 256,24,25
EndSplineSet
Substitution2: "Single Substitution lookup 22 subtable" zeroinferior
Substitution2: "'sinf' Scientific Inferiors lookup 11 subtable" zero.sinf
Substitution2: "'subs' Subscript lookup 10 subtable" zero.sinf
Substitution2: "'sups' Superscript lookup 9 subtable" zero.sups
Substitution2: "'dnom' Denominators lookup 8 subtable" zeroinferior
EndChar

StartChar: foursuperior
Encoding: 8308 8308 368
Width: 500
Flags: W
LayerCount: 2
Fore
SplineSet
340 626 m 1,0,-1
 340 420 l 1,1,-1
 381 420 l 1,2,-1
 381 346 l 1,3,-1
 340 346 l 1,4,-1
 340 269 l 1,5,-1
 256 269 l 1,6,-1
 256 346 l 1,7,-1
 89 346 l 1,8,-1
 89 410 l 1,9,10
 127 474 127 474 165.5 524.5 c 128,-1,11
 204 575 204 575 252 626 c 1,12,-1
 340 626 l 1,0,-1
256 527 m 1,13,14
 236 504 236 504 217.5 478 c 128,-1,15
 199 452 199 452 183 420 c 1,16,-1
 256 420 l 1,17,-1
 256 527 l 1,13,14
EndSplineSet
Substitution2: "Single Substitution lookup 22 subtable" fourinferior
Substitution2: "'sinf' Scientific Inferiors lookup 11 subtable" four.sinf
Substitution2: "'subs' Subscript lookup 10 subtable" four.sinf
Substitution2: "'sups' Superscript lookup 9 subtable" four.sups
Substitution2: "'dnom' Denominators lookup 8 subtable" fourinferior
EndChar

StartChar: fivesuperior
Encoding: 8309 8309 369
Width: 500
Flags: W
LayerCount: 2
Fore
SplineSet
380 383 m 0,0,1
 380 330 380 330 347 296.5 c 128,-1,2
 314 263 314 263 231 263 c 0,3,4
 199 263 199 263 166.5 268.5 c 128,-1,5
 134 274 134 274 113 285 c 1,6,-1
 133 364 l 1,7,8
 151 357 151 357 170 351.5 c 128,-1,9
 189 346 189 346 222 346 c 0,10,11
 280 346 280 346 280 382 c 0,12,13
 280 412 280 412 243.5 418 c 128,-1,14
 207 424 207 424 136 424 c 1,15,16
 139 448 139 448 141.5 476.5 c 128,-1,17
 144 505 144 505 146.5 533.5 c 128,-1,18
 149 562 149 562 151 586.5 c 128,-1,19
 153 611 153 611 155 626 c 1,20,-1
 367 626 l 1,21,-1
 367 545 l 1,22,-1
 230 545 l 1,23,24
 230 536 230 536 229 520.5 c 128,-1,25
 228 505 228 505 226 495 c 1,26,27
 313 493 313 493 346.5 463.5 c 128,-1,28
 380 434 380 434 380 383 c 0,0,1
EndSplineSet
Substitution2: "Single Substitution lookup 22 subtable" fiveinferior
Substitution2: "'sinf' Scientific Inferiors lookup 11 subtable" five.sinf
Substitution2: "'subs' Subscript lookup 10 subtable" five.sinf
Substitution2: "'sups' Superscript lookup 9 subtable" five.sups
Substitution2: "'dnom' Denominators lookup 8 subtable" fiveinferior
EndChar

StartChar: sixsuperior
Encoding: 8310 8310 370
Width: 500
Flags: W
LayerCount: 2
Fore
SplineSet
230 428 m 0,0,1
 219 428 219 428 207 425 c 128,-1,2
 195 422 195 422 189 419 c 1,3,4
 184 339 184 339 240 339 c 0,5,6
 263 339 263 339 272.5 352.5 c 128,-1,7
 282 366 282 366 282 383 c 0,8,9
 282 406 282 406 270.5 417 c 128,-1,10
 259 428 259 428 230 428 c 0,0,1
248 493 m 0,11,12
 315 493 315 493 343 462.5 c 128,-1,13
 371 432 371 432 371 386 c 0,14,15
 371 362 371 362 363 339.5 c 128,-1,16
 355 317 355 317 338.5 300 c 128,-1,17
 322 283 322 283 297 273 c 128,-1,18
 272 263 272 263 238 263 c 0,19,20
 169 263 169 263 133.5 302.5 c 128,-1,21
 98 342 98 342 98 415 c 0,22,23
 98 514 98 514 162.5 570.5 c 128,-1,24
 227 627 227 627 342 627 c 1,25,-1
 346 547 l 1,26,27
 283 545 283 545 248.5 529 c 128,-1,28
 214 513 214 513 196 483 c 1,29,30
 204 487 204 487 218.5 490 c 128,-1,31
 233 493 233 493 248 493 c 0,11,12
EndSplineSet
Substitution2: "Single Substitution lookup 22 subtable" sixinferior
Substitution2: "'sinf' Scientific Inferiors lookup 11 subtable" six.sinf
Substitution2: "'subs' Subscript lookup 10 subtable" six.sinf
Substitution2: "'sups' Superscript lookup 9 subtable" six.sups
Substitution2: "'dnom' Denominators lookup 8 subtable" sixinferior
EndChar

